<?xml version="1.0" encoding="UTF-8" standalone="no"?>
<!-- Created with Inkscape (http://www.inkscape.org/) -->

<svg
   xmlns:dc="http://purl.org/dc/elements/1.1/"
   xmlns:cc="http://creativecommons.org/ns#"
   xmlns:rdf="http://www.w3.org/1999/02/22-rdf-syntax-ns#"
   xmlns:svg="http://www.w3.org/2000/svg"
   xmlns="http://www.w3.org/2000/svg"
   xmlns:sodipodi="http://sodipodi.sourceforge.net/DTD/sodipodi-0.dtd"
   xmlns:inkscape="http://www.inkscape.org/namespaces/inkscape"
   width="512"
   height="512"
   id="svg2"
   version="1.1"
   inkscape:version="0.48.2 r9819"
   inkscape:export-filename="/home/o2genum/projects/android/HowToSay/res/drawable-xhdpi/ic_forvo.png"
   inkscape:export-xdpi="35.15625"
   inkscape:export-ydpi="35.15625"
   sodipodi:docname="ic_forvo.svg">
  <defs
     id="defs4">
    <inkscape:perspective
       sodipodi:type="inkscape:persp3d"
       inkscape:vp_x="0 : 526.18109 : 1"
       inkscape:vp_y="0 : 1000 : 0"
       inkscape:vp_z="744.09448 : 526.18109 : 1"
       inkscape:persp3d-origin="372.04724 : 350.78739 : 1"
       id="perspective10" />
    <inkscape:perspective
       id="perspective3640"
       inkscape:persp3d-origin="0.5 : 0.33333333 : 1"
       inkscape:vp_z="1 : 0.5 : 1"
       inkscape:vp_y="0 : 1000 : 0"
       inkscape:vp_x="0 : 0.5 : 1"
       sodipodi:type="inkscape:persp3d" />
    <inkscape:perspective
       id="perspective3640-6"
       inkscape:persp3d-origin="0.5 : 0.33333333 : 1"
       inkscape:vp_z="1 : 0.5 : 1"
       inkscape:vp_y="0 : 1000 : 0"
       inkscape:vp_x="0 : 0.5 : 1"
       sodipodi:type="inkscape:persp3d" />
    <inkscape:perspective
       id="perspective3640-5"
       inkscape:persp3d-origin="0.5 : 0.33333333 : 1"
       inkscape:vp_z="1 : 0.5 : 1"
       inkscape:vp_y="0 : 1000 : 0"
       inkscape:vp_x="0 : 0.5 : 1"
       sodipodi:type="inkscape:persp3d" />
    <inkscape:perspective
       id="perspective4033"
       inkscape:persp3d-origin="320 : 160 : 1"
       inkscape:vp_z="640 : 240 : 1"
       inkscape:vp_y="0 : 1000 : 0"
       inkscape:vp_x="0 : 240 : 1"
       sodipodi:type="inkscape:persp3d" />
  </defs>
  <sodipodi:namedview
     id="base"
     pagecolor="#000000"
     bordercolor="#666666"
     borderopacity="1.0"
     inkscape:pageopacity="0"
     inkscape:pageshadow="2"
     inkscape:zoom="0.69999999"
     inkscape:cx="-81.714302"
     inkscape:cy="253.8594"
     inkscape:document-units="px"
     inkscape:current-layer="layer1"
     showgrid="false"
     inkscape:window-width="1366"
     inkscape:window-height="721"
     inkscape:window-x="0"
     inkscape:window-y="25"
     inkscape:window-maximized="1" />
  <metadata
     id="metadata7">
    <rdf:RDF>
      <cc:Work
         rdf:about="">
        <dc:format>image/svg+xml</dc:format>
        <dc:type
           rdf:resource="http://purl.org/dc/dcmitype/StillImage" />
        <dc:title></dc:title>
      </cc:Work>
    </rdf:RDF>
  </metadata>
  <g
     inkscape:label="Layer 1"
     inkscape:groupmode="layer"
     id="layer1"
     transform="translate(0,-540.36218)">
    <rect
       style="fill:#ffffff;fill-opacity:1;stroke:none"
       id="rect2816"
       width="450"
       height="504"
       x="-481"
       y="544.36218"
       ry="75.872261"
       transform="scale(-1,1)" />
    <rect
       style="fill:#000000;fill-opacity:1;fill-rule:nonzero;stroke:none"
       id="rect3630-5"
       width="330"
       height="62.857143"
       x="90"
       y="809.50507"
       ry="31.428572" />
    <rect
       style="fill:#000000;fill-opacity:1;fill-rule:nonzero;stroke:none"
       id="rect3630-59"
       width="264.28571"
       height="62.857143"
       x="90"
       y="709.50507"
       ry="31.428572" />
    <path
       style="fill:#ffffff;stroke:#000000;stroke-width:2;stroke-miterlimit:10;stroke-dasharray:none;stroke-linecap:round;stroke-linejoin:round"
       stroke-miterlimit="10"
       id="water"
       d="m 435.1992,790.27229 c 0,98.72146 -80.97411,178.74942 -180.86529,178.74942 -99.88946,0 -180.862784,-80.02796 -180.862784,-178.74942 0,-98.72475 80.973324,-178.756 180.862784,-178.756 99.89118,0 180.86529,80.03125 180.86529,178.756 z" />
    <path
       style="fill:#000000;stroke:#000000;stroke-width:2;stroke-miterlimit:10;stroke-dasharray:none;stroke-linecap:round;stroke-linejoin:round"
       stroke-miterlimit="10"
       id="land"
       d="m 435.56513,790.22298 c 0,98.9483 -81.16042,179.16034 -181.28025,179.16034 -100.11733,0 -181.278584,-80.21204 -181.278584,-179.16034 0,-98.94664 81.161254,-179.16034 181.278584,-179.16034 100.11983,0 181.28025,80.21288 181.28025,179.16034 z m -145.72222,-126.97455 1.36625,-0.0805 0.72928,-0.39777 1.60157,0.51365 0.3717,-0.8465 -1.75376,-1.09797 -0.83488,0.72076 -0.9596,0.39283 -1.21823,0.21697 -1.50842,0.14628 0.27607,-1.16865 -0.95296,-0.75526 -1.51841,-0.50378 -0.91806,0.0197 -0.0258,0.80539 -0.37173,0.6657 0.90142,0.76594 -0.12143,1.10867 1.02947,0.0904 -0.30518,0.60979 1.12592,0.45367 -0.49894,0.58926 0.17213,1.1481 0.0615,0.0411 1.244,0.19067 1.98326,0.0756 1.5284,-0.40845 0.0208,-0.86128 0.8249,0.77581 1.39701,0.0756 1.4943,-0.3271 1.57578,-0.69034 -1.54919,-0.37804 -1.57081,-0.55885 -1.67143,-0.57446 -1.20825,-0.15122 -0.71677,-0.60572 z m 66.82859,28.72647 1.14172,0.18163 0.0906,-0.78075 -0.82491,-0.51365 -0.61202,0.29751 0.20456,0.81526 m -0.40829,-1.9798 1.32053,0.47337 0.24364,-0.63446 -0.33595,-0.94676 -0.51471,0.0608 -0.56546,-0.82184 -1.06022,-0.33202 0.46483,1.09797 0.44734,1.10292 z m 2.24853,1.30425 0.68188,-0.0699 -0.17213,-0.76595 -0.39332,-0.53912 -0.28107,0.51365 0.16464,0.86128 m -6.91272,-12.05058 1.10099,0.25641 -0.58127,-0.81608 -1.12092,-0.44791 -0.66274,-0.73554 0.48396,1.04291 0.77999,0.70021 z m 39.06721,51.40175 0.40746,-0.63446 0.63199,-0.12574 -0.61702,-1.36506 -0.74839,0.33202 0.32596,1.79324 m 43.5925,66.21783 0.10231,-0.37229 -0.007,-1.10949 -0.11724,0.17176 0.0216,1.31002 m -176.84975,172.40074 -0.19376,-0.007 0.40248,-0.0148 -0.73425,-0.005 -0.97377,0.0304 -0.57545,0.0148 m -18.90118,-182.86272 1.397,0.63364 1.05025,0.63035 0.4848,-1.28042 -1.29473,0.17176 -1.63732,-0.15533 m 20.1344,182.58576 -0.41826,0.0822 -0.01,0.0501 -0.38754,0.0756 1.33049,-0.01 0.60207,-0.051 -0.37753,-0.0288 0.81077,-0.0657 -0.18875,-0.0452 -1.36128,-0.007 z m 38.36868,-79.49705 1.76373,-0.29668 0.72261,-0.76596 -0.0715,-1.28534 -2.01734,0.55064 0.5297,0.14629 0.0549,1.05112 -0.98207,0.59993 z m -22.59163,-3.47638 1.03444,0.66158 m -42.83328,-27.20608 0.32099,0.52022 -0.31599,0.34681 0.63697,0.17669 0.97873,-0.1956 -0.39248,-0.87197 -0.6112,-0.52516 -0.61702,0.54901 m 63.371,13.49128 0.30019,0.86212 0.45486,-0.76596 0.73926,-0.11999 -0.55548,-0.59995 -0.18378,0.72077 -0.75505,-0.097 z m 2.2377,3.52157 1.08019,0.76102 m -39.09132,-14.20133 1.47766,-0.0304 0.4898,-1.18428 -0.49478,0.72569 -0.97873,-0.23586 -0.49395,0.72485 m -11.87209,-16.28716 -0.35174,-0.60486 -0.85067,-0.0353 -1.34046,0.44792 -0.83071,-0.63364 m 4.75981,2.35291 0.59623,-1.46699 -1.30474,-1.22947 m 4.00645,6.59523 0.0108,-1.35028 -1.70303,-1.11851 m 3.0177,2.48276 1.06023,1.4719 m -0.005,1.46124 1.37122,2.33238 m 1.84521,1.92392 1.08101,-1.08317 -1.46852,-0.73553 m 3.51665,1.13328 1.17746,0.23094 m 3.73786,1.7694 -1.86602,-0.58927 -1.0752,0.7002 m -27.05291,-9.06811 1.5043,-0.23257 m 15.51095,-30.73999 1.09098,-0.51856 0.41829,-1.0125 m 3.48669,-15.55245 1.60573,-0.30654 1.57995,-0.28765 1.57994,-0.83169 -0.80576,-0.5038 -1.17748,0.56379 -1.1933,0.28271 -1.40614,0.30325 -0.18294,0.77993 m -11.19437,-49.07431 1.03528,-0.18656 -1.25398,1.1892 1.02947,0.06 0.63198,-0.74047 -0.0815,1.28946 0.54551,-1.75873 -0.38751,-0.78567 -1.51924,0.93278 z m -4.52614,9.7289 1.05025,0.61473 1.23901,0.58926 -0.37251,-1.30016 -0.7692,-0.33776 -1.14755,0.43393 z m 8.44607,-60.91288 -0.39248,0.88183 0.16797,1.22947 1.19744,0.48817 0.95796,-0.37311 1.46351,0.34763 0.17294,-0.82594 -0.26442,-1.13908 -0.93799,-0.57446 -1.244,-0.19149 -1.12093,0.15698 m -5.91317,-17.77879 0.32681,0.83664 -0.0258,1.04783 -0.62699,0.8013 -0.24448,1.16863 0.47399,1.08319 1.718,0.33778 0.99369,-0.79637 0.81493,-1.11852 0.938,-0.52926 0.22451,-0.96237 -0.89722,-0.4479 0.55048,-1.0125 -0.25943,-0.69527 -1.08604,-0.39777 -0.28021,-0.84649 0.0865,-1.16372 -0.72429,-0.16108 -0.53055,1.06838 -0.97291,0.70021 -0.47899,1.08729 z m -2.42147,-0.41831 0.75423,0.64514 -0.0715,-1.17851 -0.68272,0.53337 m -1.31471,5.83421 0.93801,0.81115 1.18247,0.61967 0.7592,-0.43311 0.1023,-0.6098 -1.54919,-0.44873 -1.43279,0.0608 m -5.25539,-1.8138 -0.56629,1.22947 0.66275,0.5646 0.17297,-0.97224 0.39247,-0.79059 -0.6619,-0.0312 m -3.35865,6.30759 0.84569,0.30243 0.0358,-1.0125 -0.88145,0.71007 m -0.006,-9.72808 0.98372,0.37312 0.28023,0.55391 0.80578,0.30738 0.66774,-0.2367 -0.59624,-0.9073 -1.28475,-0.42324 -0.85648,0.33283 m -1.53424,0.19149 -0.0964,0.66569 0.48894,0.12081 0.56045,-0.76102 -0.95296,-0.0255 m 0.6528,0.93197 -0.45902,0.81115 0.65775,0.63939 1.33546,-0.11095 0.89225,-0.96237 -0.5962,-0.26708 -0.89723,0.01 -0.93301,-0.11999 z m -7.66194,2.59946 0.35174,0.59419 0.81078,-0.41256 0.98373,-0.68049 -1.13673,0.051 -1.00952,0.44791 m -58.66109,-39.14899 -2.05394,1.16865 m -8.71634,7.83375 -0.70348,0.63034 -0.1023,0.45858 0.75422,-0.73554 0.0515,-0.35338 m -8.76289,13.24471 0.37752,0.1356 0.5247,-0.69527 -0.90222,0.55967 z m -0.27524,1.46615 -0.0358,0.71007 0.57626,-0.73554 -0.5405,0.0255 z m 0.23448,2.37757 0.0607,0.57446 0.56628,-0.0559 m -0.29021,6.30268 0.95297,0.6098 0.3717,0.23669 0.63198,-0.30243 -0.14801,-0.5646 -1.80864,0.0205 z m 1.29473,1.28453 0.37753,0.66979 0.47899,0.50872 0.76417,-0.37805 0.0457,-0.97716 -0.84652,0.41256 -0.81991,-0.23586 z m 28.33102,-15.0281 -0.95796,0.25148 0.10229,0.91717 -1.0802,1.19413 0.59623,0.78074 0.36173,-1.06263 0.78997,-0.86128 0.18794,-1.21961 z m -10.26053,7.59212 -0.71846,0.91142 -0.27525,0.82594 0.45319,0.5646 0.68271,-0.27203 0.23449,-0.72568 -0.19376,-0.65007 -0.18292,-0.65418 z m -6.43872,18.14122 -1.07103,1.66257 0.87145,0.38791 0.97875,-0.12081 0.74923,0.69527 0.76419,-0.81608 0.0615,-0.71583 0.98872,0.65994 0.49977,-0.87196 -1.15752,-0.32299 -1.09099,-0.26134 -1.5941,-0.29668 z m 151.10816,-8.30712 -0.52473,-1.1892 m -15.91923,-0.88594 1.01366,0.7002 0.28605,-0.51858 -1.29971,-0.18162 z m 115.37466,9.01719 -0.45818,-0.70103 -0.27107,-0.37721 -0.19792,-0.22684 0.0906,0.23177 0.25945,0.51364 -0.33594,-0.36736 -0.43824,-0.50872 -0.27939,-0.20628 -0.0923,0.0551 -0.31016,-0.18656 m -18.78483,-24.83097 0.41245,0.45284 -1.08517,-1.14811 -0.92717,-0.95251 -1.18247,-1.18837 -0.1738,-0.20217 -0.18378,-0.20136 -0.87728,-0.87607 m -62.01474,-39.58293 -0.39167,-0.2671 -0.0973,-0.12574 -1.19244,-0.29175 -0.23035,0.005 -1.29474,-0.47831 -1.08516,-0.35832 -1.75376,-0.64432 -1.41779,-0.58433 -1.13506,-0.37311 -1.03611,-0.44379 -1.55417,-0.52351 -1.31552,-0.35832 0.97958,0.33284 0.98872,0.29751 0.87728,0.33777 1.06022,0.3575 0.86564,0.34764 1.3413,0.53419 1.66643,0.62459 0.84653,0.37312 1.47268,0.49392 1.23235,0.43311 1.17333,0.31148 m -149.54152,7.26175 -0.38833,0.17422 -0.45903,0.36244 -1.14671,0.63445 -0.67772,0.48899 -0.52471,0.40846 0.88645,-0.56461 0.35173,-0.11094 0.67772,-0.33202 0.13804,0.13067 0.6827,-0.53913 0.99454,-0.53912 1.27976,-0.65501 1.48349,-0.69034 0.92802,-0.40845 1.17748,-0.45858 1.17747,-0.48818 0.41329,-0.31805 -1.11679,0.38791 -0.41245,0.0657 -0.27524,0.0304 0.28522,-0.22189 -0.57627,0.20135 -4.89866,2.44167 z m 3.71953,-2.07268 m 1.91174,-1.05277 m 1.03445,-0.40352 m -8.70634,5.0732 -0.20875,0.23175 -0.22449,0.25149 m -1.13673,0.74622 -0.474,0.47338 -0.6012,0.5794 -0.41746,0.52926 0.41746,-0.43311 0.78996,-0.46845 0.32099,-0.39283 -0.0358,-0.28765 z m -2.28845,2.23622 -0.3925,0.32298 -0.2345,0.52351 0.49977,-0.47337 0.12723,-0.37312 z m -1.54919,1.98556 -0.0457,0.32216 m 1.40118,2.16636 -0.50476,0.0904 -0.47897,0.655 0.24947,0.17095 0.47897,-0.0805 -0.10645,-0.33778 0.36174,-0.49803 z m 33.30701,-16.00033 -0.8565,0.16683 -0.17795,0.4479 1.12176,-0.35257 -0.0873,-0.26216 z m -24.92663,22.53393 0.0457,1.00264 0.72428,-0.21203 0.0915,-0.53913 -0.86149,-0.25148 z m 15.85772,-19.49067 -1.00451,0.0156 -0.50475,-0.15615 -0.74424,-0.0197 -1.00951,0.26709 -0.75421,0.0699 -0.61203,-0.0501 -0.86148,0.0953 -0.72927,0.0403 -0.47399,-0.0255 -0.18876,-0.10601 -0.64197,0.18162 -0.9987,0.23176 -0.30601,-0.0805 -0.81575,0.12081 -0.14801,-0.13643 -1.34046,0.39777 0.24946,0.10108 -0.21952,0.24163 -0.85069,0.41256 -1.18746,0.48899 0.71349,-0.13643 0.82074,-0.35749 0.60619,-0.15122 0.91721,-0.3575 0.76003,-0.21696 0.58126,-0.0156 0.19874,0.15615 0.33595,0.0353 -0.16797,0.2671 -0.81077,0.4479 -1.31052,0.5646 0.89725,-0.20628 1.15752,-0.28682 1.15751,-0.26709 1.02947,-0.17588 1.03529,-0.16108 1.15169,-0.21697 0.6378,0.0855 0.78,0.0255 1.03528,-0.10602 0.90723,-0.0156 0.88228,-0.15615 0.49478,-0.3427 -1.02448,0.14628 -0.0158,-0.22682 0.37169,-0.4216 z m 9.3134,31.72863 -0.82075,-0.84649 -0.88228,0.15122 0.16797,0.78568 m 0,-8.3e-4 -0.50975,0.59912 0.37753,1.16372 1.23901,-0.65993 0.42825,-1.19413 -1.53504,0.0912 z m 27.08787,-20.30182 -1.1825,0.10602 -1.53919,0.66486 0.62202,0.33778 1.66224,-0.0353 0.71848,-0.55392 -0.28106,-0.5194 z m 1.61151,0.69527 -0.6935,-0.31723 -0.33094,0.32709 0.44902,0.2819 0.57542,-0.29176 m -1.57078,3.72292 -1.47268,-0.23669 -1.89095,0.46352 -0.73925,0.51365 0.63696,0.59501 1.34047,-0.54899 1.30968,-0.64514 0.81577,-0.14136 z m 84.65874,2.74576 -1.22487,-0.76595 -1.01366,-0.0805 -0.0665,0.87607 1.2282,0.30737 1.07684,-0.33695 m -31.19654,4.51845 -0.63864,-0.49392 -1.23319,-0.0707 -0.64693,-0.69034 -0.62202,-0.0403 -0.95296,0.5646 -0.37172,-0.46844 -0.88642,-0.10109 -0.59621,0.71006 1.14669,0.0608 0.7085,-0.20135 1.26895,0.47831 0.95296,-0.31231 0.62699,0.549 1.244,0.0156 m -1.03444,1.19906 -0.28105,-0.74541 -1.14174,-0.38297 -0.17297,0.43804 -1.13673,0.0961 -0.84652,0.57447 1.38705,0.0953 0.91717,-0.43311 0.53553,0.43804 0.73926,-0.0805 m 1.69222,-0.24655 -0.68856,-0.49886 -0.19289,0.50872 0.88145,-0.01 m 1.77369,2.91176 0.0457,-0.46844 -0.36672,-0.41832 0.66273,-0.19149 -0.10226,-0.55392 -0.66772,-0.43804 -0.71264,0.24655 -1.03944,-0.10108 -0.0308,0.3427 1.26812,0.49393 -0.52469,0.166 -0.12808,0.41833 1.59575,0.50378 m 52.62982,45.95545 0.49061,-0.34271 -0.6428,-1.21467 -0.32016,1.00264 0.47235,0.55474 m 8.56417,-2.68001 -1.10596,-0.68459 0.36673,0.6246 m 1.95245,3.60128 0.87231,-0.12574 m 0.85069,7.36529 -0.52472,-1.69708 -1.10098,-1.19414 0.3218,1.50643 0.84652,0.63939 0.45738,0.7454 m 4.55773,-34.55493 0.54551,-0.17587 -0.6428,-0.76102 -0.64613,-0.75527 -0.13803,0.85144 0.88145,0.84072 m -1.58078,-1.07824 0.41245,0.0452 -0.42242,-0.76019 -0.56213,0.34763 0.5721,0.36737 m 49.66951,28.68127 0.50059,-0.34272 0.8199,0.8161 0.42242,0.10519 -0.12639,-0.72568 0.5405,0.0904 -0.72928,-1.12839 0.47398,-0.19148 -0.99868,-0.48325 -0.74507,-0.3879 0,-0.73062 -0.84152,-0.19148 -0.31516,0.47337 -0.17878,0.59911 0.47399,1.13332 0.7035,0.96403 z m 4.03718,-0.11096 -0.19957,-0.89661 -0.0457,-0.74541 0.17878,-0.30243 -0.36257,-1.2492 -0.39831,-1.25412 -0.53885,-0.57939 0.55048,1.15385 -0.44987,-0.39283 0.32681,1.07825 -0.0241,0.55474 0.37669,1.03798 -0.27608,-0.13149 0.0873,0.92209 0.77498,0.80457 z m -4.75066,-15.17931 0.43824,0.18163 -0.30684,-0.88183 -0.61036,-1.03223 -0.51972,-0.60487 -0.34259,-0.70514 -0.29521,-0.0756 -1.20325,-1.55655 0.77001,1.20892 0.5721,0.98209 0.47897,0.8317 0.49393,0.6698 0.52472,0.98209 z m 0.96377,6.24677 0.48396,0.29668 -0.55047,-0.87607 -0.77501,-0.84649 0.84152,1.42588 m -4.70576,-1.80803 -0.49393,-0.36243 0.2744,0.53337 m 1.40697,1.05277 0.48397,0.36818 m -37.27686,86.93797 1.09597,-0.17589 m 4.7773,-1.43655 1.0702,-0.87608 m 26.15484,11.78266 0.78415,0.4134 0.14802,-0.84073 -0.29521,-1.28947 -0.21954,1.04784 -0.41742,0.66896 z m 1.91592,-0.89087 0.50474,0.40271 0.37669,-0.77581 -0.37169,-0.54982 -0.5455,0.28271 0.0358,0.64021 z m 2.06474,-2.82135 0.34591,-1.13332 -0.76836,-1.42506 0.31516,-0.78157 -0.22867,-0.75032 -0.20957,0.64431 0.12308,0.88758 0.0956,1.94365 0.32683,0.61473 M 86.2887,752.51959 l 0.208711,-0.0509 m 0.132225,0.46926 -0.102281,0.68459 0.06652,0.48899 0.402463,-0.51858 -0.0765,-0.56953 -0.290212,-0.0855 m -0.0607,4.11083 -0.264434,0.93196 0.162984,0.91717 0.372544,-1.54094 -0.271094,-0.30819 m -0.117249,3.13859 0.172963,0.86129 m -0.152166,0.6402 -0.09729,0.8013 -0.218698,0.53912 0.157986,0.36243 0.224528,0.20629 0.132209,-1.13824 -0.162976,-0.23668 -0.03576,-0.53422 m 303.006297,-74.27346 -0.30186,-0.95744 -0.36673,-1.09797 -0.33096,-0.95251 -0.45321,-0.20628 -0.47399,-0.93196 -0.2744,0.46926 -0.0457,0.0543 0.37169,1.07331 0.55548,1.32974 0.68188,0.89662 0.92885,1.29439 -0.29102,-0.97141 z m -2.25434,27.09349 -0.23865,-1.1136 -0.65277,-0.98702 1.0702,0.88678 0.71929,0.45364 0.68187,0.8917 1.00537,1.16372 -1.00036,0.0608 -0.71764,-0.4479 -0.86731,-0.90813 m 3.17154,3.70319 0.6985,0.62459 0.90639,0.34272 1.01033,0.93196 0.97293,1.08812 0.7908,-0.0805 -0.58623,-1.19906 0.10061,-0.71582 -0.77999,-1.04783 -0.82987,-0.90156 -0.85734,-0.76596 -0.86066,-0.60979 -0.96293,-0.0657 0.55548,1.43082 0.0956,0.71582 -0.25365,0.25229 m 6.85534,-1.60752 0.84653,0.16108 0.0358,-0.57447 0.67688,-0.58925 0.19956,-0.71994 0.63696,0.005 0.15717,-1.04784 -0.63199,-0.86623 -0.62699,-0.2975 -0.96793,-1.15385 -0.82656,-1.31987 0.34259,1.46122 0.14302,1.44562 -0.0258,1.0125 -0.36256,0.42817 -0.0408,0.87198 0.4441,1.18344 m -194.35391,194.79906 -0.23948,1.05278 1.00449,0.7561 -0.99952,0.33696 1.00449,0.55393 1.0295,-0.50871 -0.7642,-1.07249 -1.03528,-1.11857 z m 41.29409,-40.73595 0.98869,0.0403 0.97873,0.9821 1.2648,0.25642 0.99955,-0.44954 1.01947,0.27779 0.99952,0.0164 -0.50394,-0.95825 -1.22901,-0.47337 -1.49848,-0.28765 -1.49846,-0.27119 -1.26892,0.42817 -0.25195,0.43881 z m -18.74821,-11.91006 1.91175,0.22189 0.55548,-0.91634 1.68221,0.17669 1.02949,-0.61966 0.9995,-0.63117 1.43776,0.39777 1.93172,0.39366 -1.47851,0.36736 0.928,0.8013 1.44774,0.34846 2.19199,0.15532 0.93798,0.7865 1.22323,0.30162 1.4527,0.56953 1.47267,-0.15698 0.48894,0.47996 0.20873,1.21384 1.45273,1.00347 2.22274,0.0707 0.48895,0.9821 -1.01948,0.67883 -0.7542,0.68542 1.99321,0.0608 1.49348,-0.22601 1.48847,0.0238 1.48848,0.26791 1.48849,0.005 0.98371,-0.48489 1.48847,-0.23585 -0.24448,-0.48325 -0.73923,0.01 -0.98458,-0.93771 -1.48267,-0.25642 -1.0095,0.24737 0.27523,-1.19413 -1.244,-0.24245 -1.47268,-0.28108 -1.4627,-0.97715 -1.22904,-0.52023 -1.19244,-0.75938 -1.44772,-0.77665 -1.45273,-0.5235 -1.46271,-0.0756 -0.95793,-1.03387 -1.17749,-0.53255 -1.20328,-0.57447 -1.44771,-0.10108 -1.42697,-0.60486 -1.44773,-0.11999 -1.46768,0.36244 -1.4627,0.0962 -1.45771,0.11587 -1.49349,0.56378 -0.99951,0.61473 -0.0665,0.94676 -1.47846,0.31642 z m 30.26855,11.66349 2.02399,0.90237 0.47315,-0.48487 1.50844,-0.0288 1.26479,0.22189 1.25979,-0.29176 1.50843,0.20052 1.26398,1.34042 0.99371,-1.21384 -0.015,-0.70185 1.48765,-0.54899 0.0208,0.69528 1.49346,-0.30653 1.71716,-0.58433 1.4993,-0.10601 1.01946,0.87197 0.97377,-1.25495 -1.30471,-1.07249 -2.48716,-0.2778 1.19327,-0.78483 -1.72297,0.11587 -0.53969,-0.92786 -1.72797,-0.12492 -1.4943,-0.15121 -1.9924,0.0896 -0.97376,0.49473 -1.73795,-0.655 -1.75873,0.0452 -0.97376,0.73061 1.48849,-0.0304 0.7592,0.9377 0.0158,0.9328 1.27978,1.14316 -1.25398,0.73554 -1.5043,0.0353 -1.26478,-0.44792 -1.50509,-0.21038 -0.98787,0.71172 z m 22.01535,-0.20214 1.26398,0.10107 1.23903,-0.35339 1.2232,-0.12984 0.70349,-0.78156 -1.01868,-0.58926 -1.72297,0.18655 -1.75373,0.17178 0.0657,1.39465 z m -32.83219,-19.64766 0.20373,1.0125 -0.73926,0.7043 1.41198,1.25496 0.69349,1.48669 0.50975,-0.94839 -0.7035,-0.99196 0.025,-0.99195 -0.68769,-1.49575 -0.71345,-0.0304 z m 30.814,-77.16469 1.46274,0.58925 0.62198,0.70021 1.25399,0.32298 1.40199,0.0707 1.1725,-0.19149 -0.85066,-0.93771 -1.08685,-0.33778 -1.249,-0.34764 -1.38039,-0.051 -1.3463,0.18245 z m 1.73214,9.73794 0.8149,0.67965 1.37706,0.59501 1.90675,0.50872 -0.1638,-1.02318 0.93881,-0.9369 -1.55584,0.49393 -1.23735,0.18656 -1.3363,-0.31723 -0.32013,-1.03305 -0.4241,0.84649 m -36.00708,-46.88166 1.25898,-0.11094 1.47268,-1.12839 0.0308,-0.23668 -0.95296,-0.0855 -1.14668,0.39776 -0.66277,1.16372 z m 5.31113,-0.0304 -0.28022,1.72256 0.57127,0.7865 0.72428,-1.22454 0.20372,-1.21467 -1.21905,-0.0699 z m 40.32118,41.37043 0.59623,1.22454 1.42779,-0.83664 1.7787,-0.0912 1.52508,-0.34272 1.51841,-0.35749 1.397,-0.0805 0.2553,1.00181 -0.82656,1.0084 1.27476,-0.0197 0.61702,-1.77353 0.75339,-0.48899 1.0752,0.005 -0.0865,1.64778 0.8008,-1.02813 0.34094,1.23933 1.19411,-0.33284 -0.11227,-1.59601 -0.10226,-1.59682 -0.91304,0.54899 0.0566,-1.64285 -0.57626,0.42324 -0.31183,1.45138 -0.64113,-0.37806 0.0549,-1.08811 1.02947,-1.91489 -1.39035,0.65008 -0.77001,-0.86703 0.6012,-1.52614 -1.10596,-0.24656 -1.29473,0.33777 -1.20325,0.59912 -1.41614,-0.75033 0.61037,-0.95251 -1.244,-0.21121 -1.19661,1.33959 0.2553,-1.66256 0.37669,-1.14812 0.39332,-1.70284 0.0549,-1.62231 -0.92717,0.22683 -1.05607,1.05278 -0.37169,1.13824 -0.15716,1.38067 -0.44321,1.69792 -0.0715,1.87378 -0.6428,1.73244 -0.37669,1.42095 0.71431,0.1052 -0.7908,1.2196 -0.67371,0.93279 z m -49.83332,-46.39349 1.84522,0.26216 -0.153,1.48095 1.33546,-0.0707 1.11676,-1.12838 0.95796,-0.88183 1.02947,0.10602 1.06022,0.84074 1.05525,1.06839 1.40199,-1.12346 -1.30968,-0.83663 -0.55051,-1.28946 -0.89226,-1.05771 -1.41195,-1.14399 -1.11595,-1.33961 -0.17297,-1.50148 -1.48846,1.02318 -0.55547,1.16865 -0.55051,1.65271 0.005,1.76858 -1.60657,1.00185 m 14.26862,-10.4891 0.45902,1.45547 1.42695,-0.20629 0.82074,-0.72075 0.20373,-1.21386 -0.59124,-0.9525 -1.37124,-0.0156 -0.94796,1.65354 m -12.00514,-12.92173 0.65277,1.3248 0.39751,1.50644 0.67272,1.28453 1.45273,1.18426 1.50927,0.18654 2.0747,0.66981 1.10597,-0.13642 1.51425,1.30014 0.94882,-0.43311 1.09098,-1.37 0.56629,1.20975 1.79864,1.4604 -0.41743,1.88447 1.34547,-0.93772 0.87147,1.43081 1.48346,0.9221 0.44823,1.43081 0.469,1.20399 -0.78999,0.97717 -0.90226,1.23932 -1.04024,0.97716 1.19743,1.44642 -1.29889,1.01251 -1.75873,-0.005 -1.96248,-0.54406 -0.26443,0.96154 -0.78498,0.23669 -0.51475,1.1892 0.71847,1.26973 2.06475,0.0551 1.03945,-0.72568 1.47848,0.24162 1.38122,0.72568 1.28974,0.47338 1.18746,0.70022 0.0665,1.24919 1.25398,0.92704 1.11679,0.44872 1.48265,0.38791 0.55631,0.70514 1.42197,0.63939 1.40199,0.38297 1.50429,0.0904 -0.17378,-1.21879 -1.22822,-0.89663 -1.34046,-1.10373 -1.17747,-0.9114 -0.71347,-1.16866 1.713,0.60487 1.41695,0.85142 1.67223,0.81115 1.77373,-0.21697 0.0108,-1.98556 -1.24901,-1.09797 -0.35672,-1.45136 -1.05027,-0.85636 -1.61155,-1.07332 -0.0491,-0.0764 -0.91971,-1.3092 0.0615,-1.97487 2.32917,1.22454 0.93299,1.63218 1.70803,0.76101 0.14302,-1.51136 1.39701,-0.71006 0.0507,-1.22947 0.42326,-1.82365 -1.12592,-0.79061 -1.40617,-0.76102 -1.47849,-0.79061 -1.29473,-1.03306 -1.84521,0.20629 -1.70802,-1.0577 -0.17876,-1.42589 1.42195,-0.61966 -1.45271,-1.03797 0.29518,-1.22948 -1.06438,-1.32973 -1.58578,-0.82102 -1.67224,-1.57217 -1.21323,-0.655 -1.57497,-0.18656 -0.0249,-1.39547 -0.33181,-0.91224 -1.35044,0.21696 -1.00949,-0.56953 -0.9272,-0.30244 -1.16168,0.86703 -1.11177,-0.0608 -1.05025,0.76596 0.48478,-1.36014 -0.474,-1.31494 0.44905,-1.21467 -0.35674,-0.71583 -1.12594,0.12081 -1.397,0.76596 -1.27476,1.01744 -0.35175,1.3552 -0.32099,1.14399 0.10727,1.1736 -0.78499,-1.03798 0.16881,-1.16372 0.16796,-1.13333 0.63199,-1.08811 0.67272,-0.69526 1.45774,-0.57446 -1.21823,-0.22683 -1.37125,-0.1915 -1.02946,0.53913 -1.24401,0.94677 -0.76504,1.05276 -0.70847,1.06264 -0.45897,1.5804 z m -2.56863,-9.89985 0.76917,0.72076 1.08601,0.7002 0.51972,-1.38069 -0.21372,-1.0429 -0.86647,-0.2219 -1.29471,1.22453 m 2.56863,-5.06744 -0.45902,0.8917 0.35675,1.27958 1.38119,0.11096 0.54051,0.81609 -0.11724,1.11852 -0.63196,1.03798 -0.316,1.33548 1.42695,0.9073 1.45771,0.42325 1.35127,0.34271 1.4627,0.19148 1.06022,-0.78649 1.14172,0.79636 1.52424,-0.34763 0.59623,-1.07825 0.10144,-1.05278 -1.29474,-0.76594 -1.16168,-0.10519 -1.29973,-0.41339 -1.61568,0.43804 -1.44773,-0.55885 -0.85069,-0.92211 0.51472,-0.42817 -0.62199,-0.6698 -0.11724,-0.79554 -1.22322,-0.26216 -0.64196,-0.90731 -1.11677,-0.59584 z m 7.54387,-10.32308 -0.18376,1.26973 0.60621,0.96731 1.38203,0.20217 1.07519,-0.21203 1.42198,0.12574 1.52921,-0.22684 -1.02362,0.69035 -1.56003,0.2975 -0.71345,0.49392 -1.03944,-0.56461 -0.78501,1.3248 0.72844,0.53915 -0.24947,1.14892 0.14801,1.01251 -0.92303,0.20135 -1.35127,1.34535 1.13176,0.83088 -1.63649,0 -0.28523,1.05852 0.56545,0.54899 -0.88229,0.18656 -1.1417,0.61473 -0.316,1.06756 1.20241,0.44791 1.85102,0.47913 0.94799,-0.34763 0.94298,0.3427 0.87147,-0.38298 0.316,0.91142 1.56497,-0.57446 0.98874,-1.05278 -0.98374,-1.15879 1.14671,-0.82595 -0.16797,-0.90155 1.4419,-0.17669 0.54552,-1.31 0,-1.30016 0.57543,-1.29438 1.402,-0.6098 0.71348,-1.26973 0.50474,-1.00758 0.90225,-1.0273 0.91804,-1.31 -0.1131,-0.6246 0.59707,-0.79636 0.3875,-0.70514 -0.16299,-0.53338 -0.79996,-0.20134 -0.74507,-0.52434 -1.1309,-0.17095 -1.04528,-0.31722 -1.05025,0.0509 -0.76004,0.26135 -0.89142,-0.18163 -1.54418,0.25231 -0.84653,0.7758 -1.11679,0.50873 -0.82075,0.39777 -0.13221,0.51364 -1.0145,-0.16108 -0.99203,0.90154 z m -10.51582,3.08846 -0.11224,0.54407 0.65774,0.76593 -0.90722,0.51859 0.10229,0.72075 0.95293,0.73061 0.77504,0.27203 -0.0615,1.17933 0.92804,-0.18655 1.0702,0.17587 0.8565,0.15121 0.58125,-0.68048 0.0249,-0.68048 -0.84072,-1.20892 -0.6062,0.99278 -0.73424,0.90155 -0.53552,-0.30737 0.21372,-0.92211 0.5247,-0.96236 -0.34178,-1.02319 -0.83069,-0.29751 -0.38253,-0.66486 -0.71348,-0.28682 -0.62117,0.26793 z m -3.37943,6.40786 -0.13805,1.17933 -0.34178,0.88184 0.0915,1.25904 1.35127,-0.13642 -0.0915,1.61737 1.67227,0.53419 0.97873,-1.18345 0.38251,-1.09385 0.45903,-0.95168 -0.65775,-1.03305 -1.11096,-0.45366 -0.82574,0.52925 -0.64193,1.00758 -0.14303,-1.1481 -0.27026,-0.87197 -0.71432,-0.13642 z m -11.58106,-5.60657 -0.32595,1.17934 0.71845,0.3575 0.51475,0.70512 1.32549,-0.28763 1.01947,-0.46845 0.34677,0.9221 1.5949,-0.43311 0.51475,-0.89662 1.08101,-0.18163 -0.143,-0.92209 -1.05028,0.28188 -0.77502,-0.61474 -0.97374,-0.0403 -1.17746,0.11588 -1.39203,0.34764 -1.27811,-0.0649 z m 1.27395,4.54394 0.60621,0.80128 0.34677,0.75116 1.17746,-0.25642 0,1.09799 -1.18827,-0.01 -0.1023,0.68048 0.68356,0.64515 0.93301,0.13066 1.16168,-0.27695 1.14255,-0.0756 1.34046,0.7758 0.9995,0.18657 0.81577,-1.00757 0.85066,-0.86129 -0.63696,-0.73061 -0.48896,-1.17357 0.44823,-1.2492 -0.88145,0.26216 -1.04528,0.52351 0.30103,0.62461 -0.63199,0.53911 -0.153,0.97224 -1.16168,-0.80129 0.28023,-0.98209 0.0108,-0.80623 -0.44903,-1.06757 -0.70848,-0.57939 -1.06523,0.49886 -1.37622,0.71006 -1.20908,0.67802 z m -11.57107,3.21913 -0.0308,1.58203 -0.82074,1.6371 1.46851,0.16684 1.01452,0.40269 1.70799,-0.63938 1.68224,-1.24426 1.67722,-0.10109 1.47852,-0.0452 1.56997,-0.0805 -0.35175,-1.35028 0.20872,-1.3248 -1.14671,-0.76102 -0.50974,-1.26481 -1.43277,-0.14135 -1.38621,-0.4479 -0.94798,1.47602 -1.33547,0.93689 -1.51427,0.64513 -1.3313,0.55393 z m 137.38588,240.07897 0.73425,-0.89746 1.54003,-1.29357 0.7035,-0.91142 1.52841,-1.33549 0.5214,-0.85551 0.29521,-0.76102 0.48396,-0.86703 0.99371,-0.91634 0.2794,-0.79145 0.54051,-1.05277 0.69352,-1.13825 0.0549,-0.72568 0.24533,-0.83169 0.0407,-0.74131 0.42908,-0.95168 0.49393,-1.25986 1.38203,-1.21796 1.21325,-1.28372 1.27312,-1.58779 0.81077,-1.23441 1.00036,-1.3544 0.7035,-0.79635 1.33962,-1.29029 0.75504,-1.12837 1.15669,-1.37411 0.73925,-1.13002 0.76004,-1.31 0.74839,-1.32398 0.37671,-1.42507 -0.0599,-0.881 -0.27608,-0.91799 -0.27939,-0.95168 -0.49562,-0.83169 -1.38536,0.4594 -1.244,0.87608 -1.22322,0.49885 -0.77001,-0.23257 -1.21326,0.15287 -0.81076,-0.23257 -0.7908,-0.2712 -1.239,-0.0403 -1.24234,-0.0469 -1.26479,-0.0855 -1.29889,0.62952 -1.32052,0.9821 -1.31551,0.61472 -1.2989,0.0805 -1.33049,0.59584 -1.32052,0.0592 -1.3413,0.41421 -1.37041,1.10291 -1.58992,0.99196 0.47399,-1.23933 -0.65775,-0.59912 -0.41744,-0.72568 -1.38204,0.91634 -0.4532,-0.54899 -1.85186,0.37724 -1.38535,0.15698 -1.61154,-0.11587 -1.63068,0.59418 -0.96461,0.69034 -0.95795,1.95515 -0.7035,-0.10108 0.49561,-1.07826 0.46734,-1.62724 -1.64565,0.21696 -1.42778,0.66158 -1.43276,0.29668 -1.21324,0.93608 -0.01,1.26974 -0.47896,1.60177 -0.7035,-1.2229 -1.71384,1.06757 0.27607,-1.34042 0.46735,-1.24427 1.21325,-1.13331 0.94879,-1.03224 1.19828,-1.51218 0.20789,-1.77351 -1.67143,0.35833 -0.52472,-1.37576 -0.99372,-1.24919 -0.0474,-1.35439 -1.48765,-0.73225 -0.98455,-0.30162 -1.48765,-0.35338 -1.26063,-0.45777 -1.48765,-0.18163 -1.249,-0.0452 -0.98455,0.0452 -1.48765,0.005 -1.4893,0.16026 -1.48265,0.37393 -1.47768,0.57938 -1.49429,0.35667 -1.74294,0.18164 -0.71929,-0.58762 -0.0665,-0.0468 -1.04942,-0.38381 -1.54002,-0.48325 -1.22323,0.45449 0.19292,-1.07826 -0.56048,-0.90732 -1.54918,-0.53912 -1.5492,-0.52845 -1.79448,-0.49885 -2.25934,0.81033 0.44987,-1.5508 -0.57627,-1.17523 -1.78367,-0.12984 -1.29639,-0.19723 -0.9937,0.36244 -1.08518,-0.91143 -1.04608,-0.69527 2.50298,-0.82679 -1.76373,0.27286 -2.03812,0.30162 -1.77371,0.24736 -1.48265,1.28373 -1.52008,0.63117 -1.78784,-0.0206 -1.30553,-0.26134 -0.54551,-0.58927 -1.26395,0.13479 -1.28976,0.33858 -1.78949,0.16518 -1.81942,0.36735 -0.51475,-0.81032 -0.311,-1.06757 -1.27892,-0.54899 -1.55003,-0.0961 -1.29887,0.0855 -0.56628,-1.72258 -1.24901,0.73554 0.51474,1.06757 -1.25397,0.72077 -1.29554,0.5087 -1.29891,0.47831 0.0249,1.52204 1.07604,1.44149 0.02,1.47521 -1.83527,0.5153 -0.25943,-1.05769 -0.78999,-0.81198 0.76504,-1.31 0.76421,-0.881 -0.5397,-1.06758 -0.79577,-1.26974 1.54417,-0.50871 0.75423,-1.10949 -0.50392,-0.63363 -1.05524,-0.19232 -1.00953,0.69691 -0.76501,0.92128 -1.29474,0.4594 -1.0203,0.67883 -1.54419,0.68543 -2.08472,-0.18164 -0.77501,0.86703 -1.27393,-0.20217 -1.3047,0.43803 -0.78002,0.85224 -0.25529,1.28371 0,1.2796 -1.31468,0.19232 -0.78499,1.05278 -1.56997,1.03224 -0.01,1.87953 -1.31051,-1.28124 -1.02447,-0.88594 -1.02447,-0.86703 -1.30474,-0.88594 -1.31051,-0.28765 -1.26896,-0.46845 -1.55916,-0.0805 -0.78998,0.79636 -1.56498,0.33201 -1.56497,0.30162 -1.84521,0.28765 -1.01452,-0.70926 -1.30468,-0.11095 -0.46902,-1.1136 -1.28473,-0.7561 -1.27479,-0.97304 -0.73342,-1.15223 -0.73426,-1.13987 -0.45402,-1.14317 0.5305,-1.03881 0.0516,-1.31 0.57542,-1.47521 0.0557,-1.32562 0.0615,-1.54589 0.81078,-1.04372 0.0815,-2.02583 -0.4948,-0.51365 -1.2182,-0.56378 -0.0541,-0.0485 -1.1542,-1.2311 -1.25397,-0.36901 -0.97377,-0.36244 -1.51343,0.0559 -1.48349,-0.44297 -1.52425,0.2523 -1.50427,0 -1.70218,-0.69528 -1.79948,0.39778 -1.1675,-0.88266 -1.20825,-0.67391 1.5442,-0.64514 0.88228,-1.71272 0.10643,-1.37577 0.41826,-2.2617 0.64199,1.25329 0.84652,-1.26974 0.39249,-1.57628 0.34675,-1.36425 0.34677,-1.37083 0.61121,-1.34043 1.31552,-1.00838 0.0973,-1.16865 -0.68269,-0.58926 -1.43776,-0.22189 -1.18746,-0.41914 -1.4527,-0.01 -1.48349,0.24246 -1.45271,-0.0304 -1.44776,-0.0353 -0.99368,0.30162 -0.42827,1.5927 -0.35174,1.13825 -0.58627,0.8317 -0.11724,1.17359 -0.99868,0.28764 -1.02448,0.5038 0.16298,0.7413 -1.718,0.0945 0.0457,-0.44297 -1.66641,-0.61473 -1.73296,0.32298 -1.68723,-0.13149 -1.72797,0.0403 -0.938,-0.23094 -0.82573,-1.14316 -1.35127,-0.82679 -1.34545,-0.81032 -0.79496,-1.42096 -0.53552,-1.35603 -0.49393,-1.58122 -0.77502,-1.17521 -0.54551,-1.11689 -0.28522,-1.31 0.61202,-0.79636 -1.20825,-1.35027 -0.22951,-1.54261 0.65277,-1.02729 0.23949,-1.41602 0.24447,-1.42507 0.24948,-1.42507 0.70848,-1.30015 0.67772,-1.31494 0.88228,-1.01744 0.01,-1.27467 0.26527,-1.44644 -0.17296,-1.58285 0.51473,-1.38562 1.03944,-0.72076 1.47851,-0.59912 1.48349,-0.64515 1.34544,0.11096 0.98872,-0.51365 1.01449,-0.51365 -0.42326,-1.39959 0.93801,-0.25805 -0.21372,1.21056 1.42694,-0.41914 1.13174,0.0304 1.555,0.11587 1.22904,0.77087 1.27392,0.55556 1.21825,-0.50379 1.17246,1.25329 0.0665,1.02236 1.29473,0.53419 1.57995,0.0353 0.97374,-0.30653 0.85068,0.39778 0.57626,0.8654 0.51972,-0.42735 -1.21239,-1.21961 0.0665,-0.50871 0.72845,-0.35832 0.31099,-0.70925 -1.11677,-0.20217 -1.14254,0.0912 -0.8665,-0.41258 0.0258,-0.051 0.83572,-1.12837 1.21822,0.99196 1.42198,-0.50871 1.11094,0.19066 1.29971,0.46352 0.75421,-0.63858 0.33096,1.09303 1.33547,0.20546 1.36625,-0.0707 1.36127,-0.0501 0.81077,0.87609 1.29473,0.69034 0.34175,1.29029 1.37622,-0.0707 1.1775,-0.62624 1.37122,-0.0855 1.06022,1.11359 1.01949,1.86394 0.66273,0.33201 0.33596,1.54259 -0.30018,1.20893 -0.0715,1.01251 0.93801,-0.18164 -0.54052,1.44478 0.15802,1.03387 0.86147,1.06264 0.63196,1.30508 0.62202,1.53601 1.14173,1.0692 0.42327,1.26975 1.18244,-0.17669 0.73426,-0.42406 0.77501,-1.42999 0.32599,-1.72914 0.0765,-1.72258 -0.62698,-1.77352 -0.61203,-1.80885 0.0457,-0.98702 -0.8615,-1.56642 -0.36254,-1.536 -0.59623,-1.55737 -0.15799,-1.53109 -0.12224,-1.53109 0.76419,-1.46698 0.75424,-1.46533 1.40697,-1.18919 1.37122,-0.67391 1.37125,-0.93279 0.91804,-0.96647 0.6985,-1.00839 1.34046,-0.71088 1.11096,-0.20052 1.12674,-0.97716 1.096,-1.0125 1.53919,-0.21203 0.66275,-0.76101 -1.29474,-0.0238 1.3097,-0.99361 0.85067,0.0115 0.44904,-0.76761 0.005,-1.04618 -1.07519,-0.0164 -1.28474,-0.0238 1.08601,-0.4734 0.84653,-0.26791 0.63696,0.28766 0.6378,1.02234 -0.6378,-1.02234 -0.18878,-1.30507 -0.42323,-1.0273 -1.05028,-1.06757 0.0158,-1.02401 0.24448,-1.29852 -1.45274,-1.05769 1.2382,0.27614 -0.17794,-1.03224 -0.17381,-1.55737 0.41329,-1.02235 1.03444,-0.51365 -0.43323,1.02235 -0.0108,1.05772 -0.41246,1.26973 1.00869,0.54404 -0.20388,0.77757 0.82572,0.005 -0.40745,1.02236 -0.44324,1.54751 0.63199,-0.24245 0.43824,-1.54586 0.83068,-1.30015 0.62202,-0.77498 -1.03447,-1.80888 -0.3825,-1.56145 0.80576,0.53416 0.61121,1.02729 1.22901,-1.03221 0.78998,-1.56149 0.39164,-1.49574 0.005,-0.0707 -0.79995,-0.52022 0.77999,-1.03715 1.1883,-0.8013 1.18246,-0.56049 1.18747,-0.0304 1.18827,-0.0403 1.16753,-0.5794 0.36172,-1.04619 0.62199,0.75444 0.94879,-0.57939 0.0249,0.53008 1.55416,-0.61966 -0.0607,-1.03222 0.0466,0.77992 -1.1775,0.0707 -0.46896,-1.29029 -0.79497,-0.46186 0.53967,-0.8054 -0.22453,-0.77665 0.52556,-1.08811 0.6985,-1.07743 -0.0308,-0.53009 1.11093,-0.56952 1.27976,-0.61967 0.67275,-1.36918 0.60204,0.48817 1.26478,-0.63856 1.0752,-0.59584 1.04028,-0.88594 -0.10727,-1.05771 1.65647,-0.17176 1.42194,-0.66487 1.50846,-1.25494 -0.0607,1.08317 1.42776,-0.46845 -1.33133,1.24427 -0.84068,0.60486 -1.18831,1.20892 -0.41826,1.34041 0.52553,1.26481 1.21822,0.65008 1.00952,-1.16372 0.98872,-1.19906 0.60123,-1.11853 1.10595,-0.15123 1.36625,-0.98702 2.06891,-1.11359 1.71797,-0.82677 0.18878,-1.08236 1.15336,-0.7454 1.06522,-1.24919 -1.61156,-0.75116 -0.12306,-1.57135 -0.62034,-0.42818 -0.45485,1.41603 -0.84153,1.44642 0.22451,1.29358 -1.11592,-0.0699 -1.1725,0.69526 -1.48765,-0.0296 -1.76872,-0.79636 -1.32049,-0.36242 -0.93383,-1.4604 -0.40748,-1.77845 0.18876,-1.3511 -1.70219,0.74047 -1.56995,-1.4004 2.08967,-0.23176 0.97376,-0.655 1.09101,-0.93196 -0.14221,-1.02319 -0.78499,-0.68458 -1.43775,-0.35257 -1.50427,0.42325 -1.5043,0.44297 -1.29887,0.91224 -1.15255,0.60405 -1.32549,0.8917 -1.13174,1.1481 -0.79496,1.3396 -0.80576,1.11358 -0.83572,1.08318 -1.41698,0.60322 0.84653,-1.1029 0.64696,-1.07332 0.83071,-1.07824 0.622,-1.10949 0.78498,-1.33465 1.12177,-1.14811 1.26479,-1.39055 1.3754,-0.12081 0.18959,-1.33549 0.73342,-1.10865 1.44276,-0.69034 1.16168,-0.13067 1.33549,-0.16108 1.45771,-0.44378 1.13923,0.0929 0.0491,-0.007 1.16749,-0.17094 1.30886,-0.20135 1.08185,0.36243 1.42779,-0.52926 1.80943,-0.32708 0.75839,-1.19906 0.59789,-1.16372 0.55047,-1.19414 1.41614,-1.09797 1.82026,-0.65993 0.96793,-1.28453 0.71764,-0.97223 -1.15171,-1.86887 -0.0408,-1.33959 -1.61154,-1.21386 -1.33465,0.30737 -0.46483,-1.20399 -1.84021,0.11588 1.21322,-1.31 -1.06523,-0.5646 -1.67143,0.0962 -0.8149,-0.91141 -1.93753,0.12081 -0.57627,-1.21878 -1.58991,-0.5038 -0.9222,-0.87607 -0.30519,-1.50642 0.50311,-1.11277 -0.9879,-0.61473 -0.20955,-1.02237 -1.01947,-0.85636 -1.10098,-1.38068 -0.95795,-1.40041 -1.19328,-1.36506 -1.04028,-1.39055 -0.69267,-0.9221 -0.61701,1.08812 -0.5322,0.82343 0.67355,0.92704 -0.47897,1.34533 -1.11094,0.88677 -0.4083,1.05277 -1.55918,0.91141 -1.28972,-1.66257 -0.96877,-0.17093 -0.928,-1.21386 -0.0865,-0.99771 -0.006,-1.51629 -0.49975,-1.23933 0.15384,-1.2796 -1.16752,-0.16601 -1.15252,0.0608 -1.18744,-0.70102 0.32681,-1.00757 -1.16252,-0.70514 -1.03447,-0.98785 -1.1259,-0.72486 -1.70303,0.5235 -0.9879,0 -1.34046,-0.5235 -1.45855,-0.27696 -1.00368,0.71582 -0.0615,1.25905 0.83571,0.77581 -0.43323,1.21879 -0.56545,1.24426 0.74425,0.78073 0.18876,1.51629 -0.0457,1.26892 -0.86147,1.21879 -1.0802,0.23176 -0.20372,0.99277 0.9172,1.04291 0.94299,0.55391 0.48976,1.78338 0.2503,1.28946 0.38169,1.78832 -0.0557,2.05542 -0.9272,1.26891 -1.39701,1.21879 -1.41197,0.98785 -1.41697,0.70513 0.52472,1.29439 0.39247,1.31987 0.0665,1.80394 -0.0815,1.5467 0.70929,1.58696 -1.20825,1.5015 -1.69718,0.9673 0.0865,1.03306 -1.25399,-1.10866 -0.54549,-1.34535 -0.88145,-1.09385 -0.69352,-1.36507 -1.12594,-1.40534 0.45902,-1.51629 0.13222,-1.25988 -0.30432,-1.28864 -0.0225,-0.0468 0.7035,-2.26662 -1.407,-0.90155 -1.78451,-0.18657 -1.78451,-0.21121 -1.565,-1.50642 -1.36622,-0.69034 -1.07023,-0.69034 -0.74923,-1.43082 -1.35543,-1.25987 -1.56497,-0.81116 -1.42696,-1.31 -1.36126,0.25231 -1.08101,0.27203 0.25945,-0.98211 -0.21372,-1.37001 0.33097,-1.21466 -0.15801,-1.88859 -0.97873,-0.47912 -1.11096,-0.0197 -0.13805,-1.3248 0.45902,-1.46122 0.66772,-1.68805 0.74426,-1.10291 0.74923,-1.12838 1.17249,-1.27961 1.08103,-1.05277 1.08601,-0.25148 0.42326,-1.44562 1.41695,-0.2219 1.52425,-0.21121 0.26027,-1.47603 1.34046,-1.50641 2.01818,0.36242 1.33049,-1.28946 1.29473,-1.30015 0.30102,-1.44561 1.65646,-1.75298 -0.74423,-1.08317 1.59073,-0.0156 0.39251,0.78567 1.59492,0.65993 1.52924,-1.05278 1.69718,-1.07824 0.48897,-1.65272 -1.40203,-0.84156 0.18878,-1.43081 1.34546,-0.60981 0.20371,-1.7686 -1.5342,-0.50378 -0.0507,-0.9821 -1.37125,-0.60486 -1.34047,-0.16108 -0.27523,1.40534 -0.21954,1.65271 -0.31099,1.64284 -1.44774,0.8013 -0.23948,1.16372 -0.99952,0.3575 -0.71348,-1.82366 0.5297,-1.38068 0.28024,-1.18425 -0.67272,-1.57218 -1.59576,1.67818 -0.43824,-1.55162 -0.36669,-1.31 -0.93801,-0.93198 1.4993,-0.91717 -0.17298,-1.49656 -0.45402,-1.05769 -0.41328,-1.31987 -0.148,-1.49658 0.93799,-0.73554 -0.13222,-0.98785 0.98872,-0.25641 1.03944,0.22684 0.88725,-1.0125 0.91804,-0.9821 0.63199,-0.58432 -0.68769,-0.6698 -1.52422,-0.75528 -1.80946,0.0452 -0.78501,1.00757 -0.15299,1.14893 -0.30602,1.37493 -0.43322,1.11277 -0.51475,1.33055 -1.03944,0.46846 -0.96874,1.30507 -1.09101,1.33958 0.44903,1.87955 1.3197,1.55655 -1.12176,0.97717 -0.0408,1.48588 -1.51424,1.12345 -0.38753,-0.0403 -0.86648,1.2237 -0.78,-1.1892 0.5031,-1.4941 0.0116,-0.0625 1.84024,-0.61474 -0.27026,-1.81872 -0.97875,-1.78338 -1.25397,1.13907 -1.42695,0.55884 1.15752,1.64286 -1.10098,0.67473 -0.77501,1.54669 -1.4835,-0.19149 -1.67723,-1.09797 -0.94299,-1.2237 -1.17833,-1.46617 -0.27521,-1.86392 -1.45273,-0.13642 -1.56,-0.14629 -1.26895,0.49885 0.74923,1.16374 -1.0145,0.92209 -0.80496,-0.9369 -0.56045,-1.10784 -1.57578,-0.22188 -1.64149,-0.32709 -0.79995,-1.00266 -1.07104,-0.61965 0.87147,-0.68048 1.15252,0.21121 0.25446,-1.31493 -0.68269,-1.2796 -1.20825,-0.86704 -0.6528,-1.22371 -0.61199,-1.34042 -0.0615,-1.39546 -1.24398,-0.93198 -1.38621,0.70021 -0.49394,-0.59419 1.24401,-1.2796 -1.96246,0.68459 -0.22453,-0.83664 0.82574,-1.32972 0.311,-1.79325 -1.70219,0.85635 -0.99955,-0.22682 0.7642,-1.07825 -1.48346,-0.30737 -1.61573,-0.31229 -1.16749,0.0509 0.02,-0.92703 -0.75922,-0.52433 -1.26478,0.0855 -1.13176,0.69528 -0.0707,-1.37494 0.32597,-1.25412 0.12224,-1.25987 -0.58625,-1.11276 0.20873,-0.9221 0.26527,-1.08811 -0.46401,-0.82184 -0.63198,-0.64515 0.22952,-1.09304 -0.44323,-0.94676 0.2553,-1.40533 -0.34677,-0.96237 -0.30102,-0.84075 0.90224,-1.18426 -0.38168,-1.29933 0.67273,-0.64021 0.34176,-1.2648 -1.54419,-0.42325 -0.29104,-0.98785 -1.36126,-0.655 -0.35174,-0.78075 -1.27976,-0.46844 -1.40699,0.1463 -1.11595,-0.0814 -0.49477,-0.9221 -0.25529,-0.86129 -1.47268,0.24738 -1.03944,1.03798 -0.90224,1.30425 -1.44773,0.87197 -0.94797,1.18344 -1.14172,1.05853 -1.0145,-0.0304 -0.0715,-1.42095 1.21822,-0.46352 -0.0158,-0.74047 -0.72428,-0.73555 -0.68853,-0.75526 -1.16168,-0.55967 -0.49477,0.65993 -0.29522,0.92703 -0.93799,-0.0255 -0.95794,0.61474 -0.50476,1.49575 0.24949,1.11358 -0.41746,1.11277 0.76421,0.45365 0.50558,0.63364 0.0299,0.0616 -1.19244,0.20628 -1.14673,0.94183 -1.44274,0.31723 -0.33095,-1.14401 -1.2332,-0.2975 0.67272,-1.18344 -0.71845,-0.49393 -0.93301,0.17588 -1.40199,-0.17588 -1.8602,0.16109 -1.17746,1.23439 -1.38621,0.8917 -1.37123,1.20399 -1.11095,1.02236 0.0407,0.92703 1.17748,0.43311 -1.54418,1.25905 -0.92303,0.12575 -1.10596,0.91223 0.5247,0.4479 0.18877,1.61738 -1.23901,1.43082 0.93299,-0.16602 -0.0865,0.87607 0.33594,0.54899 -1.56997,0.72569 -1.60573,0.63939 -1.0145,-0.3123 -1.23319,-0.21203 -1.02448,-0.65501 -1.39701,-0.0148 -0.32596,-1.03305 -0.74424,-0.7906 -1.13672,-0.18163 -0.69768,-0.93689 -1.10681,-0.73555 -0.6478,0.55225 0.90722,0.94184 0.90224,0.63445 0.50393,0.82102 0.71347,0.3879 0.53053,0.92704 0.79497,0.7906 0.59122,0.7865 1.16751,-0.20135 0.81575,0.54899 1.10097,0.71582 1.23321,-0.0255 1.33547,0.46352 1.1725,0.54898 1.02946,0.0699 1.27976,-0.0756 0.18378,-1.08318 0.98872,-0.22683 0.90722,0.4479 1.29473,0.005 1.42693,-0.48899 1.12179,0.0962 1.25397,0.53337 0.29105,0.77088 -1.08102,0 -0.79996,-0.69033 -1.58493,0.80129 -1.51926,0.23669 -0.26526,0.81115 -1.06024,-0.0304 0.59124,0.97222 1.1725,0.29176 1.17748,0.17095 0.36255,0.88183 1.53921,-0.29176 1.46269,-1.11852 -0.0715,1.13331 0.39249,0.85142 -0.32098,1.1136 -0.33595,1.60174 -0.0865,1.47604 0.57627,1.03304 0.60619,1.02317 -0.0457,1.40535 0.34676,0.9977 1.0145,0.1011 -1.11678,1.14399 -0.0308,1.33549 -0.46403,1.60175 -0.28604,1.35522 -0.005,1.2796 -0.91222,1.38069 -0.42325,1.57627 -0.87147,1.41027 -0.95795,1.68806 1.50844,-1.42097 1.14172,-1.51628 1.15752,-1.06265 0.21953,-1.37491 0.40745,0.50872 1.12593,-0.71008 -0.67023,1.16374 -0.0383,0.0509 -0.83071,0.61967 -0.943,1.31988 -0.96377,0.90238 1.00951,-0.0255 0.97872,-0.45366 -0.45901,1.04784 -0.36671,1.14892 -0.38751,-1.19906 -1.19742,0.19642 -0.98873,1.25001 0.63198,0.35257 -0.91804,0.89662 -0.5297,1.0125 -0.23449,0.91717 0.01,1.17852 -0.47897,1.37493 1.26479,-1.31 0.78997,-1.82365 0.53552,-1.37001 0.0915,0.89663 0.47898,0.51858 -0.79996,0.655 -0.59623,1.28946 -0.30102,1.19413 0.0557,1.18344 1.05523,0.31231 -1.41698,0.79554 -0.26526,0.84649 -1.14171,-0.0452 -0.60621,1.61738 0.11226,1.21467 -0.57128,2.02501 0.35176,1.41027 -0.71348,1.47603 -0.158,1.25987 -0.64778,0.8013 0.24947,1.65764 0.62699,1.21879 0.4798,1.44068 0.11227,1.48095 0.17295,1.47602 0.321,1.25988 1.24399,-0.0156 -0.89723,1.2796 0.13802,1.09798 -0.27523,1.43575 -0.50476,0.24162 -0.25945,1.44561 -1.2232,1.0273 0.17878,-0.52926 -0.89725,-0.0255 1.33048,-0.62459 -0.40248,-1.29522 -0.92218,-0.72567 -0.70932,-1.57629 -0.56046,0.54406 -0.21454,0.83088 -0.40248,1.35521 -0.5297,1.56724 -0.46402,0.93689 -0.47398,0.97223 0.81576,1.27467 -1.09099,-0.86129 -0.58624,0.8769 -0.56546,1.16865 -0.96378,0.88676 -0.84152,1.30015 -0.95298,1.20398 -1.21324,1.30014 -1.34544,1.22948 -0.69352,1.4004 -0.15301,1.17358 -0.53051,1.52121 -0.91805,1.20892 -1.17249,0.99278 -0.3875,0.655 0.13222,1.07824 -0.1023,1.18921 -0.51473,0.89662 -0.48896,1.1892 0.0557,1.33549 0.31099,1.19413 -0.61203,0.77581 0.72428,0.85636 0.35675,-0.66569 0.42824,0.65993 -0.49976,0.22272 -0.17297,1.44561 -0.35673,-1.20891 -0.464,1.22453 -0.0358,1.20399 0.58626,0.44297 -0.58126,1.12346 -0.49977,0.55391 0.42825,1.53601 0.0457,1.57218 0.23949,1.99541 -0.59371,1.29603 -0.0482,0.0542 1.17251,1.40452 0.87146,1.20399 0.72845,1.10454 0.62697,0.41256 -0.22451,1.01745 0.63199,0.41912 0.57626,1.53109 0,1.46535 -0.24032,1.58778 0.0915,1.78832 -0.12224,1.37082 0.14303,1.21796 -0.27026,0.69035 0.4083,1.09797 -0.44405,1.1588 0.43324,0.53418 -0.42825,1.69628 0.87148,1.09468 0.64194,1.7768 0.40747,1.33548 0.39747,1.31495 -0.39747,1.16373 -1.14671,0.16684 -1.17249,-0.94183 0.76918,1.53107 0.0615,1.12345 0.56631,0.87608 0.70348,1.20893 0.90723,0.50377 0.47397,1.32562 0.91222,1.29358 0.14802,1.68395 -0.41329,1.38068 -0.84651,0.62952 1.31967,1.48669 0.71348,1.41603 0.66773,1.6519 0.93301,1.49574 0.306,2.23294 1.74377,-0.70597 -0.48979,-1.536 -0.62697,-1.86804 -0.96295,-0.47997 -0.26526,-1.44972 0.49976,-0.25805 -0.50476,-1.32397 0.26526,-0.91634 -0.35672,-1.77352 0.0308,-1.58779 -0.70931,-1.97898 -0.3002,-1.77845 -0.6378,-1.41604 0.0815,-1.59271 -0.33097,-1.56643 -0.51473,-1.67244 -0.30601,-1.53603 -0.64695,-1.20396 -0.18875,-1.24427 0.60619,-1.02892 0.0815,-1.3692 0.27524,-1.26481 0.51473,-0.82183 0.94297,1.39137 0.8008,0.18162 0.43824,1.08647 0.72843,0.93773 -0.42326,1.17522 0.0457,1.69215 -0.14802,1.01744 0.31598,1.5574 0.0815,1.68721 0.65277,1.98063 0.67772,1.97406 1.26479,0.90237 -0.42825,1.39959 0.98373,1.83433 0.31101,1.20399 0.58124,0.28271 0.31599,1.22947 -0.66275,0.73062 -0.19375,0.69528 0.79995,1.16864 1.40699,1.43987 0.37253,1.98063 0.77502,1.40616 0.77002,1.36425 0.69849,1.84419 0.60122,1.26481 0.775,1.61162 0.62699,1.25987 0.0208,2.03568 0.69269,1.03223 -0.19376,0.91143 -1.03446,0.58926 0.29021,0.86704 -1.00951,0.3271 0.59623,1.7242 0.7667,1.74475 0.0233,0.0485 1.40699,1.28864 1.14671,1.4111 0.66774,1.47189 1.65644,1.34535 1.51426,0.77992 0.67272,0.23751 0.98374,1.29358 1.397,1.68229 1.29474,0.918 1.30471,0.88594 1.27976,1.11851 1.35127,0.68049 1.29972,1.09796 1.31053,1.09304 1.60573,0.69528 1.61071,0.92622 1.59076,0.88757 1.72797,-0.23257 1.50428,-0.30654 1.43194,0.36244 1.17747,0.54405 1.16252,0.72568 1.11593,0.95168 0.65778,0.84075 1.11676,1.40616 1.14672,1.15879 0.88644,1.11276 1.41197,0.97717 1.4419,0.72568 1.47851,0.29176 1.43773,0.94675 0.69353,0.8013 1.25398,0.23258 1.45273,0.92127 1.22901,0.20712 1.7737,0.29176 0.51972,-0.58926 0.95795,1.27466 -1.02447,-0.1619 0.95793,1.26481 0.95299,1.01744 1.2182,1.28372 1.20327,1.03881 1.24401,1.03223 -0.0457,1.08318 -0.29021,1.05278 0.44323,1.11359 1.03444,0.36244 0.47899,0.47337 1.0752,-0.71582 0.73926,0.93771 1.75872,1.06757 0.99372,0.94677 -0.28522,1.2344 1.5442,0.36244 0.76004,0.70431 0.78995,-0.32709 1.55003,0.34352 1.54419,0.55884 0.76417,0.88758 1.56003,0.11998 0.22451,1.45547 1.31552,-0.10602 1.57497,-0.51858 -1.29973,-0.90732 -0.23449,-0.86703 1.3155,-0.31313 1.0403,-0.56789 0.79996,-1.01744 1.02947,0.0542 1.29971,0.69528 0.77001,1.09303 1.03447,0.0419 -0.79499,0.79472 0.76921,1.47684 1.31054,1.08811 1.02944,1.06758 -0.25526,0.99361 0.23945,1.63216 -0.005,1.20399 0.28024,1.20398 -0.54051,1.16865 1.03945,0.81033 -1.05026,0.95168 -0.79495,1.32563 -1.83027,-0.0707 -1.08101,1.10783 0.28524,0.97304 -1.33052,0.12164 0.53554,0.9821 -1.57995,0.48325 -2.11547,0.61967 -0.22203,1.38562 -0.0333,0.0896 -1.32549,0.64514 0,1.09304 -1.32049,0.27778 0.54051,1.49081 0.005,1.06758 -0.5355,0.30324 1.07519,0.43312 1.29973,1.13825 0.27525,-1.03386 1.29473,0.0772 -0.50475,0.66486 -0.52472,1.01744 -1.03944,0.28764 -1.56497,0.57281 -1.55916,0.74622 0.01,0.85718 0.51475,1.04209 1.08601,1.07826 -1.05522,0.57447 1.07103,0.56789 1.57995,0.59996 1.04525,0.70431 1.04527,0.87197 0.55048,1.13331 1.57495,0.72076 1.05028,0.9821 0.5455,0.94676 0.54548,0.93279 0.51474,0.92128 1.57498,1.22453 0.5405,0.89089 1.03445,0.89251 0.53553,0.59418 1.02944,0.57939 0.53553,0.84731 1.02947,1.11689 -0.23949,0.80129 1.29558,0.8169 1.0145,0.5235 1.00949,0.51859 2.04396,0.64515 1.52422,0.10601 1.51344,0.61472 2.02401,0.44791 0.99869,0.10602 1.49927,0.43803 1.49846,0.30819 0.97377,0.56379 1.00949,0.17668 1.47268,0.51859 -0.0408,0.70186 0.18878,0.77992 0.44321,0.86704 -0.31099,0.67554 -0.0516,0.64349 0.21954,0.61472 -0.31598,0.63528 -0.28025,0.61967 -0.77999,0.63857 -0.0516,0.57939 -0.0466,0.56952 -0.28523,0.5679 0.17794,0.53008 -0.0408,0.44791 -0.74839,0.3838 0.42326,0.56379 -1.02947,0.71088 -0.0516,0.47831 -0.75421,0.49885 -0.27024,0.46351 -0.73925,0.4668 0.4332,0.26791 0.15303,0.54405 -0.92801,0.24078 -0.29021,0.40436 0.18875,0.42734 0.163,0.35832 -0.0358,0.23751 0.42326,0.20546 -0.97374,0.48489 0.18376,0.30653 -0.68853,0.226 -0.28521,0.30325 -0.6985,0.30161 -0.89226,0.29176 -0.47899,0.26629 -0.44321,0.24736 -0.64696,0.0962 -0.0308,0.22188 -1.05939,0.0189 -0.45402,0.24736 0.60202,0.15121 -0.02,0.14629 0.19792,0.14136 0.16299,0.15121 -1.05025,0.16189 -0.0249,0.15121 -0.20623,0.0353 -0.19708,0.0657 0.002,0.0625 0.1713,0.0222 0.3875,0.0559 0.95876,-0.005 0.42825,-0.0707 1.16667,0 -0.61617,0.0756 0.57129,0.01 -0.59708,0.0403 -0.0557,0.0855 -0.61118,0.0559 0.36256,0.0189 -0.80576,0.0419 0.36669,0 -0.96874,0.0288 1.50346,0.0773 2.07888,-0.0773 2.00072,-0.10273 1.71465,-0.0773 1.58495,-0.10273 1.50678,-0.12822 1.76705,-0.1282 1.40366,-0.10273 1.94915,-0.20546 1.06523,-0.10273 1.091,-0.12821 0.75339,-0.10273 0.12389,-0.11753 0.1896,-0.0304 -0.0557,-0.01 0.69267,-0.10107 1.65145,-0.23752 -1.46351,0.17178 1.27476,-0.1956 0.62202,-0.0468 1.1417,-0.15533 0.31019,-0.0707 -0.18378,-0.0304 -1.82526,0.27779 -1.05858,0.10108 0.20792,-0.11753 -0.21954,-0.0641 0.89306,-0.16189 1.08518,-0.0855 1.10597,-0.11998 1.93754,-0.27779 1.6764,-0.30162 0.34259,-0.11752 -0.28605,-0.01 0.81494,-0.24737 0.55049,-0.17012 -0.63698,0.01 0.37172,-0.18163 0.49394,-0.005 1.79448,-0.29668 1.83024,-0.34352 1.23901,-0.25642 1.63567,-0.33202 1.66143,-0.3838 1.27976,-0.31642 1.54419,-0.40764 0.63199,-0.27285 1.249,-0.42406 1.09101,-0.42734 0.10063,-0.21698 -0.97294,0.18655 -0.37169,-0.0961 0.89641,-0.42406 -0.63199,-0.0148 -1.88596,0.24246 -0.2553,-0.12164 0.59624,-0.30162 1.03444,0.005 1.64648,-0.36244 0.70351,-0.0353 1.3413,-0.23094 1.47267,-0.39778 1.59492,-0.35832 1.26812,-0.36244 1.37705,-0.48817 1.23901,-0.49473 0.41745,-0.28765 1.43776,-0.57447 1.36124,-0.655 0.71929,-0.4931 1.25398,-0.56051 1.45689,-0.64349 1.45854,-0.65005 1.15171,-0.68049 1.17747,-0.7002 0.72928,-0.57937 1.18247,-0.73966 1.35627,-0.81689 1.26979,-0.67391 0.73925,-0.38381 0.7534,-0.655 0.53137,-0.58926 0.1214,-0.4594 0.42243,-0.73062 0.31183,-0.55884 1.29889,-0.83169 1.3305,-0.87198 1.53005,-0.96319 1.32549,-0.8958 1.37538,-0.68543 1.67308,-0.98209 0.73426,-0.12656 1.37538,-1.05278 1.25398,-0.51364 -0.21954,-0.24574 1.73297,-0.8013 1.19412,-0.42817 1.244,-0.53419 1.28309,-0.65006 1.22986,-0.54898 0.28109,-0.55885 1.38535,-0.89746 1.38703,-0.9073 0.33746,-0.68297 M 229.24577,701.5617 l 0.0815,0.91223 -0.24448,1.06758 0.93801,0.32707 0.33594,1.3807 0.21954,1.57218 1.48349,-0.56954 1.47765,-0.0551 0.79998,-1.51629 0.24946,-1.57134 -0.98374,-0.84156 1.37124,-0.94676 0.0358,-1.44561 -1.11596,0.27695 -0.96373,-0.54406 -1.08021,0.14136 -0.58125,0.78567 0.13222,1.4563 -1.19328,-0.52927 -0.96214,0.0994 z m -14.83904,-3.22407 0.43821,1.11277 -0.93798,0.60487 0.19373,1.12343 1.14673,0.98787 1.20241,0.59418 0.58127,1.26975 -1.57581,-0.0197 -1.23818,-0.71994 -1.11094,-0.49885 -0.95296,1.60176 0.57126,1.22453 1.22903,0.71008 -0.63196,1.94938 1.42195,0.51859 1.72799,0.53912 1.90591,0.0805 1.54919,0.14054 1.54006,-0.39777 0.36172,1.2648 0.82572,1.21468 1.43775,0.13066 1.48849,-0.4027 -0.005,-1.1481 1.25898,0.19149 0.76504,-1.18426 -1.3463,-1.02237 -0.94298,-1.1892 -0.35175,-1.3248 1.00952,-1.41027 0.306,-1.55656 0.35174,-1.13331 1.38622,-0.89663 0.94796,-0.76102 -0.22451,-0.95251 -1.25398,-0.42817 -1.44775,0.93688 -1.27393,1.00757 -0.67275,-1.37 -1.21322,-0.11095 -0.39748,-0.95744 -1.64646,0.30737 0.78499,-1.50642 -0.81577,-0.46352 -1.19247,0.24655 -1.25397,-0.11095 -1.20325,0.11095 -0.58126,0.61967 -1.14172,0.20628 -1.01949,0.87118 z m -50.38796,27.98024 -1.20327,1.41603 -0.0358,1.12346 -0.81077,1.42095 -0.42825,1.42097 0.0158,1.91487 0.68853,-1.53683 -0.005,-1.13824 0.86147,-0.58432 0.72346,-1.51137 1.40699,-0.78073 -0.66775,-0.71994 -0.5455,-1.02485 z m -2.0847,13.47647 -0.27525,1.86886 0.35174,1.37001 0.36171,1.36013 -0.57543,0.52927 0.43325,1.07824 0.0865,1.09797 0.66276,0.55967 -0.45319,0.62954 0.56628,1.47108 0.49394,1.07825 0.99953,0.11587 0.0557,-1.62722 -0.28023,-1.86394 0,-1.69298 0.28523,-1.80393 -0.63781,-1.24427 -0.84069,-1.41109 -0.42825,-1.44561 -0.80577,-0.0699 z m 138.51263,-40.80664 -0.56213,-0.52926 0.18378,-1.12838 -1.30887,-0.90156 0.2844,-0.87689 0.92885,0.53912 1.14171,0.715 0.9779,-0.20628 0.61702,-0.8917 -1.14671,-1.03797 -1.01033,-0.82594 -1.48266,-0.34764 -1.46851,-0.0855 -1.3255,-0.18655 1.22323,-0.2523 1.31551,-0.2819 -0.67687,-0.79554 -1.35128,-0.8317 -0.87728,0.26217 -0.015,-0.80622 -0.0923,-0.6246 0.5405,-0.73061 -0.89141,-0.66981 -1.02447,0.2671 0.50974,-1.57217 -0.8623,-0.95744 -0.59123,0.60405 -1.02448,-1.26481 -1.26395,-0.88183 -1.51841,-0.62459 -0.90806,0.46351 -0.88228,-0.70102 -0.16216,-0.88677 1.21325,-0.50378 -0.75504,-0.65994 -1.54419,-0.57446 -1.18745,-0.24655 -1.09597,-1.0273 -1.16752,-0.55967 -0.4324,-0.84074 -0.90807,-0.7865 -0.87728,-0.99278 -0.81991,-1.11359 -0.50474,-0.95167 -0.95296,-1.5919 -1.34462,-0.0205 -1.04528,0.70514 0.41829,0.9525 -0.60621,0.20629 0.33095,0.7454 0.0965,0.87196 -0.33097,0.90731 -0.73426,-1.08318 -0.16296,-0.86621 -0.24449,-0.44873 -0.79496,-0.36736 -0.41329,0.56871 0.68853,0.46845 -0.31681,0.52926 -0.93219,-0.67473 -1.33131,1.0125 0.0715,-0.67472 0.83072,-0.53913 0.66856,-0.95744 -0.10227,-0.90729 -1.10595,-0.06 -0.88231,0.29176 -0.85648,-0.27696 -1.30387,-0.0304 -1.10679,0.68541 -1.33465,0.59912 -0.55547,0.98702 -1.0095,1.09797 -0.25945,1.13825 0.31099,1.02319 -1.25979,0.29175 0.31099,1.17359 -1.68723,-0.4027 -1.73295,1.04784 -0.89144,1.00757 0.57545,0.75527 -0.0607,0.76102 -0.94882,0.01 -0.45402,0.73061 -0.6877,1.07825 -0.29521,1.1892 1.43777,-0.15615 0.45901,0.80129 -0.37169,1.4867 -1.70306,0.63446 -0.92717,0.76595 -1.20825,0.49886 -0.37669,1.08318 0.0582,0.0698 0.85898,0.68542 0.87729,-0.17095 0.31102,0.8769 1.15252,0.52927 -1.06522,0.3427 -0.77002,0.65007 0.71348,0.54899 1.1467,0.45858 -0.48396,0.6246 0.83072,0.6098 1.53921,0.42818 0.84153,-0.65993 1.40198,-0.29669 1.29557,-0.19642 1.50427,0.69528 1.3754,0.14628 0.311,0.91142 0.95793,0.77581 1.23903,1.04785 0.48396,1.31 1.10599,0.9369 0.56129,1.04785 0.30018,1.63217 0.86147,0.97715 0.10146,1.40535 0.73426,0.57939 1.1833,-0.30243 0.26443,-1.04784 1.19327,1.38561 1.30471,0.12081 0.91804,1.22948 -1.88097,-0.34763 -1.40616,0.29667 0.28524,1.64778 0.34177,1.6371 1.59492,0.68459 1.36122,-0.89662 0.39835,-1.48588 1.21821,1.42095 0.64778,2.09074 -1.68224,0.50379 -0.35754,1.34534 0.2553,1.72258 0.52469,1.6223 0.82158,1.30426 0.53469,1.39055 1.84024,1.02318 1.1625,1.46123 0.66274,1.64696 1.21822,0.66486 0.58624,1.144 2.06391,1.72256 0.71928,0.81608 1.46852,1.37494 1.28308,1.17358 2.10135,1.1744 1.92172,-0.44379 1.47767,-0.005 1.34628,0.82184 2.18115,0.23668 0.66274,-0.85636 -0.1638,-1.60669 -0.63199,-1.40534 -0.42242,-1.49082 -0.12806,-1.62723 -1.53338,-1.56148 0.6062,-1.38562 0.10228,-1.73819 -0.51473,-1.44561 -0.71928,-1.34535 -1.72797,-1.43081 1.24401,-0.2975 -0.33594,-1.25412 0.95296,-1.06264 1.55916,-0.82594 0.75006,-1.57136 0.29105,-1.33548 0.153,-1.30507 -0.3218,-1.26975 -0.43324,-1.23357 -0.0956,-1.46123 0.22451,-1.0577 1.12092,-0.76594 0.49562,-1.29439 0.64612,-1.09305 0.41245,-1.29523 0.18378,-1.13822 -0.0549,-1.31988 -0.0208,-1.33549 -0.3268,-1.07331 -1.04444,0.55884 -1.47768,0.24656 -0.31441,1.23522 z m 11.98765,8.82078 0.8008,-0.36244 0.31183,-0.94183 0.90142,-0.14627 0.1688,1.27959 -0.23532,1.58203 1.18912,-1.05277 1.6207,0.64515 0.31516,1.49082 1.46851,-1.36508 1.39203,-0.26709 1.37538,-0.68049 0.0474,-1.5771 0.49394,-0.9221 -0.16216,-1.44562 0.30018,-1.59189 -0.7035,-1.64778 -1.46354,-1.09797 -1.26979,0.32298 -1.50843,-1.04291 -0.38667,0.86129 -0.99869,-0.0403 0.42743,1.08319 -0.0956,0.90648 -0.88228,0.16683 -0.49561,0.92703 0.29104,0.821 -1.02446,-0.0854 1.12259,1.09303 -0.46483,1.14811 -1.41113,-1.16372 -1.3413,-0.16108 -0.78915,0.33778 0.57626,0.53337 -0.53634,0.46845 0.70349,0.79635 0.26273,1.12838 z m -82.83182,-67.92068 -1.45271,-0.33202 -0.94798,0.28189 -0.57543,0.60405 -0.69436,0.70596 -0.8565,0.10108 -0.28024,0.69034 0.0408,0.73062 0.49477,0.27202 0.91223,-0.16601 0.4532,-0.25641 1.39701,-0.01 -0.14802,-0.82184 1.9982,-0.10109 0.53553,-0.75526 -0.87644,-0.94347 z m 28.35677,-0.4479 -1.15752,0.3575 -1.40697,-0.0501 -1.18747,0.26217 0,0.86621 0.64199,0.59912 0.9122,0.46352 0.66275,-0.27696 0.49477,-0.71582 0.59704,-0.8317 0.44321,-0.6739 z m 3.72621,4.28177 -0.0607,-0.76595 -1.00952,-0.46352 -0.23945,-0.79061 -1.16168,-0.41831 -0.89228,-0.37805 -0.94297,0.0707 0.0765,0.74541 -0.50392,0.71582 0.41828,0.61966 0.84071,0.37805 0.16882,0.61966 -0.3626,0.42325 0.42827,0.50871 0.28605,0.49886 1.35043,-0.44379 0.52553,-0.71007 1.07855,-0.6098 z m 38.52584,1.88447 0.27108,-0.88183 0.15716,-0.7602 -0.62699,-0.94182 -0.89807,-0.9369 -0.90142,-0.29175 0.19292,0.94182 -0.56545,0.59419 -0.97958,0.46845 -1.1966,0.30736 -1.32548,0.01 -1.43861,-0.0855 -1.44191,-0.0452 -1.43277,-0.0197 -1.58991,-0.13149 -1.44689,0.0205 -1.57581,-0.26217 -1.63068,-0.23176 -1.31052,-0.41256 -1.53005,-0.30243 -1.41614,-0.20628 -1.05606,0.53911 0.45483,0.60488 1.46687,0.24655 1.1176,-0.11094 1.47268,0.49802 1.10597,0.71582 1.75373,0.39284 1.33465,0.10602 0.9222,0.051 1.51344,0.52351 0.76503,-0.27203 1.80448,-0.0805 1.59492,0.20628 0.49562,-0.47913 1.20824,0.36243 1.62568,0.0608 0.66775,-0.3427 1.23235,0.43311 1.20574,-0.28765 z m 54.62473,77.38658 1.15668,0.57447 0.97458,-0.0953 0.48896,-1.20891 0.19956,-1.29522 -0.19956,-1.61738 0.45986,-1.34533 -0.84653,-1.01251 -0.87231,-1.0429 -1.244,-0.88183 -1.11096,-0.61473 -0.34591,-1.45136 -1.32052,-0.75527 -1.01533,-0.24161 -0.65775,0.61473 -0.7035,0.71992 -0.1214,1.20893 0.67272,1.31 0.76504,-0.24655 0.35091,0.8917 -0.4324,0.68541 -0.51472,0.79061 0.57461,0.97223 0.78583,-0.24655 0.18378,1.11276 1.16084,0.0805 0.38834,-0.60486 0.75837,1.6371 0.93882,1.34535 -0.47401,0.71659 z m -268.757123,41.81915 -0.335947,0.72568 -0.275245,0.0247 -0.362565,1.2796 -0.295193,0.50872 -0.02578,0.89169 0.270255,-0.17587 0.255286,0.14628 0.21371,0.48324 0.30019,-0.01 0.05156,-0.80623 0.198732,-0.75527 0.01497,-0.78074 -0.01996,-0.75033 0.01,-0.78158 z m 102.170433,-141.49065 -1.01365,0.41092 -0.59456,0.27696 -0.58625,0.3879 -0.27524,0.2671 -0.0815,0.19642 0.28522,0.11095 -0.35174,0.35257 -0.2187,0.35256 -0.48479,0.50379 0.41328,0.0855 0.2952,0.11095 0.81575,-0.0353 0.83571,-0.0805 0.58127,0.0657 0.20372,0.20628 0.0715,0.27696 0.10645,0.21696 0.76004,-0.18162 0.61201,0.0304 0.23949,0.23669 1.26396,-0.42324 1.13174,-0.34764 0.49477,-0.0197 1.26895,-0.46845 1.02947,-0.48323 0.19375,-0.51365 1.21823,-0.68459 -0.0865,0.30244 0.58126,0.0855 0.81576,-0.42325 0.0815,-0.37311 0.56545,0.0904 0.55049,0.10109 1.07021,-0.52352 1.28476,-0.3879 0.45318,0.0197 -0.84652,0.55391 -0.45902,0.55392 -0.54551,0.54406 -0.41329,0.57939 -0.12221,0.54899 -0.21955,0.4479 -0.44904,0.5646 -0.42326,0.48324 0.0615,0.33777 -0.0308,0.41257 -0.49477,0.54898 0.10228,0.34764 -0.4532,0.55391 -1.13673,0.73061 -1.24899,0.71583 -1.12593,0.65993 -0.70349,0.20135 -0.25446,0.50871 -1.41779,0.64515 -0.73926,0.59911 -0.92801,0.48817 0.21954,0.11589 0.37752,0.12574 -0.41744,0.40846 -1.08601,0.48898 -0.90224,0.50872 -0.39832,0.42324 -0.87147,0.22683 0.16881,-0.52926 -0.77502,0.16601 -0.75421,0.55967 -0.67355,0.79554 -0.10229,0.37311 -0.90723,0.55885 -1.04526,1.01743 0.87646,-0.2671 0.8565,-0.55967 0.69351,0.34764 0.37171,0.47913 -0.0408,0.67473 0.34176,0.54406 0.33678,0.54898 -0.5405,0.85636 -0.63198,0.77581 -0.94797,0.55392 -0.35175,0.71992 -0.89226,-0.46351 -0.83155,0.0608 -0.98871,0.21696 0.0457,0.74047 0.19375,0.59912 0.29105,0.51858 -0.32681,0.58926 0.96876,0 0.74424,0.29175 -0.47399,1.01743 -0.65776,0.29751 -0.10228,-0.58433 -0.0923,0.007 -0.98372,-0.13725 -1.249,-0.12081 -0.60619,-0.20628 0.306,-0.75527 0.0507,-0.67472 -0.48896,-0.29751 -0.35173,-0.58926 -0.17878,-0.7602 -0.5505,-0.36242 -0.25528,-0.60488 -0.16797,-0.68459 0.22866,-0.69034 0.69352,-0.6246 -0.87147,0.17095 -0.52969,-0.29175 0.37171,-0.6246 -0.74924,-0.21121 -0.73924,-0.20134 -1.0752,-0.0255 -0.93301,0.12574 -1.19827,0.23669 -0.99869,0.22683 -1.37123,0.28682 -1.23901,0.20627 -1.5442,0.50378 -1.0752,0.22602 -0.81493,0.12574 -0.84651,0.29174 -0.1688,0.61474 0.12223,0.50872 0.57128,0.3575 0.98873,0 0.0308,0.53912 -0.82575,0.81115 0.95298,-0.2219 0.94796,-0.0452 0.18876,0.4438 -0.43323,0.75116 -0.68271,0.55885 0.13222,0.36818 1.32051,-0.55392 1.17748,-0.22189 0.56545,0.25724 -0.10228,0.4783 -0.94298,0.48899 -0.01,0.39284 1.27477,-0.30243 0.73925,-0.45859 0.94298,-0.0855 0.49977,0.41832 1.09599,-0.63446 0.0715,-0.46845 1.09099,-0.22189 0.56048,0.3427 0.44322,0.51858 0.7542,0.18656 0.82074,0.10519 -0.29519,0.77582 -0.87146,0.57939 0.35174,0.50379 -0.25945,0.78074 -1.397,0.1052 0.51473,0.55967 0.11724,0.59911 -0.14301,0.69528 -0.83073,0.91717 -1.06522,0.71992 -1.15752,0.59502 1.02946,0.19149 0.10727,0.7454 0.33678,0.71993 0.41329,0.63035 0.46399,0.61966 -0.19375,0.71007 0.4848,0.6098 0,0.83088 0.32099,0.63035 -0.51475,1.14399 -1.01448,0.93197 0.87146,0.45365 1.05523,-0.56953 1.52425,-0.6246 1.4627,-0.44872 1.00452,-0.36243 0.33094,-0.7602 1.14673,-0.14628 -0.67772,1.0881 0.35175,0.72569 0.21371,0.32708 0.009,0.0502 0.20955,0.19723 1.25398,0.16602 1.14255,-0.71994 0.63198,0.6698 -1.20327,0.3123 -1.27976,0.4742 -0.47399,0.78074 0.26527,0.52351 -0.71348,0.98211 -1.22819,0.38791 -0.89227,0.83662 -1.1725,1.21385 -0.68268,1.06263 1.14171,-0.0501 0.83571,0.31722 1.42695,-0.33777 -0.16299,0.99278 0.88229,0.22189 0.63197,0.49393 1.33049,-1.18345 1.3305,-1.00264 0.70348,-1.38561 0.24947,-1.13331 1.31552,-0.63447 1.13174,-0.84155 1.23319,-1.0273 1.03445,-1.09305 1.19328,-0.82101 1.20825,-0.80129 0.0524,-0.0131 0.27939,-0.19889 1.04443,-0.87115 0.8565,-0.95251 1.13673,-0.94183 0.54551,-1.07824 0.77502,-0.95744 0.77001,-0.93197 0.83572,-0.97222 -1.56998,-0.0551 -1.33049,0.27203 -0.40246,-0.43311 0.19375,-0.61474 1.00451,-0.15121 0.94797,-0.68541 0.91221,-0.005 -0.44821,0.63446 0.55049,0.20627 1.0145,-0.77087 -0.58625,-0.45283 -0.31099,-0.50872 1.12177,-0.86703 1.15753,-1.08812 0.79496,-1.17359 0.96374,-1.01743 1.3463,-0.63445 0.70847,0.49802 1.22822,-0.01 1.11596,-0.37311 1.01447,-0.72568 1.14673,-0.80129 0.56627,-0.88676 0.73426,-0.58925 0.55049,-0.63939 0.74923,0.23669 1.13175,-0.25724 0.63696,-0.46352 1.00452,-0.14053 1.18246,0.31723 1.25898,-0.48899 1.17747,-0.76102 1.63651,-0.46352 1.20825,-0.50872 1.19327,-0.49392 1.46271,-0.59912 -0.96876,-0.15122 1.10097,-0.54898 -0.0915,-0.42818 -0.83572,-0.21697 -1.13174,-0.23175 1.45271,-0.54899 1.48351,-0.80622 0.98372,-0.11588 0.57625,-0.39366 0.13719,-0.48324 1.06026,-0.12081 1.397,0.18656 -0.29105,-0.59912 -0.34678,-0.5646 0.2553,-0.6246 1.081,-0.0961 1.36128,0.21121 1.22819,0.41832 -0.15302,0.73061 0.34678,0.71992 1.67724,0.30737 1.58992,-0.18163 2.02402,-0.12574 1.53918,-0.37311 -0.17294,-0.50378 -0.74423,-0.35257 1.10096,-0.37312 1.8502,-0.24655 1.46855,0 0.14219,0.61474 1.23903,-0.20135 1.26395,0.0805 0.91222,-0.23669 0.94298,-0.36819 0.98372,0.7865 -0.27524,0.55392 1.08103,0.0255 0.36173,-0.29176 -1.16752,-0.28764 -0.316,-0.59419 0.88229,-0.0805 0.78499,0.17588 0.928,0.19642 0.51975,-0.41338 -0.65777,-0.33778 1.16749,-0.31723 1.11098,-0.28189 0.98869,-0.0255 -0.56628,0.62459 -0.0649,0.0255 -0.94462,0.26627 -1.0802,0.69034 -1.04026,0.57447 -1.091,0.75116 -0.80578,0.60486 0.11227,0.79554 0.44321,0.64021 0.94299,0.45284 0.97377,0.19642 1.17249,0.0551 1.02444,-0.0452 0.20872,-0.41832 1.04031,-0.0304 -0.72928,0.84073 1.07022,0.11094 1.239,0 -1.27478,0.56871 1.36127,0.55392 1.10595,-0.53419 1.12677,-0.65501 0.10724,-0.82101 1.47268,0.0904 -0.20954,-0.55967 2.14126,-0.0904 -0.39335,0.49885 1.80447,-0.20628 1.12179,0.15122 1.02943,-0.39284 1.33549,-0.0551 1.66728,-0.0961 1.20241,-0.29669 1.03446,-0.31229 0.39335,-0.47338 -0.02,-0.67473 1.54335,0.2219 1.41698,0.10601 1.55,0.29176 1.47268,0.31722 0.31101,-0.88183 0.61951,-0.63117 -0.97874,-0.57446 -0.10727,-0.7002 1.32466,0.13642 0.40248,0.78568 0.63363,0.61473 0.86066,0.2975 0.29519,0.52927 0.98874,-0.0657 -0.69354,-0.81115 0.74426,-0.0197 0.3717,0.55967 0.95296,0.0855 0.1688,-0.65007 -0.9222,-0.75116 -0.12305,-0.45365 1.20825,0.71582 1.18912,0.72568 -0.74508,0.5646 -0.97789,0.34271 -0.53637,0.6698 0.30518,0.71581 0.50977,-0.0805 -0.35091,-0.59418 0.43821,-0.42325 0.91804,-0.21121 1.03944,0.13642 1.27976,-0.33284 -0.0565,-0.60405 0.19956,-0.63446 1.0852,-0.23669 0.91804,-0.44379 0.66774,-0.68459 -1.42778,-0.71582 1.27976,0.12081 0.82656,-0.4479 0.52471,-0.68541 1.49265,-0.0247 1.16252,-0.14628 1.57578,0.18655 1.37041,0.24163 0.45322,0.86621 -1.91008,-0.37311 -1.21325,-0.0304 -1.3413,0.0707 -0.65278,0.38297 -1.03944,0.21121 0.31683,0.82102 -0.7958,0.48324 -1.00368,0.53419 -0.80079,0.50872 -0.80077,0.51858 0.0358,0.76595 -1.17749,0.22683 -0.0665,0.0271 -0.93217,0.27531 -0.5455,0.38298 0.76999,0.81608 -0.68188,0.15615 -0.17378,0.54899 1.10596,0.20135 1.15171,-0.23177 1.18246,-0.22189 1.02447,-0.44873 1.15336,-0.21121 1.59991,0.21696 0.91804,-0.31229 0.33594,-0.59912 1.1176,-0.19149 0.60621,-0.28682 -0.48897,-0.57446 0.43824,-0.6698 -0.25029,-0.57446 1.33465,-0.18656 0.33594,0.61473 0.0208,0.60405 0.64613,0.67555 0.33096,0.65994 0.70515,0.57446 0.22868,0.81609 0.84652,0.71006 0.55548,1.07825 -0.0765,0.88183 1.0802,0.0403 0.0973,-0.49392 -0.24533,-0.71993 0.45486,-0.41831 0.20789,-0.54899 0.98871,0.15615 0.71264,0.32709 0.71431,-0.2219 0.42242,0.49393 -1.22819,0.36736 1.0752,0.41831 1.43776,0.34764 0.65774,0.7002 0.93383,0.56954 0.99869,0.0452 -0.13306,0.68459 -1.09101,0.2975 1.23404,0.45365 1.22819,0.47913 1.15336,0.63446 1.16584,0.46352 1.34131,0.65993 0.99371,0.58926 1.44689,-0.15615 1.17249,0.54899 0.65775,0.74047 -0.52969,0.43886 0.16216,0.7002 -1.41779,-0.34763 -0.9222,-0.82184 -0.79412,0.39777 -0.28108,0.46845 0.67855,0.82184 0.25946,0.91716 0.57045,-0.73061 1.48929,-0.10109 1.47768,0.18163 0.0308,-0.52351 1.26811,-0.0658 1.19412,0.41832 0.0507,0.59912 0.35757,0.79061 1.26811,0.52433 1.21325,0.81609 1.32549,0.70513 0.81493,-0.38791 1.00537,-0.38298 0.44321,0.99278 0.0358,0.69528 -0.1738,0.75526 0.18378,0.70021 1.11595,0.43311 0.71015,-0.5794 -0.39831,-0.65993 1.31383,0.0904 0.66275,1.12838 -0.59123,0.8013 -0.15716,0.90155 -1.35127,-0.13642 -1.13674,-0.10603 -1.36125,-0.11587 -0.72761,0.75033 -0.36255,0.64021 -1.1725,0.35257 0.6012,-0.67555 -0.005,-0.0666 -0.0191,-0.85553 0.25529,-0.78074 -0.1688,-0.75116 -0.25946,-0.81608 -0.0815,-0.87197 -0.84652,-0.96238 -1.239,-0.88184 -1.23404,-0.52432 -1.30387,0.0156 -0.92717,0.27203 -0.40248,0.71007 -0.17878,0.75526 -0.42907,0.75116 -0.48397,0.73554 -0.20788,0.85636 0.0698,0.9673 0.2611,1.03798 -0.93382,-0.0403 -0.153,0.70021 0.74423,0.63446 0.13803,0.9073 -0.64113,0.83664 -0.0782,-0.8917 -1.30888,-0.90649 -0.43323,0.66487 -0.43823,0.71993 -0.14803,0.89168 1.90175,0.82184 -1.17744,0.0502 1.1966,0.82595 -1.75208,-0.26217 0.65774,0.65007 1.07021,0.54406 -0.59124,0.55884 0.88229,0.8317 1.34959,0.81609 0.64778,1.08318 0.0274,0.074 0.0798,0.86786 0.089,0.0822 1.45522,0.87526 0.52471,0.94675 1.00869,0.24162 0.20956,-0.4027 1.01534,0.96731 -0.97458,-0.17094 0.75504,0.71006 -1.48433,-0.57447 0.98872,0.91718 0.73426,0.92703 0.74506,-0.26217 0.47897,1.22947 1.20657,0.99278 -0.96293,-1.19413 -0.22451,-0.89169 -0.25029,-1.01744 1.48432,1.37 1.1966,0.6246 1.21325,1.08811 1.20825,0.82594 1.17747,0.68459 1.19244,0.7865 1.41778,0.88101 0.88229,1.1292 1.62069,1.26892 1.10099,1.02729 1.11095,1.05276 -0.78414,0.27205 1.11595,0.91716 0.84152,0.9073 0.0358,1.09798 1.02946,1.21878 0.76505,1.10784 0.74839,1.23439 0.98871,0.11588 0.7958,0.90156 1.19244,0.41338 1.16252,0.50872 1.24233,0.0452 0.82655,0.84649 0.93718,0.29175 -0.0241,-0.95251 0.75836,1.03305 1.10098,0.71582 0.77501,-0.11588 0.87232,-0.59911 0.40745,-0.86128 -0.50475,-1.31001 -0.79413,-1.02729 -1.01033,-1.41603 0.0715,-0.56871 -0.85069,-0.79636 0.73425,-0.24656 1.59492,0.45366 1.38204,0.24162 0.0865,0.0296 1.4943,0.32874 1.36124,0.25148 1.15171,-0.17587 0.85069,0.73554 1.12676,0.14053 0.86067,0.43311 0.0358,-0.84075 0.0166,-0.73061 -0.86231,-0.31723 -1.09433,-1.1481 0,-0.81609 -0.0116,-0.72569 -1.54419,-1.18837 -1.54919,-0.8769 -1.13173,-0.68048 -1.33964,-0.55885 -0.89641,-0.54898 -0.96957,-1.22947 -0.74424,-1.11359 -0.40248,0.21203 -0.73426,-0.9073 -0.70847,-0.52433 -0.90807,-0.06 -0.84652,0.39777 -0.86564,0.39284 -1.15835,-0.33285 -1.40201,-0.655 -1.402,-0.57446 -0.72428,-0.57446 -1.4569,-1.13331 -0.99868,-1.03223 -0.78082,-0.86128 -0.81493,-1.01743 -1.00869,-0.5794 -1.03944,-0.88182 -0.61202,0.4479 -1.01533,-0.70514 -0.7035,-0.10109 -0.57461,-0.64514 -1.01034,-0.59912 0.0973,-0.6246 -0.12806,-0.59418 -0.36672,-0.64515 0.75007,-0.55967 1.41614,0.28189 0.63198,0.71007 1.5442,0.86703 1.32549,1.06264 1.56581,1.16372 1.32549,1.14811 1.46851,0.81115 1.38039,0.3271 1.31551,-0.0197 1.43776,0.78074 0.90806,0.28764 0.55048,-0.59501 0.58126,-0.33202 0.25946,-0.86704 -0.44321,-1.06757 -0.71015,-1.11852 -0.72761,-1.11359 -0.72428,-1.09304 -0.39832,-1.2344 0.8199,-0.53419 -0.47896,-0.76595 0.94382,-0.19149 -0.0457,0.9673 1.19244,1.12838 0.81493,0.61966 0.37834,1.19906 -0.14302,0.88183 0.48397,1.07825 0.43823,0.98209 0.84153,0.96237 1.12592,0.35832 1.06023,0.0805 0.0615,-0.59501 1.32549,0.43311 1.32052,0.44297 0.78914,0.82184 -0.0599,0.61473 -0.81658,0.0756 -0.55048,0.35256 0.39332,0.9673 1.39203,0.89663 0.93218,0.73061 1.52507,0.59912 1.28974,0.42324 1.35627,0.94676 1.8951,2.01514 0.50975,0.83662 0.0765,0.74541 -0.1106,-0.002 -1.14339,-0.14876 0.28605,1.15386 0.49394,1.26974 0.87728,1.27467 0.22451,1.17359 0.63199,1.42094 -0.21954,0.54406 -0.46317,0.52433 -0.39332,-0.75526 -0.89142,-0.0156 0.62199,0.86128 0.17878,0.9821 0.3717,0.76594 0.58623,1.00265 -0.0765,0.75526 -0.82158,-0.69528 -0.77999,0.82596 -0.64112,-0.36244 -0.74091,0.37722 -1.24233,-1.1333 -1.23901,-1.22455 -0.35258,-1.04783 -0.86563,-0.44873 -0.0815,0.71089 -0.8673,-0.45366 -1.0802,-0.87196 -0.87728,-0.43803 0.11724,0.89662 0.81077,0.94182 0.10227,1.02238 0.57626,0.85635 0.83488,0.67965 1.30554,0.72569 1.11096,0.50379 0.75339,-0.25641 1.28973,0.73554 0.91304,0.0657 0.36672,0.67472 0.71016,-0.0551 0.54882,0.92209 0.82158,0.59911 -0.5405,0.39285 -0.16216,0.87196 0.5455,0.82184 -0.25529,1.19823 0.24865,1.03305 1.05109,0.68048 0.33096,-0.42324 0.62199,0.40352 0.48396,0.97223 -0.55547,0.27695 -1.23901,-0.82101 0.11227,0.5794 0.95796,0.90649 0.74507,0.90155 0.68685,1.00264 0.6428,1.13331 0.17878,1.07824 0.32015,1.35029 0.14803,1.09303 0.71015,0.82595 0.95795,0.86621 0.17214,0.8769 0.4141,4.24642 -1.1176,-0.45858 -0.34592,0.81115 1.35627,0.49393 1.44192,0.91717 -0.34759,0.81115 -0.23864,1.09797 -0.95795,-0.19149 -0.25946,1.08318 0.0457,1.03304 -0.22867,0.96155 1.17249,0.90731 0.67272,-0.24162 0.34592,-0.70514 0.94879,-0.31723 0.61701,-0.79061 0.48397,0.0904 0.99371,0.0657 0.50475,0.61473 0.70847,0.13068 0.85567,-0.23668 1.07687,0.4635 1.20657,1.27467 1.19411,1.29522 0.84653,0.9673 1.11596,1.43574 0.0532,0.0633 0.30351,0.82841 -0.14802,0.95743 -0.58623,0.70021 -0.76004,1.1029 -0.2794,1.63217 -0.86231,0.63939 -0.76504,0.95743 -0.46318,1.29523 -0.5721,0.99687 -1.16585,0.56461 0.54384,1.41027 -0.38668,1.04784 0.25946,0.92703 1.53505,0.67473 0.74423,1.06263 0.71264,0.61967 1.1226,0.86128 0.71263,1.08812 0.78583,1.37493 0.98788,1.46123 0.30186,1.28946 0.8249,1.26892 0.85069,0.36243 0.41245,-0.65008 0.81658,1.27467 0.88645,1.14811 0.56544,1.23932 0.43824,-1.15879 0.65277,-0.6098 0.0956,-1.05278 0.40248,-0.68459 0.91304,-0.25641 0.60121,0.28682 1.17746,0.5794 0.75504,-0.45366 -0.30018,-1.77845 0.12641,-1.21468 0.34258,-1.1481 0.47897,-0.99277 0.45818,-0.97716 0.43824,-0.98211 -0.50975,-1.48095 -0.56545,-1.91488 -0.0615,-0.12574 -4.89868,-10.64524 0,-0.0904 -0.0565,-1.06346 -0.01,-1.25905 -0.39332,-1.62723 -0.26942,-1.30015 -1.24901,-0.9821 -1.091,-0.84156 -0.25946,-1.40041 -0.34592,-1.13823 0.61203,-0.5942 0.44321,-0.91224 0.75338,-0.45858 0.0408,-1.09386 -0.59123,-1.27467 -0.35592,-1.39055 -0.17877,-1.20892 -0.6744,-0.99771 -0.24365,-0.94676 0.29522,-0.64514 0.44821,-0.22682 0.29521,-0.78075 1.10595,0.72075 0.95796,0.3271 0.96792,-0.0962 0.74091,0.45859 0.0765,-0.81609 0.93718,-0.11095 0.93217,0.0304 0.5721,-0.39776 0.0457,-1.09797 0.70847,-0.14053 0.53137,-0.2819 0.19291,-0.39778 0.84154,0.2671 0.33593,-0.84649 0.66775,0.41832 0.83655,0.2819 0.83655,0.57445 0.5031,0.85636 0.81077,0.98209 0.49062,0.43311 -0.01,-0.57446 -0.0133,-0.0559 -0.48729,-0.66898 -0.50974,-1.00263 -0.81077,-0.69528 -0.3717,-1.144 -0.84152,-0.70021 -0.469,0.43805 -1.02446,-1.11853 -0.69686,-0.96732 0.31016,-0.41337 0.11227,-0.71005 0.66275,0.38297 0.13802,-0.41257 -0.71431,-0.83662 -0.77502,0.18164 -0.45818,0.43309 -0.47399,0.43312 -0.48396,0.57444 -0.33097,0.55393 -0.7035,-0.9525 0.0191,1.37 -0.52969,0.54406 -0.5455,0.4027 -0.54051,-0.005 -0.91303,-0.54897 -0.9222,-0.28682 -0.57462,0.38789 -0.58623,0.24163 -0.76504,0.12081 -0.74423,-0.42325 -0.73926,-0.81115 -0.58623,-0.0156 -0.73426,-0.68049 0.0408,-0.63445 -0.51972,-1.17852 0.21454,-0.64515 0.55547,0.64515 0.77001,0.42324 0.57046,0.005 -0.36673,-0.78649 -0.73925,-0.66485 0.75504,-0.50873 0.93717,0.51857 0.55547,0 0.72928,0.52433 0.54051,-0.52925 0.53469,-0.01 0.14303,-0.80623 0.85069,-0.54899 0.84152,-0.30737 0.45986,-0.55967 0.62199,-0.30736 0.44321,-0.43804 0.89142,0.78074 1.21822,1.05278 1.02946,0.79058 0.42908,-0.31721 0.77501,0.10601 0.60621,0.0953 0.91304,0.21122 0.72428,-0.0403 -0.0565,-1.16373 -0.38667,-1.42094 0.52471,-0.0707 -0.0565,-0.88184 0.46483,-0.33777 -1.13174,-0.90729 0.0923,-0.7405 -0.16381,0.44791 -0.60121,-0.34763 -0.17878,0.44297 -0.36256,0.20217 -0.59624,-0.23175 -0.5455,0.0756 -0.73426,-0.0756 -1.20325,-1.00758 0.6694,-0.22189 -0.17381,-0.83663 -0.5721,-0.65499 -0.41745,0.0501 -0.18378,-0.83088 -0.6062,-0.77089 -0.0116,-0.7002 -0.36257,-0.82101 -0.0649,-0.82595 0.51972,-0.0805 -0.39831,-0.93689 0.85566,1.144 0.50059,0.35257 0.0682,0.0452 1.16417,1.06838 -0.56048,-1.50642 0.5721,0.62459 1.09434,0.70021 0.39331,0.0756 0.30019,0.55392 -0.31016,0.21204 0.67272,0.61966 0.0765,-0.59911 0.0923,-0.48406 0.69185,0.65007 0.24532,-0.35256 0.79579,1.05852 -0.27607,-0.86704 -0.2794,-0.86128 0.56048,0.66486 -0.34095,-1.00264 0.36089,-0.54405 -0.0291,-0.62953 -0.95295,-1.6519 -0.86232,-0.8769 -0.25945,-0.87608 -0.0907,-0.92703 0.40248,0.0345 -0.0831,-0.61473 -0.63199,-0.95251 -0.33097,-0.69528 -0.99868,-1.28946 -0.94383,-1.14892 -0.13137,-0.78568 -0.29105,-0.54898 -1.0511,-1.27467 0.36673,0.19148 0.90306,0.99278 0.41746,0.15615 0.72928,0.72569 1.14671,0.90648 0.77001,0.54898 1.01034,1.14812 1.18746,1.25 1.03945,1.14811 0.96293,1.02729 0.93882,1.01744 1.09101,1.35027 0.81076,1.08811 0.78415,1.48671 0.61202,1.16865 -0.11392,0.22682 0.6428,0.80129 0.0865,0.51365 -0.60121,-0.67555 0.38169,1.06839 0.56213,1.19906 0.81077,1.45547 0.74423,1.31988 0.47399,1.06838 -0.0208,0.65993 0.36256,1.08812 0.0258,0.64514 -0.0408,0.47914 0.18876,0.96236 0.17213,0.93689 0.41409,1.21385 -0.57209,-0.24655 0.26443,1.09305 -0.0191,0.80621 0.0765,0.92211 -0.65278,-0.52926 -0.0765,0.78074 0.0865,1.09797 0.31184,1.21468 0.4482,1.36999 0.84153,1.81873 0.0274,0.0625 2.4165,2.88959 0.0582,0.0312 0.47896,1.1029 0.35756,1.08811 -0.0308,0.8054 -0.46899,0.32709 -0.44321,0.66568 -0.19292,1.25413 -0.0973,0.9673 -0.39333,0.47913 -0.0865,0.0205 -0.3218,-0.0156 -0.83988,-0.93689 -0.28605,0.76595 -0.43823,0.61474 -0.16881,0.94675 -0.20289,1.24426 -0.0765,1.22455 -0.36255,0.60405 -0.53138,0.6098 -0.75836,-0.51857 0.0715,0.94675 -0.38834,0.43886 -0.75836,-0.66981 -0.37338,-1.08317 -0.5031,-1.39548 -0.71431,-1.25412 -0.76337,-0.63446 -0.37834,0.28765 -1.11095,-0.81116 -0.2553,-0.9073 -0.74838,-1.22454 0.3459,1.65271 -0.99868,-0.50379 -0.26943,0.73062 0.0308,1.0273 0.36089,1.19905 0.0258,1.05278 -0.56048,0.98703 0.17878,1.06839 -0.59788,0.97716 0.30186,1.22947 -0.0565,1.03798 -0.4432,0.2564 -0.42908,0.8317 -0.2844,1.02237 -0.0357,0.89662 -0.25946,0.86622 0.0241,1.19413 -0.21453,1.35028 -0.30519,1.46122 0.0116,0.06 0.0191,4.98772 0.0191,0.0847 0.38834,1.06346 -0.0549,1.70285 -0.23035,1.05771 -0.89141,0.45365 -0.19791,0.89663 -0.55048,1.12838 -0.21954,0.89663 -1.15835,0.39776 -0.79413,-0.31723 -0.31683,1.01744 0.62699,1.55738 0.56712,1.22371 0.44821,1.36014 0.4482,1.38563 -0.0407,1.76365 -0.3218,1.38068 -0.11724,1.43575 0.31016,1.54177 0.0565,1.4908 0.51472,0.77582 0.36256,1.42095 0.005,1.1588 1.23236,1.97487 0.78082,0.37311 0.55048,1.81379 0.19792,1.59683 0.0865,1.6979 -0.37169,1.63216 0.15716,1.5919 -0.50808,1.77352 -0.86731,1.49575 0.11227,1.59682 0.40745,1.51711 0.0765,1.24426 -0.37169,1.48176 -0.0407,1.04703 0.3767,1.51135 0.25529,1.33549 0.31683,1.86803 -0.13305,1.77353 -0.0191,1.61162 0.0715,1.45547 0.33594,2.10143 0.0549,1.48178 -0.25529,1.19906 0.36256,1.39958 0.36256,1.38726 0.97293,0.0805 1.03612,0.31642 0.0408,0.0542 0.42242,1.18016 -0.21454,1.40616 0.9646,0.64512 0.69851,0.92622 0.42243,1.22947 0.29104,1.37082 0.13803,1.53603 0.11724,1.53108 0.50475,1.64202 -0.23034,1.60176 -0.10727,1.48178 -0.50807,1.37082 0.85068,-0.15121 0.73925,0.76103 0.49894,1.25823 0.17879,1.36097 0.34758,1.42095 0.81991,-0.17177 0.80079,-0.15533 0.61037,-1.00346 0.49562,1.45546 0.74839,-0.38214 0.72428,0.35832 0.59123,0.5235 0.76004,-0.20711 0.82988,0.18655 0.67856,0.33367 0.33596,1.02235 0.30518,0.81033 0.39833,0.66897 0.91301,0.19232 0.81079,-0.39366 0.78912,-0.4027 0.71929,0.11587 1.01863,-0.54404 0.81079,0.15121 0.63367,-0.0657 0.72756,-0.2523 0.84657,-0.23095 0.65773,-0.62952 0.51475,-0.655 0.52631,-1.77351 0.66275,-1.41602 0.38171,-1.59271 0.63697,-1.39959 0.60291,-1.40616 0.42237,-1.05278 0.51475,-1.04375 0.79582,-1.18259 0.50308,-0.86703 0.61199,-0.65503 0.31685,-1.45545 0.37167,-1.35273 0.0241,-0.0879 1.45684,-5.71589 0.0532,-0.20379 0.0815,-1.29852 0.36674,-1.60176 0.32016,-1.27467 0.34259,-1.07825 0.35092,-1.44642 0.36253,-1.2533 0.35264,-0.69527 0.41243,-0.16683 0.34096,0.95662 0.27108,1.13495 0.37167,-0.53009 0.23865,-1.08811 0.20956,-1.27467 0.19292,-1.29521 0.19793,-1.09305 0.13801,-1.09797 0.14302,-0.90239 0.148,0.91636 0.14805,-0.71911 0.16378,0.38215 0.17216,0.18163 0.0407,1.66256 0.0516,1.46534 -0.0166,1.30507 -0.0457,1.48671 0.11222,-0.37229 -0.0599,1.48176 0.005,1.10785 0.007,0.41502 -0.0383,0.86458 -0.17881,1.83434 0.0549,0.5539 0.0116,0.73064 0.0549,0.19558 0.0972,-0.78567 c 0.47318,-5.27782 0.71436,-10.6214 0.71436,-16.02004 0,-98.94664 -81.16042,-179.16034 -181.28024,-179.16034 -23.23195,0 -45.323,4.28587 -65.73596,12.15578 m 174.71369,98.01379 0.53634,-0.5038 -0.35756,-1.43081 0.91804,-0.79635 -0.84153,-1.0273 0.20957,-1.07332 0.85068,-0.67473 -0.20457,-1.36507 -0.0682,-0.11669 -1.01366,-4.8283 -0.0441,-0.12902 -0.33762,-1.21385 -0.90639,-1.06839 -0.9222,-0.25149 -0.67855,0.45366 -0.099,0 -5.05418,-0.20217 -0.0906,-0.0164 -1.1226,-0.32626 -1.33465,-0.68541 -0.99371,-0.19642 -0.77999,0.49392 -0.36256,0.77581 -0.35259,-1.03797 -0.61037,-1.06758 -0.88644,-1.13331 -0.71929,-0.86128 -0.91303,-0.48818 -0.41745,0.94183 -0.35259,0.75116 -0.18378,1.00264 -0.87729,-1.12838 -0.40745,-1.5015 -0.72761,-0.2523 -0.27607,1.13826 -0.50975,1.00263 0.87728,1.12344 0.58126,1.06841 0.77502,0.70019 -0.70351,0.25641 0.18378,0.67472 0.88645,0 0.40745,-0.75032 0.98455,1.41027 0.84153,0.63939 -0.0615,-0.98211 0.98871,0.8769 0.3817,1.40042 0.37669,-0.68541 0.80578,0.62459 -0.69186,-1.36014 1.05858,0.13643 1.16749,1.5771 1.03445,0.24656 0.0407,-1.22454 0.0208,-1.21879 0.83655,1.17934 1.04444,0.11096 0.28605,-0.61967 0.83488,1.18919 1.02031,0.78075 -0.153,0.88183 -0.76004,0.99688 0.70515,0.26709 0.57045,1.06264 0.3767,-0.74541 1.18911,0.96155 0.0765,0.9673 0.19791,1.2492 0.6985,0.27202 0.22868,-1.04291 0.53633,-0.47914 0.90142,-0.17093 -0.18875,-1.33959 0.76504,1.21385 -0.31016,0.65993 -0.36672,0.7602 0.6985,1.38068 0.41745,1.31494 0.37004,1.45219 z" />
    <path
       style="fill:#000000;stroke:#ffffff;stroke-width:2;stroke-miterlimit:10;stroke-dasharray:none;stroke-linecap:round;stroke-linejoin:round"
       stroke-miterlimit="10"
       id="lakes"
       d="m 430.07853,762.06604 0.0973,-0.90155 0.26945,0.19642 0.25027,0.71006 0.0765,-1.07332 0,-1.07825 0.36254,1.44561 0.11227,1.44562 0.16216,1.42589 -0.18875,0 -0.23865,-0.52433 -0.20454,0.17093 -0.32681,-0.54405 -0.27443,-0.17589 -0.0973,-1.09714 z m -232.31431,-55.11893 1.36124,0.91142 1.6157,0.77582 0.35676,1.21878 -1.41698,-0.0805 -1.01948,-0.11588 -1.68723,0.97223 1.35544,1.03798 0.84652,-0.65007 1.53421,-0.18656 -0.5405,0.90731 -1.49347,0.83088 2.67094,-0.16602 0.28524,-1.48587 1.17249,1.3552 1.13174,-0.76102 1.05522,-0.55967 -1.47765,-0.65007 -1.09598,-1.09797 1.18247,-0.10601 1.249,-0.0756 -0.62699,-1.0273 -1.84521,-0.0707 -1.50844,-0.47337 -1.42694,-0.2967 -1.6781,-0.20629 z m -2.12629,17.27995 0.52554,1.57216 0.88145,0.52433 1.27976,0.1356 0.45818,0.54898 0.775,-0.74047 1.28396,0.11095 1.16749,0.0657 1.3463,-1.03797 1.402,-0.14628 1.4527,0.41338 -0.005,-0.85636 1.40201,0.67473 -0.94299,-0.99771 -0.8823,-0.43805 -1.23817,-0.0805 -0.82074,0.44378 -1.16169,0.56953 -0.9122,-0.21698 -0.57626,-0.91716 0.0557,-0.86129 -1.30968,-0.75527 -0.17297,0.79635 0.0557,1.2492 -1.00453,-0.30243 -0.68852,0.78567 -1.02948,0.28765 -1.34132,-0.82754 z m 2.75826,10.5088 1.091,0.8613 0.97377,-0.69527 1.25394,0.051 1.35128,0.63446 1.38622,0.0452 -0.54051,-0.82183 -0.78001,-0.3575 -0.40745,-1.04291 -0.65775,-0.31723 -1.31551,0.80622 -1.06026,0.34271 -1.29472,0.49391 z m 8.44109,11.64297 1.718,-0.20134 0.50974,-1.19906 0.50975,-1.19906 1.19744,-0.39777 -0.14803,-1.68805 -1.1417,0.9673 -0.90724,0.75527 -0.0158,1.38068 -0.78998,0.8013 -0.9322,0.78073 z m 2.84973,10.84576 0.22954,1.15387 -0.0715,1.6075 0.63696,1.01251 -0.32099,0.97715 1.3513,0.39777 -0.311,1.53683 1.06021,-0.2219 -0.54049,1.17934 -0.53552,1.21466 -0.38751,1.25906 1.24401,-0.20629 1.06522,-1.88365 -0.38751,-1.43082 -0.21453,-1.97487 0.0258,-1.61738 -0.10227,-1.65271 0.0557,-1.60751 -0.93801,-0.53913 -0.99369,-0.30243 -0.86568,1.098 z m -3.56818,-0.35255 0.0308,1.66257 0.98372,-0.49392 0.45902,0.97223 -0.70348,0.58926 -0.53055,1.47107 0.77003,1.07332 0.78496,1.59682 -0.33594,1.00757 0.28025,1.16866 -0.474,0.93196 1.47351,0.18656 -0.0615,-1.39054 -0.36173,-0.92704 -0.12722,-1.11853 0.70848,-1.15879 -0.82074,-0.51365 -1.06522,0.21697 0.33094,-1.82859 0.69849,-0.59501 0.34679,-0.97223 -0.81078,-1.34534 -1.57578,-0.53335 z m 11.50453,23.96064 1.03944,0.2219 1.53922,-0.48899 0.61199,1.46122 1.72796,-0.46845 1.718,-0.48981 1.79948,-1.02729 1.04526,0.16683 -1.58576,0.82019 -0.17797,1.01744 1.45773,-0.0148 0.6877,1.40535 1.41197,0.21122 1.90594,-0.52845 1.80445,-0.0206 -0.0965,0.78157 1.07023,0.12491 -0.37172,-1.36506 0.33096,-1.25412 -0.59623,-0.8613 0.13803,-1.05277 -1.56497,-0.20135 -0.72429,-1.13906 -0.44902,-1.64203 -1.69721,-0.25232 -1.39203,-1.01249 -0.87145,0.90649 -1.48351,0.53912 -0.89223,0.9221 -0.99374,0.61555 -1.47267,0.226 -1.24899,0.84073 -1.41197,0.76596 -1.25814,0.79225 z m 7.49811,8.0655 1.81446,-0.79143 -0.74923,1.21386 -0.33678,0.9936 -0.66275,1.76694 -0.58126,1.20399 0,1.33055 -0.27524,1.79326 0.53053,1.66751 0.96874,0.14628 1.0195,-0.35832 0.71845,-0.96648 0.63783,-1.74311 0.0249,-1.57793 -0.19873,-1.35438 0.17797,-1.26973 0.73923,-1.22372 0.55551,-1.25412 1.75288,-0.55392 0.92304,-1.46615 1.09099,0.13067 0.85652,0.63446 1.04025,0.65008 0.44323,1.08235 -0.18878,1.80887 -1.28389,1.43492 -0.11726,1.05935 1.03944,-0.95826 1.17746,-0.38708 0.41745,1.61162 0.42826,1.61162 1.60571,-0.64515 0.14802,-1.84255 0.69269,-1.51218 0.48477,-1.24919 -0.29604,-1.09305 1.1933,1.41028 1.83024,0.90731 0.80577,-0.98868 -0.99952,-1.9083 -0.99372,-1.63711 -1.97245,-0.65007 -1.41197,-0.40763 -1.45771,-0.13642 -1.42776,-0.39777 -1.0802,-0.11588 0.24949,1.06756 -1.80448,-0.21122 -0.88229,-0.36242 -1.11676,0.11094 -2.23772,0.22683 -0.54051,-0.0814 -0.87146,0.9114 -0.94797,1.18345 -0.93217,1.1859 z m 9.06893,10.13078 1.49845,0.93771 1.36125,0.12657 1.3862,-0.13149 1.44772,-0.66898 1.39704,-0.4331 1.61567,-0.68541 1.39119,-0.70595 1.02947,-0.9821 -1.55497,-0.0805 -1.54922,-0.0896 -0.81574,0.73061 -0.95296,-0.34845 -1.36624,0.17669 -0.85153,0.96812 -1.62651,0.6435 -1.35127,-0.12985 -1.05855,0.67224 z m 9.06808,-3.9703 1.13673,0.31806 1.56998,-0.42818 1.33049,0.0559 1.33049,0.29176 1.36625,-0.21698 1.52921,-0.50379 -0.16297,-1.56642 0.40248,-1.02894 -1.34546,0.47995 -0.77001,0.76596 -1.51925,-0.29175 -1.14671,0.20546 -1.51924,0.22189 -1.37125,0.42818 -0.83074,1.26893 z m 162.30253,-102.86762 -0.33594,-0.20136 -0.31184,-0.19641 -0.25945,-0.0657 0.47399,0.91634 -0.85566,-1.09304 -0.87728,-1.09797 -0.72429,-0.78075 1.15336,1.50643 1.0752,1.39548 0.57461,0.65993 0.46899,0.73555 -0.0815,0.24162 -0.18875,0.0608 -0.3268,-0.21696 -0.26443,-0.0707 -0.52637,-0.33778 -0.48897,-0.35257 0.46483,0.72569 0.40745,0.19641 0.54051,0.50872 0.39665,0.21697 0.30186,0.0509 0.18875,-0.0551 0.48896,0.49886 0.24532,0.0953 0.47897,0.52433 0.35591,0.21123 0.39332,0.38297 0.39832,0.36819 0.29104,0.23668 0.36672,0.37723 0.0715,-0.0657 0.57958,0.87196 0.31184,0.41832 0.3218,0.38791 -0.0765,-0.21121 -0.15467,-0.34764 -0.18379,-0.35257 0.63364,1.01743 0.0815,0.10602 0.34591,0.58432 -5.7543,-7.85017 z m -20.69651,-8.23644 0.65775,-0.12081 0.76004,0.28764 0.42243,-0.36245 -0.01,-0.74047 -0.21453,-0.94675 -0.60122,-1.19413 -0.19291,-0.81609 -0.83655,-1.11276 -0.84653,-1.10373 -0.85566,-1.09305 -0.82656,-1.25412 -0.27439,-0.81115 -0.5214,-1.04291 -0.55548,-0.86704 0.38834,-0.1356 -0.56047,-1.03305 0.5347,-0.0353 -0.36673,-0.655 0.0358,-0.489 -0.5347,-0.74047 -0.15883,-0.58927 -0.7035,-0.97716 -0.71763,-0.97223 -0.43824,-0.81115 -0.73926,-0.95744 -1.23901,-1.22454 -0.99868,-0.99278 -0.71929,-0.45858 -0.36256,0.0452 -0.63198,-0.15614 -0.0715,0.20135 0.18378,0.73636 -0.005,0.48816 -0.17878,0.2367 -0.35091,0.33285 -0.0516,0.48323 0.2661,0.63939 -0.0358,0.32298 0.01,0.4479 -0.474,0.0403 0.27608,0.47831 0.64613,0.93689 0.23532,0.65007 0.91139,0.99278 0.55048,0.82102 0.77001,0.75526 0.72428,0.93196 -0.28605,0.2219 -1.00368,-0.69035 -0.12805,0.30738 0.0565,0.69034 -1.18247,-1.05277 -0.83655,-1.1588 -0.13803,0.58433 0.77002,1.04291 -0.0599,0.83088 -0.88229,-0.71007 0.41246,0.95744 0.35591,0.86622 1.05606,0.81608 0.98455,0.98703 0.68854,1.06263 1.03944,0.43804 0.83655,0.65993 0.62034,0.95251 0.91303,0.91717 0.87729,0.49885 1.11095,0.7602 0.50059,1.02319 1.09598,0.76595 0.89979,1.09389 z m -11.56526,-14.52432 0.12141,-0.30737 0.51472,-0.0304 -0.0258,-0.55885 -0.81493,-1.0125 -0.47896,-0.85143 -0.36256,-0.86621 -1.40201,-1.07332 -1.31384,-1.09304 -0.0715,0.31229 -0.32181,0.12574 -0.4241,-0.70021 -1.1966,-1.09304 -0.68352,-0.86621 -0.0665,0.31229 0.67439,0.86622 0.89642,1.23933 1.32052,1.35028 0.77002,1.13331 1.04444,1.17933 1.05109,0.9369 0.76914,0.9969 z m -9.37491,-16.13676 0.62698,0.2523 -0.1738,-0.42324 0.51472,-0.0698 0.61202,0.25641 0.77,0.33777 0.39333,-0.15121 0.20789,-0.23176 -0.10227,-0.36736 0.28107,-0.11095 0.50058,0.12081 0.0408,-0.33285 -0.53136,-0.65993 0.84152,0.76595 1.01034,0.75034 1.07019,0.69034 0.65775,0.41832 0.57461,0.59911 0.86731,0.44791 0.69353,0.35257 0.69353,0.38297 -0.45486,-0.56871 -0.8199,-0.87691 0.15715,0.0156 -0.47897,-0.63446 -0.61701,-0.65994 -1.53838,-1.36013 -1.42279,-1.20892 -1.05108,-0.95745 -0.63199,-0.42324 -0.59623,-0.26217 -1.02031,-0.59418 -1.28476,-0.83171 0.50475,0.489 -0.39832,-0.13067 -0.78915,-0.44873 1.12093,0.99772 -0.41245,-0.16108 -1.18247,-0.73061 -0.60121,-0.63939 -1.01032,-0.87691 -1.41115,-0.99771 0.10727,0.29257 0.0599,0.2819 -0.30518,0.0255 1.11096,0.9221 1.02947,0.67473 0.57626,0.21121 -0.35259,0.0551 -0.57461,-0.19642 -1.18414,-0.74048 -0.18378,0.0403 0.94382,0.86622 0.0973,0.40845 -0.65774,-0.14629 -0.32681,0.19642 0.47399,0.63446 -0.55547,-0.27203 -0.88228,-0.86128 -0.52473,-0.58433 -0.56712,-0.005 -1.36625,-0.93689 -1.16749,-0.9821 -0.34592,-0.56953 -0.95795,-0.76595 -0.81494,-0.70514 0.0241,0.26217 -0.61534,-0.12574 -0.6694,-0.0756 -0.0649,0.38297 0.16216,0.52927 0.65277,0.59912 0.85068,0.79636 0.48397,0.55884 1.73297,1.15879 0.97958,0.88183 1.03443,0.83664 0.37671,0.0551 0.76503,0.68458 0.92718,0.53913 0.49561,0.75526 1.08517,0.60981 1.34628,0.79061 1.19084,0.75033 z m -16.10304,-14.4635 0.81076,0.25642 0.15883,-0.0551 0.92718,0.3123 -1.06022,-0.77581 -1.0752,-0.76595 0.005,-0.0962 -1.35128,-0.84649 -1.71216,-0.89169 -0.77001,-0.23176 -0.80577,-0.49392 -0.9222,-0.46352 0.0241,0.21697 0.14303,0.36242 -0.39167,-0.0953 -1.18911,-0.51364 -1.05858,-0.47338 1.45189,0.79636 0.11725,0.20135 1.31551,0.78074 0.53635,0.13067 0.24864,0.29175 1.05109,0.4438 0.77002,0.54899 0.65277,0.40845 0.81077,0.28764 1.31301,0.66486 z m -90.81472,-27.12389 -1.80946,-0.10601 -1.48349,0.0551 -1.30971,0.0707 -0.62201,0.19642 -1.42776,0.16108 -1.57995,0.11588 -0.91222,0.17669 -1.18245,0.28189 -0.69269,0.27203 -0.0457,0.25641 -0.18878,0.32216 -0.34175,0.30737 0.78498,0.0551 0.39251,-0.17094 0.0815,-0.18656 0.54051,-0.25641 0.53552,-0.24655 0.55048,-0.22683 1.05525,-0.23669 1.05523,-0.21696 0.77501,-0.16108 0.94882,-0.12081 0.77999,-0.14136 0.81077,-0.13067 1.47267,-0.0304 1.81277,-0.0394 z m 81.99111,51.28095 0.64778,-0.41338 0.96792,-0.12081 1.01533,0.0657 -0.18875,-0.4438 -0.77001,-0.40845 -0.34759,-0.78568 -1.02282,-0.51364 -0.86731,-0.16601 -0.74423,0.17587 -0.1214,0.59912 -0.49062,0.29257 0.28107,0.68048 0.90142,0.72487 0.73921,0.31311 z m -3.80269,-4.87184 0.48896,-0.23176 0.0973,-0.59911 1.06523,0.16107 -0.2744,-0.50379 -0.64777,-0.4783 -0.87728,-0.12081 -0.41746,0.32709 -0.72928,0.12574 -1.14171,-0.21614 -0.36256,0.46844 -0.0566,0.65994 0.50476,-0.22683 -0.0408,-0.45365 0.86731,0.11588 0.33594,0.63938 1.18828,0.33285 z" />
    <path
       sodipodi:type="arc"
       style="fill:none;stroke:#000000;stroke-width:8.19999981;stroke-linecap:round;stroke-linejoin:round;stroke-miterlimit:10;stroke-opacity:1;stroke-dasharray:none"
       id="path4565"
       sodipodi:cx="294.28571"
       sodipodi:cy="257.71429"
       sodipodi:rx="178.57143"
       sodipodi:ry="182.85715"
       d="M 472.76862,263.47089 C 469.66385,364.41005 387.23742,443.66009 288.66403,440.48081 190.09063,437.30152 112.69802,352.89685 115.80279,251.9577 118.90756,151.01854 201.33399,71.768501 299.90738,74.947783 396.72633,78.070479 473.45911,159.6674 472.85364,258.85723"
       transform="matrix(1.0120428,0,0,0.98441698,-41.401151,535.80671)"
       sodipodi:start="0.031486603"
       sodipodi:end="6.2894358"
       sodipodi:open="true" />
  </g>
</svg>
