<?xml version="1.0" encoding="UTF-8" standalone="no"?>
<!-- Created with Inkscape (http://www.inkscape.org/) -->

<svg
   xmlns:dc="http://purl.org/dc/elements/1.1/"
   xmlns:cc="http://creativecommons.org/ns#"
   xmlns:rdf="http://www.w3.org/1999/02/22-rdf-syntax-ns#"
   xmlns:svg="http://www.w3.org/2000/svg"
   xmlns="http://www.w3.org/2000/svg"
   xmlns:xlink="http://www.w3.org/1999/xlink"
   xmlns:sodipodi="http://sodipodi.sourceforge.net/DTD/sodipodi-0.dtd"
   xmlns:inkscape="http://www.inkscape.org/namespaces/inkscape"
   width="1024"
   height="500"
   id="svg2"
   version="1.1"
   inkscape:version="0.48.2 r9819"
   sodipodi:docname="market_recommended_picture.svg"
   inkscape:export-filename="/home/o2genum/projects/android/HowToSay/etc/png/market_recommended_picture.png"
   inkscape:export-xdpi="90"
   inkscape:export-ydpi="90">
  <defs
     id="defs4">
    <filter
       height="1.5505441"
       y="-0.2752721"
       width="1.3943673"
       x="-0.19718365"
       id="filter3996"
       inkscape:collect="always"
       color-interpolation-filters="sRGB">
      <feGaussianBlur
         id="feGaussianBlur3998"
         stdDeviation="31.093156"
         inkscape:collect="always" />
    </filter>
    <filter
       height="2.5363669"
       y="-0.76818341"
       width="2.2555649"
       x="-0.62778246"
       id="filter3992"
       inkscape:collect="always"
       color-interpolation-filters="sRGB">
      <feGaussianBlur
         id="feGaussianBlur3994"
         stdDeviation="31.093156"
         inkscape:collect="always" />
    </filter>
    <filter
       height="1.4444767"
       y="-0.22223833"
       width="1.3539666"
       x="-0.17698331"
       id="filter3988"
       inkscape:collect="always"
       color-interpolation-filters="sRGB">
      <feGaussianBlur
         id="feGaussianBlur3990"
         stdDeviation="31.093156"
         inkscape:collect="always" />
    </filter>
    <filter
       height="1.8895237"
       y="-0.4447619"
       width="1.6371861"
       x="-0.31859303"
       id="filter3984"
       inkscape:collect="always"
       color-interpolation-filters="sRGB">
      <feGaussianBlur
         id="feGaussianBlur3986"
         stdDeviation="31.093156"
         inkscape:collect="always" />
    </filter>
    <linearGradient
       gradientUnits="userSpaceOnUse"
       y2="781.86743"
       x2="829.04285"
       y1="781.86743"
       x1="450.59579"
       id="linearGradient3822"
       xlink:href="#linearGradient3810"
       inkscape:collect="always" />
    <linearGradient
       gradientUnits="userSpaceOnUse"
       y2="750.82416"
       x2="768.2934"
       y1="750.82416"
       x1="493.02771"
       id="linearGradient3816"
       xlink:href="#linearGradient3810"
       inkscape:collect="always" />
    <linearGradient
       id="linearGradient3632-4-3">
      <stop
         id="stop3634-9-2"
         offset="0"
         style="stop-color:#ffffff;stop-opacity:1;" />
      <stop
         id="stop3636-3-2"
         offset="1"
         style="stop-color:#967dff;stop-opacity:1;" />
    </linearGradient>
    <inkscape:perspective
       sodipodi:type="inkscape:persp3d"
       inkscape:vp_x="0 : 0.5 : 1"
       inkscape:vp_y="0 : 1000 : 0"
       inkscape:vp_z="1 : 0.5 : 1"
       inkscape:persp3d-origin="0.5 : 0.33333333 : 1"
       id="perspective3763" />
    <linearGradient
       y2="1080.3441"
       x2="227.14287"
       y1="763.23517"
       x1="226"
       gradientTransform="matrix(1.0460749,0,0,1.3504796,-9.938029,-211.3426)"
       gradientUnits="userSpaceOnUse"
       id="linearGradient3753"
       xlink:href="#linearGradient3632-4"
       inkscape:collect="always" />
    <filter
       height="1.2445847"
       y="-0.12229233"
       width="1.1752015"
       x="-0.087600768"
       id="filter3741"
       inkscape:collect="always"
       color-interpolation-filters="sRGB">
      <feGaussianBlur
         id="feGaussianBlur3743"
         stdDeviation="8.549416"
         inkscape:collect="always" />
    </filter>
    <linearGradient
       inkscape:collect="always"
       xlink:href="#linearGradient3632-4"
       id="linearGradient3698"
       gradientUnits="userSpaceOnUse"
       x1="226"
       y1="763.23517"
       x2="227.14287"
       y2="1080.3441"
       gradientTransform="translate(1.1428598,14.633178)" />
    <linearGradient
       id="linearGradient3632-4">
      <stop
         id="stop3634-9"
         offset="0"
         style="stop-color:#ffffff;stop-opacity:1;" />
      <stop
         id="stop3636-3"
         offset="1"
         style="stop-color:#967dff;stop-opacity:1;" />
    </linearGradient>
    <linearGradient
       gradientUnits="userSpaceOnUse"
       y2="1080.3441"
       x2="227.14287"
       y1="763.23517"
       x1="226"
       id="linearGradient3638-0"
       xlink:href="#linearGradient3632-4"
       inkscape:collect="always" />
    <inkscape:perspective
       sodipodi:type="inkscape:persp3d"
       inkscape:vp_x="0 : 0.5 : 1"
       inkscape:vp_y="0 : 1000 : 0"
       inkscape:vp_z="1 : 0.5 : 1"
       inkscape:persp3d-origin="0.5 : 0.33333333 : 1"
       id="perspective3686" />
    <linearGradient
       gradientUnits="userSpaceOnUse"
       y2="674.39557"
       x2="252.80344"
       y1="707.25269"
       x1="135.68918"
       id="linearGradient3676"
       xlink:href="#linearGradient3670"
       inkscape:collect="always" />
    <inkscape:perspective
       id="perspective10"
       inkscape:persp3d-origin="372.04724 : 350.78739 : 1"
       inkscape:vp_z="744.09448 : 526.18109 : 1"
       inkscape:vp_y="0 : 1000 : 0"
       inkscape:vp_x="0 : 526.18109 : 1"
       sodipodi:type="inkscape:persp3d" />
    <linearGradient
       id="linearGradient3592">
      <stop
         id="stop3594"
         offset="0"
         style="stop-color:#ffffff;stop-opacity:1;" />
      <stop
         id="stop3596"
         offset="1"
         style="stop-color:#000000;stop-opacity:0;" />
    </linearGradient>
    <linearGradient
       id="linearGradient3632">
      <stop
         id="stop3634"
         offset="0"
         style="stop-color:#ffffff;stop-opacity:1;" />
      <stop
         id="stop3636"
         offset="1"
         style="stop-color:#967dff;stop-opacity:1;" />
    </linearGradient>
    <linearGradient
       id="linearGradient3670"
       inkscape:collect="always">
      <stop
         id="stop3672"
         offset="0"
         style="stop-color:#000000;stop-opacity:1;" />
      <stop
         id="stop3674"
         offset="1"
         style="stop-color:#000000;stop-opacity:0" />
    </linearGradient>
    <linearGradient
       id="linearGradient3810"
       inkscape:collect="always">
      <stop
         id="stop3812"
         offset="0"
         style="stop-color:#000000;stop-opacity:1;" />
      <stop
         id="stop3814"
         offset="1"
         style="stop-color:#000000;stop-opacity:0;" />
    </linearGradient>
    <filter
       inkscape:collect="always"
       id="filter4844"
       x="-0.27330742"
       width="1.5466148"
       y="-0.60821816"
       height="2.2164363">
      <feGaussianBlur
         inkscape:collect="always"
         stdDeviation="98.522095"
         id="feGaussianBlur4846" />
    </filter>
  </defs>
  <sodipodi:namedview
     id="base"
     pagecolor="#000000"
     bordercolor="#666666"
     borderopacity="1.0"
     inkscape:pageopacity="1"
     inkscape:pageshadow="2"
     inkscape:zoom="0.49497475"
     inkscape:cx="401.67292"
     inkscape:cy="144.46309"
     inkscape:document-units="px"
     inkscape:current-layer="layer1"
     showgrid="false"
     inkscape:window-width="1366"
     inkscape:window-height="721"
     inkscape:window-x="0"
     inkscape:window-y="25"
     inkscape:window-maximized="1" />
  <metadata
     id="metadata7">
    <rdf:RDF>
      <cc:Work
         rdf:about="">
        <dc:format>image/svg+xml</dc:format>
        <dc:type
           rdf:resource="http://purl.org/dc/dcmitype/StillImage" />
        <dc:title></dc:title>
      </cc:Work>
    </rdf:RDF>
  </metadata>
  <g
     inkscape:label="Layer 1"
     inkscape:groupmode="layer"
     id="layer1"
     transform="translate(0,-552.36218)">
    <g
       transform="matrix(0.48793113,0,0,0.45542036,748.97315,415.15849)"
       id="layer1-9"
       inkscape:label="Layer 1">
      <text
         id="text3654-9"
         y="780.21942"
         x="120.71428"
         style="font-size:144px;font-style:normal;font-variant:normal;font-weight:normal;font-stretch:normal;writing-mode:lr-tb;fill:#000048;fill-opacity:1;stroke:none;filter:url(#filter3984);font-family:Liberation Sans;-inkscape-font-specification:Liberation Sans"
         xml:space="preserve"><tspan
           style="font-size:180px;font-style:normal;font-weight:normal;fill:#000048;fill-opacity:1;stroke:none;-inkscape-font-specification:Bitstream Charter"
           id="tspan3658-3"
           y="780.21942"
           x="120.71428"
           sodipodi:role="line">[æ]</tspan></text>
      <rect
         ry="50.174282"
         y="597.06757"
         x="44.893353"
         height="335.78174"
         width="421.64188"
         id="rect2818-1-4"
         style="fill:#000048;fill-opacity:1;stroke:none;filter:url(#filter3988)" />
      <path
         sodipodi:nodetypes="ccc"
         id="path3622-5-3"
         d="m 94.917321,1024.7997 c -2.88739,-95.57609 -1.67702,-95.47638 -1.67702,-95.47638 l 118.616789,-1.66653"
         style="fill:#000048;fill-opacity:1;stroke:none;filter:url(#filter3992)"
         inkscape:connector-curvature="0" />
      <text
         transform="matrix(0.99640269,0,0,1.0036103,-380,-17.142857)"
         id="text3654-0-5"
         y="857.05981"
         x="429.86285"
         style="font-size:232.6632843px;font-style:normal;font-variant:normal;font-weight:normal;font-stretch:normal;writing-mode:lr-tb;fill:#000048;fill-opacity:1;stroke:none;filter:url(#filter3996);font-family:Liberation Sans;-inkscape-font-specification:Liberation Sans"
         xml:space="preserve"><tspan
           style="font-size:290.82910156px;font-style:normal;font-weight:normal;fill:#000048;fill-opacity:1;stroke:none;-inkscape-font-specification:Bitstream Charter"
           id="tspan3658-0-9"
           y="857.05981"
           x="429.86285"
           sodipodi:role="line">[æ]</tspan></text>
      <text
         id="text3654"
         y="770.98645"
         x="122.85715"
         style="font-size:144px;font-style:normal;font-variant:normal;font-weight:normal;font-stretch:normal;writing-mode:lr-tb;fill:#000025;fill-opacity:1;stroke:none;filter:url(#filter3741);font-family:Liberation Sans;-inkscape-font-specification:Liberation Sans"
         xml:space="preserve"><tspan
           style="font-size:180px;font-style:normal;font-weight:normal;fill:#000025;fill-opacity:1;stroke:none;-inkscape-font-specification:Bitstream Charter"
           id="tspan3658"
           y="770.98645"
           x="122.85715"
           sodipodi:role="line">[æ]</tspan></text>
      <rect
         ry="50.174282"
         y="587.83466"
         x="47.036236"
         height="335.78174"
         width="421.64188"
         id="rect2818-1"
         style="fill:url(#linearGradient3753);fill-opacity:1;stroke:none" />
      <path
         sodipodi:nodetypes="ccc"
         id="path3622-5"
         d="M 97.060212,1015.5668 C 94.172823,919.99073 95.383185,920.09044 95.383185,920.09044 L 213.99998,918.42391"
         style="fill:#e2e2ff;fill-opacity:1;stroke:none"
         inkscape:connector-curvature="0" />
      <text
         inkscape:export-ydpi="12"
         inkscape:export-xdpi="12"
         transform="scale(0.9734394,1.0272853)"
         id="text3654-0"
         y="851.9137"
         x="76.879799"
         style="font-size:345.07977295px;font-style:normal;font-variant:normal;font-weight:normal;font-stretch:normal;writing-mode:lr-tb;fill:#6e32e8;fill-opacity:1;stroke:none;font-family:Liberation Sans;-inkscape-font-specification:Liberation Sans"
         xml:space="preserve"><tspan
           style="font-size:431.34970093px;font-style:normal;font-weight:normal;fill:#6e32e8;fill-opacity:1;stroke:none;-inkscape-font-specification:Bitstream Charter"
           id="tspan3658-0"
           y="851.9137"
           x="76.879799"
           sodipodi:role="line">æ</tspan></text>
    </g>
    <text
       xml:space="preserve"
       style="font-size:40px;font-style:normal;font-weight:normal;line-height:125%;letter-spacing:0px;word-spacing:0px;fill:#ffffff;fill-opacity:1;stroke:none;font-family:Sans"
       x="32.324886"
       y="961.44849"
       id="text4046"
       sodipodi:linespacing="125%"><tspan
         sodipodi:role="line"
         id="tspan4048"
         x="32.324886"
         y="961.44849"
         style="font-size:144px;font-style:normal;font-variant:normal;font-weight:normal;font-stretch:normal;font-family:Ubuntu;-inkscape-font-specification:Ubuntu">How to Say</tspan></text>
    <text
       xml:space="preserve"
       style="font-size:40px;font-style:normal;font-weight:normal;line-height:125%;letter-spacing:0px;word-spacing:0px;fill:#ffffff;fill-opacity:1;stroke:none;font-family:Sans"
       x="48.487324"
       y="634.15906"
       id="text4050"
       sodipodi:linespacing="125%"><tspan
         sodipodi:role="line"
         id="tspan4052"
         x="48.487324"
         y="634.15906">no ads</tspan><tspan
         sodipodi:role="line"
         x="48.487324"
         y="684.15906"
         id="tspan4054">no charge</tspan><tspan
         sodipodi:role="line"
         x="48.487324"
         y="734.15906"
         id="tspan4058">millions of pronounced words</tspan></text>
    <path
       style="fill:#ffffff;fill-opacity:1;stroke:#ffffff;stroke-width:13.19999980999999956;stroke-linecap:round;stroke-linejoin:miter;stroke-miterlimit:4;stroke-opacity:1;stroke-dasharray:none;filter:url(#filter4844)"
       id="path4062"
       d="m -107.45587,280.23832 c 14.27842,-9.77129 29.011448,-18.32729 44.471733,-26.37676 7.114683,-3.7043 21.458522,-7.39314 28.24963,-9.38662 33.0227018,-9.23177 66.977293,-15.49072 101.212015,-17.86326 6.807601,-0.47178 13.636377,-0.5597 20.454566,-0.83955 25.942386,-0.19679 51.882166,3.17482 76.242276,12.39776 18.16199,6.87629 24.86892,11.24313 42.44979,20.631 38.92982,21.64826 75.8299,46.6331 113.07269,70.99802 25.12605,16.37695 51.45776,30.85926 78.90238,42.98116 23.90689,10.55934 35.87202,14.51397 60.45501,23.55736 35.35957,12.10004 71.50728,22.09268 108.32375,28.64208 18.09992,3.21985 23.50434,3.58695 41.37101,5.66256 27.51579,3.2309 55.38075,2.68525 81.74372,-6.64268 4.20351,-1.48731 8.20129,-3.50219 12.30194,-5.25328 3.36112,-1.79891 13.46463,-7.15747 10.08337,-5.39672 -5.44446,2.83514 -10.46519,6.63328 -16.27321,8.62001 -2.43866,0.83418 4.03342,-3.22753 5.85099,-5.05492 5.65828,-5.68885 7.41746,-9.86952 10.08205,-17.22141 0.58579,-3.22013 1.34191,-6.4139 1.75737,-9.66041 2.46556,-19.26653 2.73038,-41.33728 1.42109,-60.7101 -0.31901,-4.72034 -0.96057,-9.41334 -1.44085,-14.12001 -1.99469,-15.45303 -6.74903,-30.30464 -14.13055,-44.01387 -4.02259,-7.47091 -6.23753,-10.40557 -11.00388,-17.54068 -13.03293,-19.76857 -26.25399,-39.66188 -36.54091,-61.05144 -1.94103,-4.03599 -3.61438,-8.19533 -5.42157,-12.293 -8.75134,-19.75455 -11.15863,-40.95216 -12.23255,-62.2715 -0.32058,-11.80392 -1.6729,-25.2367 5.40633,-35.560139 0.90094,-1.313818 2.08839,-2.406217 3.13259,-3.609326 12.32434,-8.798428 26.91386,-21.381727 42.97509,-19.209358 6.21535,0.84066 7.0765,1.882232 13.02463,4.721637 11.61714,7.03982 22.34146,16.374782 27.86577,29.10538 1.14025,2.627658 1.84743,5.422728 2.77115,8.134096 5.59252,21.68528 4.76083,44.25757 4.21134,66.44269 -0.69755,22.16979 -2.80222,44.29637 -7.26591,66.03749 -2.16174,10.52906 -3.5211,15.24877 -6.16447,25.40506 -1.9907,7.91317 -4.39734,15.70964 -6.94769,23.45693 -1.04075,3.1615 -2.6279,5.70906 -1.34782,8.90089 15.36761,2.80462 31.046,-0.57865 46.09119,-3.55945 0,0 -21.59168,16.35279 -21.59168,16.35279 l 0,0 c -14.78904,3.02629 -15.25155,3.68322 -28.99512,4.67478 -4.28264,0.30898 -12.49308,0.8273 -17.15872,-0.51572 -1.60584,-0.46224 -2.92935,-1.60887 -4.39403,-2.41331 -0.39188,-0.9899 -1.06218,-1.91113 -1.17565,-2.96972 -0.28926,-2.69874 1.35261,-5.86448 2.237,-8.16352 3.00646,-7.81546 5.87083,-15.68731 8.09921,-23.76865 2.86694,-9.98117 4.49637,-15.14904 6.82937,-25.49424 4.85889,-21.54576 7.14601,-43.55747 7.57077,-65.62905 -0.21652,-21.66565 0.0269,-43.71635 -5.09634,-64.90467 -0.88389,-2.55313 -1.57538,-5.18121 -2.65167,-7.65938 -5.29291,-12.186979 -15.42818,-21.173647 -26.86842,-27.454695 -5.7406,-2.192134 -6.83424,-3.202658 -12.70019,-3.447081 -1.7023,-0.07093 -3.41665,0.08399 -5.09917,0.352251 -1.51879,0.242156 -5.72349,2.052808 -4.46253,1.172265 9.69781,-6.772106 30.70428,-17.962096 17.38902,-10.814592 -1.16927,1.014945 -2.47732,1.889234 -3.5078,3.044835 -8.25734,9.259984 -7.12776,22.92949 -6.98246,34.381947 0.96437,21.02737 3.09436,42.0129 11.17416,61.69625 1.72518,4.07374 3.30523,8.21202 5.17552,12.2212 10.00054,21.43734 23.26194,41.2188 36.95873,60.42283 2.05701,3.00297 4.23599,5.92594 6.17105,9.00891 10.30582,16.41931 16.76199,34.83806 19.03397,54.08725 0.45433,4.78774 1.06971,9.56291 1.36298,14.36321 0.95017,15.55299 0.59804,31.25303 0.18999,46.8162 -0.12115,4.62071 -0.1538,9.24678 -0.44958,13.85961 -0.21153,3.29897 -0.71419,6.57281 -1.07129,9.85921 -0.66316,2.35201 -1.07732,4.78894 -1.98949,7.05602 -8.37458,20.81386 -37.8356,31.91185 -55.66418,41.45604 -4.08179,1.60089 -8.07534,3.44816 -12.24537,4.80267 -26.46237,8.59551 -54.23801,8.96067 -81.59724,5.21083 -6.52483,-0.86509 -13.07111,-1.58142 -19.57449,-2.59527 -43.78884,-6.82649 -86.56038,-19.08467 -128.35754,-33.6251 -48.92892,-17.9554 -98.61449,-36.04453 -142.03838,-65.47748 -36.79038,-24.54831 -72.74304,-50.50962 -111.76572,-71.51321 -17.89739,-8.93284 -24.78763,-13.10395 -43.12539,-19.63584 -24.28328,-8.64967 -49.898502,-12.02327 -75.603701,-11.73222 -6.788194,0.31687 -13.587008,0.45618 -20.364583,0.95062 -34.292148,2.50166 -68.318812,8.82829 -101.271663,18.58911 -5.836108,1.92648 -11.74908,3.63408 -17.508323,5.77945 -4.046416,1.50732 -15.001128,8.15025 -11.87882,5.16752 4.830267,-4.61435 11.413205,-6.9483 17.212841,-10.2631 3.103173,-1.77363 -5.944673,3.97095 -8.879665,6.01087 -0.856748,0.59547 -1.724296,1.17524 -2.586444,1.76287 0,0 -27.903022,10.91767 -27.903022,10.91767 z"
       inkscape:connector-curvature="0"
       transform="translate(0,552.36218)" />
    <text
       xml:space="preserve"
       style="font-size:40px;font-style:normal;font-weight:normal;line-height:125%;letter-spacing:0px;word-spacing:0px;fill:#ffffff;fill-opacity:1;stroke:none;font-family:Sans"
       x="44.446709"
       y="1018.0171"
       id="text4872"
       sodipodi:linespacing="125%"><tspan
         sodipodi:role="line"
         id="tspan4874"
         x="44.446709"
         y="1018.0171">[prəˌnʌnsɪ'eɪʃn gaɪd]</tspan></text>
  </g>
</svg>
