<?xml version="1.0"?><svg width="640" height="480" xmlns="http://www.w3.org/2000/svg">
 <title>Black and white globe</title>
 <g>
  <title>Layer 1</title>
  <switch>
   <g>
    <path stroke-miterlimit="10" stroke="#000000" id="water" fill="#FFFFFF" d="m531.657959,234.154999c0,120.123016 -97.376953,217.5 -217.502991,217.5c-120.123978,0 -217.499985,-97.376984 -217.499985,-217.5c0,-120.126999 97.376007,-217.507999 217.499985,-217.507999c120.126038,0 217.502991,97.381001 217.502991,217.507999z"/>
    <path stroke-width="5" stroke-miterlimit="10" stroke="#000000" id="land" fill="#000000" d="m532.098022,234.095001c0,120.399017 -97.601013,218 -218.002014,218c-120.39801,0 -218.000015,-97.600983 -218.000015,-218c0,-120.397003 97.602005,-218.000002 218.000015,-218.000002c120.401001,0 218.002014,97.601999 218.002014,218.000002zm-175.241028,-154.500999l1.643005,-0.098l0.877014,-0.484001l1.925995,0.625l0.446991,-1.030006l-2.109009,-1.335999l-1.003998,0.877007l-1.153992,0.477997l-1.464996,0.264l-1.813995,0.178001l0.332001,-1.422005l-1.145996,-0.918991l-1.825989,-0.612991l-1.104034,0.023987l-0.030975,0.979996l-0.447021,0.810013l1.084015,0.931992l-0.146027,1.349007l1.238007,0.110001l-0.367004,0.741989l1.354004,0.55201l-0.600006,0.717003l0.207001,1.397003l0.074005,0.050011l1.496002,0.231995l2.38501,0.092003l1.838013,-0.497002l0.024994,-1.047997l0.992004,0.944l1.679993,0.09201l1.796997,-0.39801l1.894989,-0.839996l-1.863007,-0.459999l-1.889008,-0.68l-2.01001,-0.698997l-1.453003,-0.183998l-0.861969,-0.73703zm80.365997,34.953995l1.372986,0.221001l0.109009,-0.949997l-0.992004,-0.625l-0.735992,0.362l0.246002,0.991997m-0.490997,-2.408997l1.588013,0.575996l0.292999,-0.772003l-0.403992,-1.152l-0.618988,0.073997l-0.679993,-1l-1.274994,-0.403999l0.55899,1.335999l0.537964,1.34201zm2.70401,1.586998l0.820007,-0.084999l-0.207001,-0.931999l-0.472992,-0.655998l-0.338013,0.625l0.197998,1.047997m-8.313019,-14.662994l1.324005,0.311996l-0.699005,-0.992996l-1.347992,-0.545006l-0.796997,-0.894997l0.582001,1.268997l0.937988,0.852005zm46.981018,62.544998l0.48999,-0.772003l0.76001,-0.153l-0.742004,-1.660995l-0.899994,0.404007l0.391998,2.181992m52.422974,80.572998l0.123047,-0.453003l-0.008057,-1.350006l-0.140991,0.209l0.026001,1.594009m-212.673981,209.774994l-0.233002,-0.007996l0.484009,-0.018005l-0.882996,-0.006012l-1.171021,0.036987l-0.692017,0.018005m-22.72998,-222.504974l1.679993,0.770996l1.263,0.766998l0.583008,-1.557999l-1.557007,0.209l-1.968994,-0.188995m24.213013,222.167999l-0.502991,0.100006l-0.011993,0.061005l-0.466034,0.09201l1.600006,-0.011993l0.72403,-0.062012l-0.45401,-0.035004l0.975006,-0.079987l-0.22699,-0.054993l-1.637024,-0.009033zm46.140991,-96.730988l2.121002,-0.360992l0.868988,-0.932007l-0.085999,-1.563995l-2.425995,0.670013l0.636993,0.178009l0.06601,1.278992l-1.181,0.72998zm-27.167999,-4.230011l1.243988,0.804993m-51.509979,-33.104004l0.386017,0.632996l-0.380005,0.421997l0.765991,0.214996l1.177002,-0.238007l-0.471985,-1.061005l-0.735016,-0.639008l-0.742004,0.66803m76.208008,16.416016l0.360992,1.049011l0.546997,-0.932007l0.889008,-0.145996l-0.667999,-0.730011l-0.221008,0.877014l-0.90799,-0.118011zm2.690979,4.285004l1.299011,0.925995m-47.01001,-17.279999l1.776978,-0.036987l0.58902,-1.44101l-0.595001,0.882996l-1.177002,-0.286987l-0.593994,0.881989m-14.277008,-19.817993l-0.423004,-0.735992l-1.02298,-0.042999l-1.612,0.545013l-0.998993,-0.770996m5.723999,2.862976l0.71701,-1.785004l-1.569031,-1.496002m4.818024,8.024994l0.013,-1.643005l-2.048004,-1.360992m3.628998,3.020996l1.274994,1.790985m-0.005981,1.778015l1.648987,2.838013m2.218994,2.341003l1.299988,-1.317993l-1.765991,-0.894989m4.229004,1.378967l1.415985,0.281006m4.495026,2.152985l-2.244019,-0.71701l-1.292999,0.85199m-32.53299,-11.033966l1.809021,-0.28299m18.652985,-37.404022l1.311981,-0.630981l0.503021,-1.231995m4.192993,-18.924011l1.931,-0.373001l1.899994,-0.350006l1.899994,-1.011993l-0.968994,-0.613007l-1.415985,0.686005l-1.435028,0.343994l-1.690979,0.369003l-0.220001,0.949005m-13.462006,-59.712997l1.244995,-0.227005l-1.507996,1.447006l1.238007,0.072998l0.76001,-0.901001l-0.098022,1.569l0.656006,-2.139999l-0.466003,-0.955994l-1.826996,1.134995zm-5.442993,11.837997l1.263,0.748001l1.48999,0.716995l-0.447968,-1.582001l-0.925018,-0.410995l-1.380005,0.528zm10.156982,-74.118011l-0.471985,1.072998l0.201996,1.496017l1.440002,0.593994l1.152008,-0.453995l1.759979,0.422989l0.207977,-1.00499l-0.317993,-1.386017l-1.127991,-0.69899l-1.496002,-0.233002l-1.347992,0.190994m-7.110992,-21.632996l0.393005,1.018005l-0.031006,1.274994l-0.753998,0.975006l-0.294006,1.421989l0.570007,1.318001l2.06601,0.411003l1.194977,-0.969009l0.980011,-1.361l1.128021,-0.64399l0.269989,-1.170998l-1.078979,-0.544998l0.661987,-1.232002l-0.311981,-0.846001l-1.30603,-0.484001l-0.336975,-1.029999l0.104004,-1.416l-0.871002,-0.195999l-0.638031,1.300003l-1.169983,0.851997l-0.576019,1.322998zm-2.911987,-0.508995l0.907013,0.785004l-0.085999,-1.433998l-0.821014,0.648994m-1.581024,7.098999l1.128021,0.987l1.421997,0.753998l0.912994,-0.527l0.123016,-0.741997l-1.863007,-0.546005l-1.723022,0.074005m-6.319977,-2.207001l-0.681,1.496002l0.796997,0.686996l0.208008,-1.182999l0.471985,-0.961998l-0.79599,-0.038002m-4.039001,7.674995l1.016998,0.367996l0.042999,-1.232002l-1.059998,0.864006m-0.006989,-11.836998l1.182983,0.454002l0.337006,0.673996l0.968994,0.374016l0.803009,-0.28801l-0.71701,-1.103996l-1.545013,-0.514999l-1.029968,0.404991m-1.845032,0.233002l-0.115967,0.809998l0.587982,0.147003l0.673981,-0.926003l-1.145996,-0.030998m0.785034,1.134003l-0.552002,0.987l0.790985,0.778l1.605988,-0.135002l1.072998,-1.170998l-0.71698,-0.324989l-1.078979,0.011993l-1.122009,-0.146004zm-9.21402,3.162994l0.423004,0.723l0.975006,-0.501999l1.183014,-0.828011l-1.367004,0.062004l-1.21402,0.545006m-70.544006,-47.635994l-2.470001,1.421997m-10.481995,9.532005l-0.845993,0.766991l-0.123016,0.557999l0.906998,-0.894997l0.062012,-0.429993m-10.537994,16.115997l0.453995,0.164993l0.630997,-0.845993l-1.084991,0.681zm-0.330994,1.783997l-0.042999,0.863998l0.692993,-0.894997l-0.649994,0.030998zm0.281982,2.892998l0.073013,0.69899l0.680984,-0.068001m-0.348999,7.669014l1.146011,0.741997l0.447006,0.288002l0.759995,-0.367996l-0.177994,-0.686996l-2.175018,0.024994zm1.557007,1.562996l0.45401,0.815002l0.576004,0.619003l0.918976,-0.459999l0.055008,-1.189003l-1.018005,0.501999l-0.985992,-0.287003zm34.070007,-18.285995l-1.152008,0.306l0.123001,1.115997l-1.299011,1.453003l0.71701,0.949997l0.434998,-1.292999l0.949997,-1.047997l0.226013,-1.484001zm-12.339005,9.237999l-0.863998,1.109001l-0.330994,1.004997l0.544983,0.686989l0.820999,-0.330994l0.281998,-0.883003l-0.233002,-0.791l-0.219986,-0.79599zm-7.742996,22.073997l-1.287994,2.023003l1.047989,0.472l1.177002,-0.147003l0.901001,0.846001l0.918991,-0.993004l0.074005,-0.871002l1.188995,0.803001l0.601013,-1.060989l-1.391998,-0.393005l-1.311996,-0.318001l-1.917007,-0.361zm181.717987,-10.107994l-0.631012,-1.447006m-19.143982,-1.077995l1.218994,0.851997l0.343994,-0.630997l-1.562988,-0.221001zm138.746002,10.972l-0.550995,-0.853004l-0.325989,-0.458984l-0.238007,-0.276016l0.109009,0.282005l0.312012,0.625l-0.403992,-0.446999l-0.527008,-0.619003l-0.335999,-0.250999l-0.110992,0.067001l-0.372986,-0.227005m-22.590057,-30.213997l0.496002,0.551003l-1.304993,-1.397003l-1.11499,-1.158997l-1.421997,-1.445999l-0.209015,-0.246002l-0.221008,-0.245003l-1.054993,-1.065994m-74.576996,-48.164005l-0.471008,-0.325001l-0.117004,-0.152996l-1.43399,-0.355003l-0.277008,0.006001l-1.557007,-0.582001l-1.304993,-0.436001l-2.109009,-0.783998l-1.704987,-0.710999l-1.36499,-0.454l-1.246002,-0.540001l-1.868988,-0.636999l-1.582001,-0.436001l1.178009,0.405001l1.188995,0.362l1.054993,0.411001l1.274994,0.434999l1.040985,0.423l1.613007,0.65l2.003998,0.759996l1.018005,0.454002l1.770996,0.601002l1.481995,0.526997l1.411011,0.379002m-179.834,8.836002l-0.466995,0.211998l-0.552017,0.441002l-1.378998,0.771999l-0.815002,0.594997l-0.630997,0.497002l1.06601,-0.687l0.422974,-0.134998l0.815018,-0.403999l0.166,0.158997l0.820999,-0.655998l1.195999,-0.655998l1.539001,-0.797005l1.783997,-0.839996l1.115997,-0.497002l1.416,-0.557999l1.416,-0.594002l0.497009,-0.387001l-1.343018,0.472l-0.496002,0.080002l-0.330994,0.037003l0.343002,-0.27l-0.693008,0.244999l-5.890976,2.971001zm4.472992,-2.522003m2.298996,-1.280998m1.244003,-0.490997m-10.469986,6.172997l-0.251022,0.282001l-0.269974,0.306m-1.367004,0.908001l-0.570007,0.576l-0.722992,0.704998l-0.502014,0.644001l0.502014,-0.527l0.949982,-0.57l0.386017,-0.478001l-0.042999,-0.349998zm-2.752014,2.721001l-0.472,0.392998l-0.281998,0.637001l0.600998,-0.576l0.153,-0.453999zm-1.863007,2.415997l-0.054993,0.392002m1.685013,2.635998l-0.60701,0.110001l-0.575989,0.797001l0.300003,0.208l0.575989,-0.098l-0.128006,-0.410999l0.435013,-0.606003zm40.053986,-19.468998l-1.029999,0.202999l-0.214005,0.545002l1.348999,-0.429001l-0.104996,-0.319zm-29.975998,27.418999l0.054993,1.220001l0.871002,-0.257999l0.110016,-0.656002l-1.036011,-0.306zm19.070007,-23.716l-1.207993,0.019001l-0.606995,-0.190002l-0.895004,-0.023998l-1.214005,0.325001l-0.906998,0.084999l-0.735992,-0.061001l-1.035995,0.116001l-0.876999,0.049l-0.570007,-0.030998l-0.227005,-0.129002l-0.772003,0.221001l-1.201004,0.282001l-0.367996,-0.098l-0.981003,0.146996l-0.177994,-0.166l-1.612,0.484001l0.300003,0.12299l-0.263992,0.294014l-1.02301,0.501995l-1.428009,0.595001l0.858017,-0.166012l0.987,-0.43499l0.728989,-0.183998l1.103012,-0.434998l0.913986,-0.264l0.699005,-0.019001l0.238998,0.189999l0.404007,0.042999l-0.201996,0.325001l-0.975006,0.545002l-1.575989,0.686996l1.078995,-0.250999l1.391998,-0.348999l1.391998,-0.324997l1.238007,-0.214005l1.244995,-0.195999l1.384995,-0.264l0.766998,0.104004l0.938004,0.030998l1.244995,-0.129002l1.091003,-0.019001l1.061005,-0.189999l0.595001,-0.417l-1.231995,0.177998l-0.018997,-0.275997l0.446976,-0.513zm11.199997,38.606998l-0.987,-1.029999l-1.061005,0.184006l0.201996,0.955994m0,-0.000999l-0.613007,0.728996l0.453995,1.416l1.490005,-0.802994l0.514999,-1.453003l-1.845993,0.111zm32.575027,-24.702999l-1.422028,0.128998l-1.850983,0.809002l0.748016,0.410999l1.998962,-0.042999l0.864014,-0.674l-0.337982,-0.632zm1.937958,0.846001l-0.833984,-0.386002l-0.39798,0.397999l0.539978,0.343002l0.691986,-0.355m-1.888977,4.529999l-1.770996,-0.287998l-2.273987,0.563999l-0.889008,0.625l0.765991,0.723999l1.612,-0.667999l1.574982,-0.785l0.981018,-0.172001zm101.807983,3.341l-1.472992,-0.931999l-1.218994,-0.098l-0.079987,1.065998l1.47699,0.374001l1.294983,-0.41m-37.515991,5.498001l-0.768005,-0.600998l-1.483002,-0.086006l-0.777985,-0.839996l-0.748016,-0.049004l-1.145996,0.687004l-0.447021,-0.57l-1.065979,-0.123001l-0.71698,0.863998l1.378967,0.074005l0.85202,-0.245003l1.526001,0.582001l1.145996,-0.380005l0.753998,0.668007l1.496002,0.018997m-1.243988,1.459l-0.337982,-0.907005l-1.373016,-0.465996l-0.208008,0.532997l-1.367004,0.117004l-1.018005,0.699005l1.66803,0.11599l1.102966,-0.527l0.644012,0.533005l0.889008,-0.098m2.035004,-0.299995l-0.828033,-0.60701l-0.231964,0.619003l1.059998,-0.011993m2.132996,3.542999l0.054993,-0.57l-0.44101,-0.509003l0.796997,-0.233002l-0.122986,-0.673996l-0.802979,-0.533005l-0.856995,0.299995l-1.25,-0.122993l-0.037018,0.417l1.524994,0.600998l-0.630981,0.201996l-0.154022,0.50901l1.919006,0.612999m63.290985,55.917999l0.589996,-0.417l-0.77301,-1.477997l-0.38501,1.220001l0.568024,0.674995m10.299011,-3.261002l-1.329987,-0.833l0.44101,0.760002m2.347961,4.381996l1.049011,-0.153m1.02301,8.96199l-0.631012,-2.064987l-1.324005,-1.453018l0.386993,1.833008l1.018005,0.778l0.550018,0.906998m5.480988,-42.04599l0.656006,-0.213997l-0.77301,-0.926003l-0.777008,-0.918999l-0.165985,1.036011l1.059998,1.022987m-1.901001,-1.311996l0.496002,0.054993l-0.507996,-0.924995l-0.675995,0.422997l0.687988,0.447006m59.731018,34.899002l0.60199,-0.417007l0.985992,0.993011l0.507996,0.127991l-0.152008,-0.882996l0.649994,0.110001l-0.877014,-1.373009l0.570007,-0.232994l-1.200989,-0.588005l-0.895996,-0.472l0,-0.889l-1.011993,-0.232994l-0.378998,0.575989l-0.214996,0.728996l0.570007,1.378998l0.846008,1.173019zm4.85498,-0.13501l-0.23999,-1.090988l-0.054993,-0.907005l0.214996,-0.367996l-0.436005,-1.519997l-0.479004,-1.526001l-0.64801,-0.705002l0.661987,1.403999l-0.540985,-0.477997l0.393005,1.312004l-0.028992,0.674995l0.453003,1.263l-0.332001,-0.159996l0.105011,1.121994l0.931976,0.978989zm-5.712982,-18.469994l0.527008,0.221001l-0.368988,-1.07299l-0.734009,-1.256004l-0.625,-0.736l-0.411987,-0.858002l-0.355011,-0.092003l-1.446991,-1.893997l0.925995,1.471001l0.687988,1.195l0.575989,1.012001l0.593994,0.815002l0.631012,1.194992zm1.158997,7.600998l0.582001,0.361l-0.661987,-1.066002l-0.932007,-1.029999l1.011993,1.735001m-5.658997,-2.199997l-0.593994,-0.441002l0.329987,0.649002m1.691986,1.280998l0.582001,0.447998m-44.828003,105.784996l1.317993,-0.214005m5.745026,-1.747986l1.286987,-1.065994m31.453003,14.33699l0.942993,0.503006l0.178009,-1.022995l-0.355011,-1.569l-0.264008,1.274994l-0.501984,0.813995zm2.304016,-1.084l0.606995,0.490005l0.453003,-0.944l-0.446991,-0.669006l-0.656006,0.343994l0.042999,0.779007zm2.483002,-3.432999l0.415985,-1.378998l-0.924011,-1.733994l0.378998,-0.951004l-0.274994,-0.912994l-0.252014,0.783997l0.14801,1.080002l0.11499,2.365005l0.393036,0.747986m-369.976013,-39.373001l0.250999,-0.061996m0.159004,0.570999l-0.123001,0.832993l0.080002,0.595001l0.483994,-0.630997l-0.091995,-0.692993l-0.348999,-0.104004m-0.073006,5.001999l-0.318001,1.134003l0.195999,1.115997l0.448006,-1.875l-0.326004,-0.375m-0.140999,3.819l0.208,1.048004m-0.182999,0.778992l-0.116997,0.975006l-0.263,0.656006l0.189995,0.440994l0.270004,0.251007l0.158997,-1.384995l-0.195999,-0.287994l-0.042999,-0.650024m364.385994,-90.375l-0.363007,-1.165001l-0.44101,-1.335999l-0.39801,-1.159004l-0.545013,-0.250999l-0.570007,-1.133995l-0.329987,0.570999l-0.054993,0.066002l0.446991,1.306l0.667999,1.618004l0.820007,1.091003l1.117004,1.574997l-0.349976,-1.182007zm-2.710999,32.96701l-0.286987,-1.355011l-0.785004,-1.201004l1.286987,1.079025l0.86499,0.551987l0.820007,1.085007l1.209015,1.416l-1.203003,0.07399l-0.863007,-0.544998l-1.042999,-1.104996m3.813995,4.505997l0.839996,0.759995l1.089996,0.417007l1.214996,1.134003l1.170013,1.324005l0.950989,-0.098007l-0.704987,-1.459l0.121002,-0.871002l-0.937988,-1.274994l-0.997986,-1.097l-1.031006,-0.932007l-1.035004,-0.741989l-1.15799,-0.080002l0.667999,1.740997l0.11499,0.871002l-0.305023,0.306992m8.244019,-1.956009l1.018005,0.195999l0.042999,-0.699005l0.813995,-0.716995l0.23999,-0.876007l0.765991,0.005997l0.188995,-1.274994l-0.76001,-1.054016l-0.753998,-0.362l-1.164001,-1.403976l-0.993988,-1.606018l0.411987,1.778l0.171997,1.759018l-0.031006,1.231995l-0.436005,0.520996l-0.049011,1.061005l0.534058,1.440002m-233.723999,237.028992l-0.287994,1.281006l1.207977,0.920013l-1.201996,0.410004l1.207977,0.674011l1.238037,-0.618988l-0.919006,-1.304993l-1.244995,-1.361053zm49.658997,-49.566986l1.188965,0.049011l1.177002,1.195007l1.520996,0.312012l1.202026,-0.546997l1.225983,0.338013l1.201996,0.019989l-0.606018,-1.165985l-1.477966,-0.575989l-1.802032,-0.350006l-1.802002,-0.329987l-1.52597,0.520996l-0.302979,0.533936zm-22.546021,-14.492004l2.299011,0.269989l0.667999,-1.11499l2.02298,0.214996l1.238037,-0.753998l1.201965,-0.768005l1.729004,0.484009l2.323029,0.479004l-1.778015,0.446991l1.115997,0.975006l1.740997,0.424011l2.636017,0.188995l1.127991,0.957001l1.471008,0.367004l1.746979,0.692993l1.770996,-0.19101l0.587982,0.584015l0.251007,1.47699l1.747009,1.221008l2.673004,0.085999l0.587982,1.195007l-1.225983,0.825989l-0.906982,0.834015l2.396973,0.074005l1.796021,-0.274994l1.789978,0.028992l1.790009,0.325989l1.790009,0.006012l1.182983,-0.589996l1.789978,-0.286987l-0.294006,-0.588013l-0.888977,0.011993l-1.184021,-1.140991l-1.78302,-0.312012l-1.213989,0.300995l0.330994,-1.453003l-1.496002,-0.295013l-1.770996,-0.34201l-1.759003,-1.188995l-1.477997,-0.632996l-1.43399,-0.924011l-1.740997,-0.945007l-1.747009,-0.636993l-1.759003,-0.09201l-1.151978,-1.257996l-1.416016,-0.64801l-1.447021,-0.699005l-1.740967,-0.122986l-1.716034,-0.735992l-1.740997,-0.145996l-1.764984,0.44101l-1.759003,0.117004l-1.752991,0.140991l-1.796021,0.686005l-1.201996,0.747986l-0.079987,1.152008l-1.777954,0.38501zm36.400024,14.191986l2.43399,1.097992l0.569,-0.589996l1.813995,-0.035004l1.520996,0.269989l1.514984,-0.355011l1.813995,0.243988l1.52002,1.631012l1.195007,-1.47699l-0.018005,-0.854004l1.789001,-0.667999l0.024994,0.846008l1.79599,-0.372986l2.065002,-0.710999l1.803009,-0.128998l1.225983,1.061005l1.171021,-1.527008l-1.569,-1.304993l-2.990997,-0.338013l1.434998,-0.954987l-2.071991,0.140991l-0.649017,-1.128998l-2.078003,-0.152008l-1.796997,-0.18399l-2.395996,0.109009l-1.171021,0.60199l-2.089996,-0.796997l-2.11499,0.054993l-1.171021,0.889008l1.790009,-0.036987l0.912994,1.140991l0.018982,1.13501l1.539032,1.390991l-1.507996,0.894989l-1.809021,0.042999l-1.520996,-0.545013l-1.809967,-0.255981l-1.187988,0.865997zm26.474976,-0.245972l1.52002,0.122986l1.490021,-0.429993l1.470978,-0.15799l0.846008,-0.950989l-1.225037,-0.71701l-2.071991,0.22699l-2.108978,0.209015l0.078979,1.696991zm-39.482971,-23.907013l0.244995,1.231995l-0.889008,0.856995l1.697998,1.527008l0.833984,1.80899l0.613007,-1.153992l-0.846008,-1.207001l0.029999,-1.207001l-0.826996,-1.820007l-0.857971,-0.036987zm37.055969,-93.893005l1.759033,0.716995l0.747986,0.852005l1.507996,0.393005l1.686005,0.085999l1.410004,-0.233002l-1.02298,-1.141006l-1.307007,-0.410995l-1.502014,-0.423004l-1.660004,-0.061996l-1.619019,0.222zm2.083008,11.848999l0.97998,0.826996l1.656006,0.723999l2.292999,0.619003l-0.196991,-1.244995l1.128998,-1.139999l-1.871002,0.600998l-1.488007,0.227005l-1.606995,-0.386002l-0.384979,-1.257004l-0.51001,1.029999m-43.300995,-57.044998l1.514008,-0.134995l1.770996,-1.373001l0.036987,-0.287994l-1.145996,-0.104004l-1.378967,0.483994l-0.797028,1.416zm6.386993,-0.037003l-0.336975,2.095993l0.686981,0.957001l0.871002,-1.490005l0.244995,-1.477997l-1.466003,-0.084991zm48.489014,50.339005l0.71701,1.490005l1.71701,-1.018005l2.139008,-0.110992l1.834015,-0.417007l1.825989,-0.434998l1.679993,-0.098007l0.307007,1.218994l-0.993988,1.227005l1.53299,-0.024002l0.742004,-2.158005l0.906006,-0.595001l1.292999,0.005997l-0.104004,2.005005l0.963013,-1.251007l0.410004,1.507996l1.436005,-0.404999l-0.13501,-1.942001l-0.122986,-1.942993l-1.097992,0.667999l0.067993,-1.998993l-0.692993,0.514999l-0.375,1.766006l-0.770996,-0.460007l0.06601,-1.324005l1.238007,-2.330002l-1.671997,0.791l-0.925995,-1.054993l0.722992,-1.856995l-1.329987,-0.300003l-1.557007,0.410995l-1.446991,0.729004l-1.703003,-0.912994l0.734009,-1.158997l-1.496002,-0.257004l-1.438995,1.630005l0.307007,-2.022995l0.453003,-1.397003l0.472992,-2.072006l0.06601,-1.973999l-1.11499,0.276001l-1.269989,1.281006l-0.446991,1.384995l-0.188995,1.679993l-0.53299,2.065994l-0.085999,2.279999l-0.77301,2.108002l-0.453003,1.729004l0.859009,0.128006l-0.950989,1.483994l-0.810181,1.13501zm-59.928009,-56.451004l2.218994,0.319l-0.18399,1.802002l1.605988,-0.085999l1.342987,-1.373001l1.152008,-1.072998l1.238007,0.128998l1.274994,1.022995l1.269012,1.300003l1.685974,-1.367004l-1.574982,-1.018005l-0.662018,-1.569l-1.072998,-1.287003l-1.697968,-1.391998l-1.34201,-1.630005l-0.208008,-1.826996l-1.789978,1.244995l-0.667999,1.421997l-0.662018,2.011002l0.006012,2.151993l-1.932007,1.219025m17.158997,-12.763l0.552002,1.770996l1.716003,-0.251007l0.987,-0.876999l0.244995,-1.477005l-0.710999,-1.158997l-1.649017,-0.018997l-1.139984,2.012009m-14.437012,-15.722992l0.785004,1.612l0.478027,1.833008l0.80899,1.563004l1.747009,1.440994l1.815002,0.22699l2.494965,0.815002l1.330017,-0.165985l1.820984,1.581985l1.141022,-0.526993l1.311981,-1.667007l0.681,1.472015l2.162994,1.776993l-0.501984,2.292999l1.618011,-1.141006l1.048004,1.740997l1.783966,1.121994l0.539032,1.740997l0.563995,1.464996l-0.950012,1.188995l-1.085022,1.507996l-1.250977,1.188995l1.440002,1.759995l-1.562012,1.231995l-2.11499,-0.005997l-2.360016,-0.662003l-0.317993,1.169998l-0.944,0.287994l-0.619019,1.447006l0.864014,1.544998l2.483002,0.067001l1.25,-0.882996l1.777985,0.294006l1.661011,0.882996l1.550995,0.576004l1.428009,0.852005l0.079987,1.520004l1.507996,1.128006l1.343018,0.546005l1.78299,0.472l0.669006,0.858002l1.710022,0.778l1.685974,0.466003l1.809021,0.110001l-0.208984,-1.483002l-1.47702,-1.091003l-1.612,-1.343002l-1.415985,-1.108994l-0.858002,-1.421997l2.059998,0.735992l1.703979,1.035995l2.010986,0.987l2.133026,-0.264008l0.013,-2.416l-1.502014,-1.335999l-0.428986,-1.766006l-1.263031,-1.042007l-1.937988,-1.306l-0.05899,-0.093002l-1.106018,-1.593002l0.074005,-2.403l2.800995,1.490005l1.121979,1.986008l2.054016,0.925995l0.171997,-1.839005l1.679993,-0.863998l0.061005,-1.496002l0.509003,-2.218994l-1.354004,-0.962006l-1.69101,-0.925995l-1.777985,-0.962006l-1.557007,-1.257004l-2.218994,0.251007l-2.054016,-1.287003l-0.214966,-1.735001l1.709991,-0.753998l-1.746979,-1.262985l0.35498,-1.496017l-1.279999,-1.617996l-1.907013,-0.999008l-2.010986,-1.912994l-1.458984,-0.796997l-1.894012,-0.227005l-0.029999,-1.697998l-0.399017,-1.109985l-1.623993,0.263992l-1.213989,-0.693008l-1.115021,-0.367996l-1.397003,1.054993l-1.336975,-0.07399l-1.263,0.932007l0.582977,-1.654999l-0.570007,-1.600006l0.540009,-1.477982l-0.429016,-0.871017l-1.354004,0.147003l-1.679993,0.932007l-1.53299,1.238007l-0.423004,1.648987l-0.386017,1.391998l0.128998,1.428009l-0.944,-1.263l0.203003,-1.416l0.201996,-1.379013l0.76001,-1.32399l0.80899,-0.845993l1.753021,-0.69899l-1.464996,-0.276016l-1.649017,-0.233002l-1.238007,0.656006l-1.496002,1.152008l-0.920013,1.280991l-0.85199,1.292999l-0.551941,1.923019zm-3.088959,-12.046005l0.924988,0.877007l1.306,0.85199l0.625,-1.68l-0.257019,-1.26899l-1.041992,-0.270004l-1.556976,1.489998m3.088959,-6.166l-0.552002,1.085007l0.429016,1.556984l1.66098,0.13501l0.649994,0.993004l-0.140991,1.361l-0.759979,1.263l-0.380005,1.625l1.716003,1.103996l1.752991,0.514999l1.625,0.417007l1.759003,0.232986l1.274994,-0.956993l1.372986,0.969002l1.833008,-0.422989l0.71701,-1.312004l0.121979,-1.280998l-1.557007,-0.931999l-1.397003,-0.127998l-1.563019,-0.502998l-1.942963,0.532997l-1.740997,-0.68l-1.02301,-1.122002l0.618988,-0.521004l-0.747986,-0.815002l-0.140991,-0.968002l-1.471008,-0.319l-0.772003,-1.103996l-1.342987,-0.725006zm9.072021,-12.560997l-0.220978,1.544998l0.729004,1.177002l1.661987,0.246002l1.292999,-0.258003l1.710022,0.153l1.838989,-0.276001l-1.230988,0.839996l-1.876038,0.362l-0.857971,0.600998l-1.25,-0.687004l-0.944031,1.612l0.876007,0.656013l-0.300018,1.398003l0.178009,1.231995l-1.110016,0.24501l-1.625,1.637001l1.361023,1.011002l-1.967987,0l-0.343018,1.288002l0.679993,0.667999l-1.061005,0.226997l-1.372986,0.748001l-0.380005,1.299004l1.445984,0.544998l2.225983,0.583l1.140015,-0.422989l1.134003,0.417l1.048004,-0.466011l0.380005,1.109001l1.881989,-0.69899l1.189026,-1.281006l-1.183014,-1.410004l1.378998,-1.004997l-0.201996,-1.097l1.733978,-0.214996l0.656036,-1.594002l0,-1.582001l0.691986,-1.574997l1.686005,-0.741997l0.858002,-1.544991l0.606995,-1.226006l1.085022,-1.25l1.104004,-1.593994l-0.136017,-0.76001l0.718018,-0.969002l0.466003,-0.858002l-0.196014,-0.649002l-0.962006,-0.244995l-0.895996,-0.638016l-1.359985,-0.208l-1.257019,-0.385994l-1.263,0.061996l-0.914001,0.318001l-1.071991,-0.221001l-1.856995,0.306999l-1.018005,0.944l-1.343018,0.619003l-0.987,0.484001l-0.158997,0.625l-1.220001,-0.196007l-1.192993,1.096992zm-12.645996,3.758003l-0.134979,0.66201l0.790985,0.931984l-1.091003,0.631004l0.123016,0.876999l1.145966,0.889l0.932037,0.331001l-0.074036,1.434998l1.116028,-0.226997l1.286987,0.213997l1.029999,0.183998l0.699005,-0.828003l0.029999,-0.828003l-1.011017,-1.471001l-0.729004,1.208l-0.882965,1.097l-0.644012,-0.374001l0.257019,-1.122002l0.630981,-1.170998l-0.411011,-1.245003l-0.998962,-0.362l-0.460022,-0.808998l-0.858002,-0.348999l-0.747009,0.326012zm-4.063995,7.796997l-0.166016,1.434998l-0.411011,1.073006l0.110016,1.53199l1.625,-0.166l-0.110016,1.967995l2.011017,0.650009l1.177002,-1.44001l0.459991,-1.330994l0.552002,-1.15799l-0.790985,-1.257004l-1.335999,-0.552002l-0.993011,0.64399l-0.771973,1.226006l-0.171997,-1.397003l-0.325012,-1.060997l-0.859009,-0.165993zm-13.927032,-6.821999l-0.391968,1.434998l0.863983,0.435005l0.619019,0.857994l1.593994,-0.349998l1.225983,-0.57l0.417023,1.122002l1.917969,-0.527l0.619019,-1.091003l1.299988,-0.221001l-0.171967,-1.121994l-1.263031,0.342995l-0.932007,-0.748001l-1.17099,-0.049004l-1.415985,0.140999l-1.674011,0.422997l-1.537018,-0.078987zm1.532013,5.528999l0.729004,0.974998l0.417023,0.914001l1.415985,-0.312004l0,1.336006l-1.428986,-0.012001l-0.123016,0.827995l0.822021,0.785011l1.122009,0.158989l1.397003,-0.33699l1.373993,-0.092003l1.612,0.943993l1.201965,0.227005l0.981018,-1.225998l1.02298,-1.047997l-0.765991,-0.889l-0.588013,-1.427994l0.539032,-1.520004l-1.059998,0.319l-1.257019,0.637001l0.362,0.760002l-0.76001,0.655998l-0.18399,1.182999l-1.397003,-0.974998l0.337006,-1.195l0.013,-0.981003l-0.540009,-1.299011l-0.85199,-0.704994l-1.281006,0.60701l-1.654999,0.863991l-1.45401,0.824997zm-13.915009,3.917l-0.036987,1.925003l-0.987,1.991997l1.765991,0.203003l1.220032,0.489998l2.053986,-0.778l2.02301,-1.514l2.016968,-0.123001l1.778015,-0.055l1.888,-0.098l-0.423004,-1.642998l0.251007,-1.612l-1.378998,-0.926003l-0.613007,-1.539001l-1.722992,-0.171997l-1.667023,-0.544998l-1.140015,1.795998l-1.605988,1.139999l-1.821014,0.784996l-1.600983,0.674004zm165.216003,292.125008l0.882996,-1.09201l1.85199,-1.574005l0.846008,-1.109009l1.838013,-1.625l0.627014,-1.040985l0.355011,-0.925995l0.582001,-1.054993l1.195007,-1.11499l0.335999,-0.963013l0.649994,-1.281006l0.834015,-1.38501l0.06601,-0.882996l0.295013,-1.011993l0.049011,-0.902008l0.515991,-1.15799l0.593994,-1.53299l1.661987,-1.481995l1.459015,-1.562012l1.531006,-1.932007l0.975006,-1.502014l1.203003,-1.64801l0.846008,-0.968994l1.610992,-1.570007l0.90799,-1.372986l1.390991,-1.671997l0.889008,-1.375l0.914001,-1.593994l0.899994,-1.610992l0.453003,-1.734009l-0.071991,-1.071991l-0.332001,-1.117004l-0.335999,-1.15799l-0.596008,-1.011993l-1.665985,0.55899l-1.496002,1.06601l-1.471008,0.606995l-0.925995,-0.28299l-1.459015,0.186005l-0.975006,-0.28299l-0.950989,-0.329987l-1.48999,-0.049011l-1.493988,-0.057007l-1.520996,-0.104004l-1.562012,0.765991l-1.588013,1.195007l-1.582001,0.747986l-1.562012,0.097992l-1.600006,0.725006l-1.588013,0.071991l-1.613007,0.503998l-1.64801,1.34201l-1.911987,1.207001l0.570007,-1.507996l-0.790985,-0.729004l-0.502014,-0.882996l-1.661987,1.11499l-0.545013,-0.667999l-2.22699,0.459015l-1.665985,0.19101l-1.937988,-0.140991l-1.960999,0.722992l-1.160004,0.839996l-1.152008,2.378998l-0.846008,-0.122986l0.596008,-1.312012l0.562012,-1.980011l-1.979004,0.264008l-1.71701,0.804993l-1.722992,0.360992l-1.459015,1.139008l-0.011993,1.545013l-0.575989,1.949005l-0.846008,-1.488007l-2.061005,1.299011l0.332001,-1.631012l0.562012,-1.514008l1.459015,-1.378998l1.140991,-1.256012l1.44101,-1.839996l0.25,-2.15799l-2.01001,0.436005l-0.631012,-1.674011l-1.195007,-1.519989l-0.057007,-1.64801l-1.789001,-0.890991l-1.18399,-0.367004l-1.789001,-0.429993l-1.515991,-0.557007l-1.789001,-0.221008l-1.502014,-0.054993l-1.18399,0.054993l-1.789001,0.006012l-1.790985,0.195007l-1.78299,0.454987l-1.777008,0.704987l-1.796997,0.43399l-2.096008,0.221008l-0.86499,-0.714996l-0.079987,-0.057007l-1.261993,-0.46701l-1.85199,-0.588013l-1.471008,0.553009l0.231995,-1.312012l-0.674011,-1.104004l-1.863007,-0.656006l-1.863007,-0.643005l-2.15799,-0.606995l-2.71701,0.985992l0.540985,-1.886993l-0.692993,-1.429993l-2.144989,-0.15799l-1.55899,-0.23999l-1.195007,0.44101l-1.304993,-1.109009l-1.257996,-0.846008l3.01001,-1.006012l-2.121002,0.332001l-2.450989,0.367004l-2.132996,0.300995l-1.78299,1.562012l-1.828003,0.768005l-2.149994,-0.024994l-1.570007,-0.317993l-0.656006,-0.71701l-1.519989,0.164001l-1.551025,0.411987l-2.151978,0.200989l-2.187988,0.446991l-0.619019,-0.985992l-0.373993,-1.299011l-1.537994,-0.667999l-1.864014,-0.117004l-1.561981,0.104004l-0.681,-2.096008l-1.502014,0.894989l0.619019,1.299011l-1.507996,0.877014l-1.557983,0.618988l-1.562012,0.582001l0.029999,1.85199l1.294006,1.753998l0.024017,1.795013l-2.207031,0.627014l-0.311981,-1.286987l-0.950012,-0.988007l0.920013,-1.593994l0.919006,-1.071991l-0.649017,-1.299011l-0.95697,-1.545013l1.856964,-0.618988l0.907013,-1.350006l-0.605988,-0.770996l-1.269012,-0.234009l-1.21402,0.847992l-0.919983,1.121002l-1.557007,0.55899l-1.22699,0.825989l-1.856995,0.834015l-2.507019,-0.221008l-0.932007,1.054993l-1.531982,-0.246002l-1.569,0.53299l-0.938019,1.036987l-0.307007,1.562012l0,1.557007l-1.580994,0.234009l-0.944,1.281006l-1.888,1.256012l-0.011993,2.286987l-1.575989,-1.55899l-1.231995,-1.078003l-1.231995,-1.054993l-1.569031,-1.078003l-1.575989,-0.350006l-1.526001,-0.570007l-1.875,-0.097992l-0.950012,0.968994l-1.881989,0.403992l-1.881989,0.367004l-2.218994,0.350006l-1.220032,-0.863007l-1.56897,-0.13501l-0.564026,-1.355011l-1.544983,-0.920013l-1.53302,-1.18399l-0.881989,-1.402008l-0.882996,-1.386993l-0.54599,-1.390991l0.63797,-1.264008l0.062012,-1.593994l0.691986,-1.795013l0.067017,-1.613007l0.074005,-1.881012l0.975006,-1.269989l0.098022,-2.464996l-0.595032,-0.625l-1.464966,-0.686005l-0.065002,-0.05899l-1.388,-1.497986l-1.507996,-0.449005l-1.171021,-0.44101l-1.820007,0.067993l-1.783997,-0.539001l-1.833008,0.307007l-1.80899,0l-2.046997,-0.846008l-2.164001,0.484009l-1.403992,-1.074005l-1.453003,-0.820007l1.856995,-0.785004l1.061005,-2.084015l0.127991,-1.674011l0.502991,-2.752014l0.772034,1.524994l1.018005,-1.545013l0.471985,-1.917999l0.416992,-1.660004l0.417023,-1.667999l0.735016,-1.631012l1.582001,-1.22699l0.116974,-1.421997l-0.820984,-0.71701l-1.729004,-0.269989l-1.428009,-0.51001l-1.746979,-0.011993l-1.783997,0.295013l-1.746979,-0.036987l-1.741028,-0.042999l-1.194977,0.367004l-0.515015,1.937988l-0.423004,1.38501l-0.705017,1.011993l-0.140991,1.428009l-1.200989,0.350006l-1.231995,0.613007l0.195984,0.902008l-2.06601,0.11499l0.054993,-0.539001l-2.003967,-0.747986l-2.084015,0.393005l-2.029007,-0.160004l-2.078003,0.049011l-1.128006,-0.281006l-0.992996,-1.390991l-1.625,-1.006012l-1.617996,-0.985992l-0.955994,-1.729004l-0.643997,-1.649994l-0.593994,-1.924011l-0.932007,-1.429993l-0.656006,-1.359009l-0.343002,-1.593994l0.735992,-0.968994l-1.453003,-1.643005l-0.276001,-1.877014l0.785004,-1.25l0.287994,-1.722992l0.294006,-1.734009l0.300003,-1.734009l0.852005,-1.582001l0.815002,-1.600006l1.061005,-1.238007l0.011993,-1.550995l0.319,-1.76001l-0.207993,-1.925995l0.619003,-1.686005l1.25,-0.877014l1.778,-0.729004l1.783997,-0.785004l1.617996,0.13501l1.188995,-0.625l1.220001,-0.625l-0.509003,-1.703003l1.128021,-0.313995l-0.257019,1.472992l1.716003,-0.51001l1.360992,0.036987l1.869995,0.140991l1.477997,0.937988l1.531982,0.675995l1.465027,-0.613007l1.409973,1.524994l0.080017,1.243988l1.557007,0.649994l1.899994,0.042999l1.17099,-0.372986l1.02301,0.484009l0.692993,1.053009l0.625,-0.519989l-1.457977,-1.484009l0.079987,-0.618988l0.876007,-0.436005l0.373993,-0.863007l-1.342987,-0.246002l-1.373993,0.110992l-1.042023,-0.502014l0.031006,-0.062012l1.005005,-1.372986l1.464996,1.207001l1.710022,-0.618988l1.335999,0.231995l1.562988,0.563995l0.906982,-0.777008l0.39801,1.329987l1.605988,0.25l1.643005,-0.085999l1.637024,-0.061005l0.975006,1.06601l1.557007,0.839996l0.41098,1.570007l1.654999,-0.085999l1.416016,-0.761993l1.648987,-0.104004l1.274994,1.355011l1.226013,2.268005l0.796967,0.403992l0.404022,1.877014l-0.360992,1.471008l-0.085999,1.231995l1.128021,-0.221008l-0.650024,1.757996l0.190033,1.257996l1.03598,1.292999l0.759979,1.588013l0.748016,1.868988l1.373016,1.300995l0.509003,1.545013l1.421967,-0.214996l0.882996,-0.515991l0.932007,-1.73999l0.392029,-2.104004l0.09198,-2.096008l-0.753998,-2.15799l-0.735992,-2.200989l0.054993,-1.200989l-1.036011,-1.906006l-0.435974,-1.868988l-0.71701,-1.894989l-0.190002,-1.863007l-0.147003,-1.863007l0.919006,-1.785004l0.907013,-1.78299l1.691986,-1.446991l1.648987,-0.820007l1.649017,-1.13501l1.104004,-1.175995l0.839996,-1.22699l1.612,-0.86499l1.335999,-0.243988l1.35498,-1.188995l1.318024,-1.231995l1.850983,-0.257996l0.796997,-0.925995l-1.557007,-0.028992l1.575012,-1.209015l1.02298,0.014008l0.540009,-0.934021l0.005981,-1.27298l-1.292999,-0.019989l-1.544983,-0.029022l1.306,-0.576019l1.018005,-0.325989l0.765991,0.350006l0.766998,1.243988l-0.766998,-1.243988l-0.22702,-1.587982l-0.508972,-1.25l-1.263031,-1.299011l0.019012,-1.246002l0.294006,-1.580017l-1.747009,-1.286987l1.489014,0.335999l-0.213989,-1.256012l-0.209015,-1.894989l0.497009,-1.243988l1.243988,-0.625l-0.520996,1.243988l-0.013,1.287018l-0.496002,1.544983l1.213013,0.661987l-0.245178,0.946136l0.992981,0.006012l-0.48999,1.243988l-0.53302,1.882996l0.76001,-0.295013l0.527008,-1.880981l0.998962,-1.582001l0.748016,-0.942993l-1.244019,-2.201019l-0.459991,-1.899963l0.968994,0.649963l0.735016,1.25l1.477966,-1.255981l0.950012,-1.899994l0.470978,-1.820007l0.006012,-0.085999l-0.962006,-0.632996l0.937988,-1.261993l1.429016,-0.975006l1.421997,-0.682007l1.428009,-0.037003l1.428986,-0.048996l1.404022,-0.705002l0.434998,-1.272995l0.747986,0.917999l1.140991,-0.705002l0.030029,0.645004l1.868988,-0.753998l-0.072998,-1.255997l0.056,0.949005l-1.416016,0.085999l-0.563965,-1.570007l-0.955994,-0.561996l0.648987,-0.979996l-0.27002,-0.945007l0.632019,-1.324005l0.839996,-1.311005l-0.036987,-0.645004l1.335968,-0.692993l1.539001,-0.753998l0.809021,-1.666l0.723999,0.593994l1.520996,-0.776993l1.292999,-0.725006l1.251007,-1.078003l-0.128998,-1.287003l1.992004,-0.209l1.709991,-0.809006l1.814026,-1.526993l-0.072998,1.317993l1.71698,-0.570007l-1.601013,1.514008l-1.010986,0.735992l-1.429016,1.470993l-0.502991,1.630997l0.631989,1.539001l1.464996,0.791l1.21402,-1.416l1.188995,-1.459l0.723022,-1.361008l1.329987,-0.184006l1.643005,-1.201004l2.488007,-1.354996l2.065979,-1.005997l0.22702,-1.317001l1.386993,-0.906998l1.281006,-1.520004l-1.938019,-0.914001l-0.14798,-1.912003l-0.746002,-0.520996l-0.546997,1.723007l-1.011993,1.759995l0.269989,1.574005l-1.34198,-0.085007l-1.410004,0.845993l-1.789001,-0.035995l-2.127014,-0.968994l-1.587982,-0.440994l-1.122986,-1.776993l-0.490021,-2.164001l0.22699,-1.643997l-2.046997,0.901001l-1.88797,-1.703995l2.51297,-0.281998l1.171021,-0.796997l1.312012,-1.134003l-0.171021,-1.244995l-0.944,-0.832993l-1.729004,-0.429001l-1.80899,0.514999l-1.809021,0.539001l-1.561981,1.110001l-1.386017,0.735001l-1.593994,1.085007l-1.360992,1.397003l-0.955994,1.630005l-0.968994,1.354996l-1.005005,1.317993l-1.70401,0.733994l1.018005,-1.341995l0.778015,-1.306l0.998993,-1.311996l0.747986,-1.350006l0.944,-1.623993l1.348999,-1.397003l1.520996,-1.692001l1.654022,-0.147003l0.227997,-1.625l0.881989,-1.348999l1.735016,-0.839996l1.397003,-0.158997l1.606018,-0.195999l1.752991,-0.539993l1.369995,0.113007l0.059021,-0.009003l1.403992,-0.207993l1.574005,-0.244995l1.300995,0.440994l1.71701,-0.643997l2.175964,-0.397995l0.912018,-1.459l0.718994,-1.416l0.661987,-1.453003l1.703003,-1.335999l2.188995,-0.802994l1.164001,-1.563004l0.863007,-1.182999l-1.38501,-2.274002l-0.049011,-1.630005l-1.937988,-1.477005l-1.605011,0.373993l-0.55899,-1.464996l-2.212982,0.141006l1.458984,-1.593994l-1.281006,-0.686996l-2.01001,0.117004l-0.97998,-1.108994l-2.330017,0.147003l-0.692993,-1.483002l-1.911987,-0.613007l-1.109009,-1.065994l-0.367004,-1.832993l0.605011,-1.354004l-1.188019,-0.748001l-0.251984,-1.244003l-1.225983,-1.042007l-1.324005,-1.679993l-1.152008,-1.703995l-1.434998,-1.660995l-1.251007,-1.692001l-0.832977,-1.121994l-0.742004,1.324005l-0.640015,1.001938l0.809998,1.128006l-0.575989,1.636993l-1.335999,1.078995l-0.490997,1.281006l-1.875031,1.108994l-1.550964,-2.022995l-1.165009,-0.207993l-1.115997,-1.477005l-0.104004,-1.214005l-0.007019,-1.845001l-0.600983,-1.507996l0.184998,-1.557007l-1.404022,-0.201996l-1.385986,0.074005l-1.427979,-0.852997l0.393005,-1.225998l-1.39801,-0.858002l-1.244019,-1.201996l-1.353973,-0.882004l-2.048004,0.636993l-1.188019,0l-1.612,-0.636993l-1.753998,-0.337006l-1.207001,0.871002l-0.074005,1.531998l1.005005,0.944l-0.520996,1.483002l-0.679993,1.513992l0.89502,0.949997l0.22699,1.845001l-0.054993,1.544006l-1.03598,1.483002l-1.299011,0.281998l-0.244995,1.207993l1.102997,1.268997l1.134003,0.673996l0.588989,2.169998l0.300995,1.569l0.459015,2.175995l-0.066986,2.501007l-1.115021,1.544006l-1.679993,1.483002l-1.697998,1.201996l-1.70401,0.858002l0.631012,1.574997l0.471985,1.606003l0.080017,2.195007l-0.097992,1.882004l0.852966,1.931l-1.453003,1.826996l-2.040985,1.177002l0.104004,1.257004l-1.507996,-1.348999l-0.656006,-1.636993l-1.059998,-1.330994l-0.834015,-1.660995l-1.354004,-1.710007l0.552002,-1.845001l0.158997,-1.533005l-0.365967,-1.567993l-0.027008,-0.057007l0.846008,-2.757996l-1.692017,-1.097l-2.145996,-0.227005l-2.145996,-0.257004l-1.882019,-1.832993l-1.642975,-0.839996l-1.287018,-0.839996l-0.901001,-1.740997l-1.630005,-1.533005l-1.881989,-0.987l-1.716003,-1.593994l-1.637024,0.307007l-1.299988,0.330994l0.312012,-1.195007l-0.257019,-1.667007l0.39801,-1.477997l-0.190002,-2.298004l-1.177002,-0.582993l-1.335999,-0.024002l-0.166016,-1.612l0.552002,-1.778l0.802979,-2.054001l0.89502,-1.341995l0.901001,-1.373001l1.410004,-1.557007l1.300018,-1.281006l1.306,-0.306l0.509003,-1.759003l1.703979,-0.270004l1.833008,-0.257004l0.312988,-1.796005l1.612,-1.832993l2.427002,0.440994l1.600006,-1.569l1.557007,-1.582001l0.362,-1.759003l1.992004,-2.132996l-0.894989,-1.317993l1.912964,-0.018997l0.472015,0.955994l1.917999,0.802994l1.83902,-1.281006l2.040985,-1.311996l0.588013,-2.011002l-1.686035,-1.024002l0.22702,-1.740997l1.618011,-0.742004l0.244965,-2.152008l-1.844971,-0.612991l-0.061005,-1.195007l-1.649017,-0.735992l-1.612,-0.195999l-0.330994,1.710007l-0.264008,2.010986l-0.373993,1.998993l-1.740997,0.975006l-0.287994,1.416l-1.201996,0.434998l-0.858002,-2.218994l0.636993,-1.679993l0.337006,-1.440994l-0.80899,-1.912994l-1.919006,2.041992l-0.527008,-1.888l-0.440979,-1.593994l-1.128021,-1.134018l1.803009,-1.115997l-0.208008,-1.820999l-0.54599,-1.286987l-0.497009,-1.606003l-0.177979,-1.821014l1.127991,-0.894989l-0.158997,-1.202011l1.188995,-0.311996l1.25,0.276016l1.066986,-1.231995l1.104004,-1.195007l0.76001,-0.710999l-0.826996,-0.815002l-1.832977,-0.919006l-2.175995,0.054993l-0.944031,1.225998l-0.18399,1.39801l-0.368011,1.672989l-0.520966,1.354004l-0.619019,1.619003l-1.25,0.570007l-1.164978,1.587997l-1.312012,1.62999l0.539978,2.287003l1.587036,1.893997l-1.348999,1.189011l-0.049011,1.807983l-1.820984,1.367004l-0.466034,-0.048996l-1.041992,1.488998l-0.938019,-1.447006l0.605011,-1.818008l0.014008,-0.075989l2.213013,-0.748001l-0.325012,-2.212997l-1.177002,-2.169998l-1.507996,1.386002l-1.716003,0.679993l1.391998,1.999008l-1.324005,0.820999l-0.932007,1.882004l-1.783997,-0.233002l-2.016998,-1.335999l-1.134003,-1.488983l-1.417023,-1.784012l-0.330963,-2.268005l-1.747009,-0.165985l-1.876007,-0.178009l-1.526001,0.606995l0.901001,1.416016l-1.220001,1.121994l-0.968018,-1.139999l-0.673981,-1.348007l-1.894989,-0.269989l-1.973999,-0.397995l-0.962006,-1.220016l-1.287994,-0.753983l1.048004,-0.828003l1.385986,0.256989l0.306,-1.599991l-0.820984,-1.556992l-1.453003,-1.055008l-0.785034,-1.488998l-0.735962,-1.630997l-0.074036,-1.697983l-1.495972,-1.134018l-1.667023,0.852005l-0.593994,-0.723007l1.496002,-1.556999l-2.359985,0.833l-0.27002,-1.018005l0.993011,-1.617996l0.373993,-2.181999l-2.046997,1.042l-1.202026,-0.276001l0.919006,-1.311996l-1.783966,-0.374001l-1.943024,-0.37999l-1.403992,0.061989l0.024017,-1.127998l-0.91301,-0.638l-1.520996,0.103996l-1.361008,0.846001l-0.085007,-1.672997l0.391998,-1.526001l0.147003,-1.53299l-0.705002,-1.354004l0.251007,-1.122002l0.319,-1.323997l-0.557999,-1l-0.759995,-0.785004l0.276001,-1.330009l-0.533005,-1.152l0.307007,-1.709984l-0.417007,-1.171005l-0.362,-1.02301l1.085007,-1.440994l-0.459,-1.581001l0.809006,-0.778999l0.410995,-1.539001l-1.856995,-0.514999l-0.350006,-1.202003l-1.636993,-0.796997l-0.423004,-0.950005l-1.539001,-0.57l-1.692001,0.178017l-1.341995,-0.099007l-0.595001,-1.121994l-0.307007,-1.048004l-1.770996,0.301003l-1.25,1.263l-1.085007,1.586998l-1.740997,1.060997l-1.139999,1.440002l-1.373001,1.288002l-1.220001,-0.037003l-0.085999,-1.728996l1.464996,-0.564003l-0.018997,-0.901001l-0.871002,-0.894997l-0.828003,-0.918999l-1.397003,-0.681l-0.595001,0.802994l-0.355011,1.128006l-1.128006,-0.031006l-1.151993,0.748016l-0.606995,1.82l0.300018,1.354996l-0.502014,1.354004l0.919006,0.551994l0.608002,0.771004l0.035995,0.074997l-1.43399,0.250999l-1.379013,1.146004l-1.735001,0.386002l-0.397995,-1.392006l-1.483002,-0.362l0.80899,-1.439995l-0.863983,-0.601006l-1.122009,0.214005l-1.685989,-0.214005l-2.237015,0.196007l-1.415985,1.501999l-1.667007,1.084999l-1.649002,1.464996l-1.335999,1.244003l0.048996,1.127998l1.416,0.527l-1.856995,1.531998l-1.110001,0.153l-1.330002,1.110001l0.630997,0.545006l0.227005,1.967995l-1.48999,1.741005l1.121979,-0.202011l-0.103989,1.065994l0.404007,0.668007l-1.888,0.883003l-1.931,0.778l-1.220016,-0.379997l-1.482986,-0.257996l-1.23201,-0.797005l-1.680008,-0.017998l-0.391983,-1.257004l-0.895004,-0.961998l-1.366989,-0.221001l-0.839005,-1.139999l-1.331009,-0.894997l-0.779037,0.671974l1.091003,1.146004l1.085007,0.771996l0.606003,0.999001l0.858002,0.472l0.638,1.128006l0.956009,0.961998l0.710983,0.957001l1.404007,-0.245003l0.981003,0.667999l1.32399,0.871002l1.483017,-0.030998l1.605988,0.564011l1.410019,0.667984l1.237991,0.085007l1.539001,-0.092003l0.221008,-1.318001l1.189011,-0.276001l1.090988,0.544998l1.557007,0.005997l1.715988,-0.595001l1.349014,0.116997l1.507996,0.649002l0.350006,0.937996l-1.300003,0l-0.962006,-0.839989l-1.905991,0.974998l-1.827011,0.288002l-0.319,0.987l-1.275009,-0.036995l0.711014,1.182983l1.410004,0.355011l1.416,0.208l0.435989,1.073006l1.851013,-0.355011l1.758987,-1.361l-0.085999,1.378998l0.472,1.036003l-0.386002,1.355003l-0.404007,1.948982l-0.103989,1.796021l0.693008,1.256989l0.728989,1.244995l-0.055008,1.710007l0.417007,1.213989l1.220001,0.123016l-1.343002,1.391983l-0.036987,1.625015l-0.558014,1.94899l-0.343994,1.649017l-0.005997,1.556992l-1.097015,1.680008l-0.508987,1.917984l-1.048004,1.716003l-1.151993,2.054001l1.813995,-1.729004l1.373001,-1.845001l1.391998,-1.293015l0.264008,-1.672974l0.48999,0.619003l1.354004,-0.864014l-0.806,1.416016l-0.04599,0.061981l-0.998993,0.754013l-1.134018,1.606003l-1.158997,1.098007l1.214005,-0.031006l1.176987,-0.552002l-0.552002,1.274994l-0.440994,1.397995l-0.466003,-1.459l-1.439987,0.238998l-1.189011,1.520996l0.759995,0.429001l-1.104004,1.091003l-0.636993,1.231995l-0.281998,1.115997l0.012009,1.434006l-0.576004,1.673004l1.520996,-1.593994l0.949997,-2.218994l0.643997,-1.667007l0.110001,1.091003l0.576004,0.630997l-0.962006,0.796997l-0.716995,1.569l-0.362,1.453003l0.067001,1.440002l1.268997,0.380005l-1.70401,0.968002l-0.319,1.029999l-1.372986,-0.054993l-0.729004,1.968002l0.134995,1.477997l-0.686996,2.464005l0.423004,1.716003l-0.858002,1.796005l-0.190002,1.533005l-0.779007,0.975006l0.300003,2.016998l0.753998,1.483002l0.576996,1.753006l0.13501,1.802002l0.207993,1.796005l0.386017,1.533005l1.495987,-0.018997l-1.078979,1.557007l0.165985,1.335999l-0.330994,1.746994l-0.60701,0.294006l-0.311996,1.759003l-1.470993,1.25l0.214996,-0.643997l-1.07901,-0.031006l1.600006,-0.759995l-0.484009,-1.576004l-1.108994,-0.882996l-0.852997,-1.917999l-0.673996,0.662003l-0.258011,1.011002l-0.484009,1.649002l-0.636993,1.906998l-0.558014,1.139999l-0.569992,1.182999l0.981003,1.550995l-1.311996,-1.048004l-0.704987,1.067001l-0.680008,1.421997l-1.159012,1.078995l-1.011993,1.582001l-1.146011,1.464996l-1.459,1.582001l-1.617996,1.496002l-0.834,1.703995l-0.184006,1.427994l-0.637985,1.850998l-1.104004,1.470993l-1.410004,1.207993l-0.466003,0.796997l0.159012,1.311996l-0.123032,1.447006l-0.618988,1.091003l-0.588013,1.447006l0.067032,1.625l0.373993,1.453003l-0.736008,0.944l0.871002,1.042007l0.429001,-0.809998l0.514999,0.802994l-0.600998,0.270996l-0.208008,1.759003l-0.428986,-1.470993l-0.557999,1.490005l-0.043015,1.464996l0.705017,0.539001l-0.699005,1.367004l-0.600998,0.673996l0.514999,1.869003l0.054993,1.912994l0.28801,2.427994l-0.713989,1.576996l-0.058014,0.065994l1.410019,1.709l1.047989,1.464996l0.876007,1.343994l0.753983,0.501999l-0.269989,1.238007l0.76001,0.509995l0.692993,1.863007l0,1.783005l-0.289001,1.932007l0.110001,2.175995l-0.147003,1.667999l0.171997,1.481995l-0.324997,0.840012l0.490997,1.335999l-0.533997,1.410004l0.520996,0.649994l-0.514984,2.063995l1.048004,1.332001l0.771988,2.161987l0.490005,1.625l0.477982,1.600006l-0.477982,1.416016l-1.378998,0.203003l-1.410004,-1.145996l0.924988,1.862976l0.074005,1.367004l0.681015,1.06601l0.845993,1.471008l1.091003,0.612976l0.569992,1.613007l1.097,1.574005l0.178009,2.049011l-0.497009,1.679993l-1.01799,0.765991l1.58699,1.80899l0.858002,1.722992l0.802994,2.01001l1.122009,1.820007l0.367996,2.71701l2.097,-0.859009l-0.589005,-1.868988l-0.753983,-2.27301l-1.158005,-0.584015l-0.319,-1.764008l0.600998,-0.313995l-0.60701,-1.610992l0.319,-1.11499l-0.428986,-2.15799l0.037003,-1.932007l-0.852997,-2.40799l-0.361008,-2.164001l-0.766998,-1.723022l0.098007,-1.937988l-0.39801,-1.906006l-0.619003,-2.035004l-0.367996,-1.869019l-0.778,-1.464966l-0.22699,-1.514008l0.728989,-1.251984l0.098007,-1.666016l0.330994,-1.539001l0.619003,-1l1.133987,1.692993l0.963013,0.221008l0.527008,1.321991l0.875992,1.141022l-0.509003,1.429993l0.055008,2.05899l-0.178009,1.238007l0.37999,1.89502l0.098007,2.052979l0.785004,2.410004l0.815002,2.402008l1.520996,1.097992l-0.514999,1.703003l1.183014,2.231995l0.373993,1.464996l0.69899,0.343994l0.380005,1.496002l-0.797012,0.889008l-0.232986,0.846008l0.96199,1.421997l1.692001,1.752014l0.447998,2.410004l0.932007,1.710999l0.925995,1.660004l0.839996,2.243988l0.723007,1.539001l0.931992,1.960999l0.753998,1.53299l0.025009,2.47699l0.833008,1.256012l-0.233017,1.109009l-1.244003,0.71701l0.348999,1.054993l-1.214005,0.39801l0.71701,2.097992l0.921997,2.122986l0.028,0.05899l1.692001,1.567993l1.378998,1.71701l0.803009,1.790985l1.991989,1.636993l1.820999,0.949005l0.80899,0.289001l1.183014,1.574005l1.679993,2.046997l1.557007,1.117004l1.569,1.078003l1.539001,1.360992l1.625,0.828003l1.563004,1.335999l1.576004,1.329987l1.931,0.846008l1.936996,1.127014l1.912994,1.079987l2.078003,-0.28299l1.809006,-0.372986l1.722,0.44101l1.416,0.661987l1.397995,0.882996l1.341995,1.15799l0.791016,1.02301l1.342987,1.710999l1.378998,1.410004l1.06601,1.354004l1.697998,1.188995l1.733978,0.882996l1.778015,0.355011l1.728973,1.152008l0.834015,0.975006l1.507996,0.28299l1.747009,1.121002l1.477966,0.252014l2.132996,0.355011l0.625,-0.71701l1.152008,1.550995l-1.231995,-0.196991l1.151978,1.539001l1.146027,1.238007l1.464966,1.562012l1.447021,1.264008l1.496002,1.256012l-0.054993,1.317993l-0.348999,1.281006l0.53302,1.355011l1.243988,0.44101l0.576019,0.575989l1.292999,-0.871002l0.889008,1.140991l2.11499,1.299011l1.195007,1.152008l-0.342987,1.502014l1.856995,0.44101l0.914001,0.856995l0.949982,-0.39801l1.864014,0.417999l1.856995,0.679993l0.918976,1.079987l1.876038,0.145996l0.269989,1.770996l1.582001,-0.128998l1.894012,-0.631012l-1.563019,-1.104004l-0.281982,-1.054993l1.58197,-0.381012l1.251038,-0.69101l0.962006,-1.238007l1.238007,0.06601l1.562988,0.846008l0.925995,1.329987l1.244019,0.050995l-0.956024,0.96701l0.925018,1.796997l1.576019,1.324005l1.237976,1.299011l-0.306976,1.209015l0.287964,1.985992l-0.005981,1.464996l0.337006,1.464996l-0.649994,1.421997l1.25,0.985992l-1.263,1.15799l-0.955994,1.613007l-2.201019,-0.085999l-1.299988,1.347992l0.343018,1.18399l-1.600037,0.14801l0.644012,1.195007l-1.899994,0.588013l-2.544006,0.753998l-0.266998,1.686005l-0.040009,0.109009l-1.593994,0.785004l0,1.329987l-1.587982,0.338013l0.649994,1.813995l0.005981,1.299011l-0.643982,0.368988l1.292999,0.527008l1.563019,1.38501l0.330994,-1.257996l1.557007,0.093994l-0.606995,0.80899l-0.631012,1.238007l-1.25,0.350006l-1.881989,0.696991l-1.875,0.90799l0.011963,1.042999l0.619019,1.268005l1.306,1.312012l-1.268982,0.699005l1.287994,0.69101l1.899994,0.730011l1.256989,0.856995l1.257019,1.061005l0.661987,1.378998l1.893982,0.877014l1.263031,1.195007l0.656006,1.152008l0.655975,1.13501l0.619019,1.121002l1.894012,1.48999l0.649994,1.084015l1.243988,1.085999l0.644012,0.722992l1.237976,0.704987l0.644012,1.031006l1.238007,1.359009l-0.287994,0.975006l1.558014,0.993988l1.220001,0.636993l1.213989,0.631012l2.458008,0.785004l1.832977,0.128998l1.820007,0.747986l2.434021,0.545013l1.200989,0.128998l1.802979,0.53299l1.802002,0.375l1.171021,0.686005l1.213989,0.214996l1.770996,0.631012l-0.048981,0.854004l0.22702,0.949005l0.53299,1.054993l-0.373993,0.821991l-0.062012,0.78299l0.264008,0.747986l-0.379974,0.77301l-0.337036,0.753998l-0.937988,0.777008l-0.062012,0.704987l-0.055969,0.692993l-0.343018,0.69101l0.213989,0.644989l-0.048981,0.545013l-0.899994,0.46701l0.509003,0.686005l-1.238007,0.86499l-0.062012,0.582001l-0.906982,0.606995l-0.324982,0.563995l-0.889008,0.567993l0.520966,0.325989l0.184021,0.661987l-1.115997,0.292999l-0.348999,0.492004l0.22699,0.519989l0.196014,0.436005l-0.042999,0.289001l0.509003,0.25l-1.17099,0.589996l0.220978,0.372986l-0.828003,0.274994l-0.342987,0.368988l-0.839996,0.367004l-1.072998,0.355011l-0.576019,0.324005l-0.53299,0.300995l-0.778015,0.117004l-0.037018,0.269989l-1.273987,0.02301l-0.54599,0.300995l0.723969,0.18399l-0.023987,0.178009l0.238007,0.171997l0.196014,0.18399l-1.263,0.196991l-0.029999,0.18399l-0.248016,0.042999l-0.237,0.079987l0.002014,0.075989l0.205994,0.027008l0.466003,0.067993l1.152985,-0.006012l0.514984,-0.085999l1.403015,0l-0.740997,0.09201l0.687012,0.011993l-0.718018,0.049011l-0.067017,0.104004l-0.734985,0.067993l0.436005,0.02301l-0.968994,0.050995l0.440979,0l-1.164978,0.035004l1.808014,0.093994l2.5,-0.093994l2.406006,-0.125l2.061981,-0.093994l1.906006,-0.125l1.812012,-0.156006l2.125,-0.156006l1.687988,-0.125l2.343994,-0.25l1.281006,-0.125l1.312012,-0.156006l0.906006,-0.125l0.148987,-0.143005l0.227997,-0.036987l-0.066986,-0.011993l0.832977,-0.122986l1.985992,-0.289001l-1.759979,0.209015l1.53299,-0.238007l0.748016,-0.057007l1.372986,-0.188995l0.373016,-0.085999l-0.221008,-0.036987l-2.195007,0.338013l-1.27301,0.122986l0.250031,-0.143005l-0.264008,-0.078003l1.073975,-0.196991l1.304993,-0.104004l1.330017,-0.145996l2.330017,-0.338013l2.015991,-0.367004l0.411987,-0.143005l-0.343994,-0.011993l0.980011,-0.300995l0.662018,-0.207001l-0.766022,0.011993l0.447021,-0.221008l0.593994,-0.006012l2.15799,-0.360992l2.200989,-0.417999l1.48999,-0.312012l1.96701,-0.403992l1.997986,-0.46701l1.539001,-0.38501l1.856995,-0.496002l0.76001,-0.332001l1.502014,-0.515991l1.312012,-0.519989l0.121002,-0.264008l-1.170013,0.22699l-0.446991,-0.117004l1.078003,-0.515991l-0.76001,-0.018005l-2.268005,0.295013l-0.307007,-0.14801l0.71701,-0.367004l1.243988,0.006012l1.980011,-0.44101l0.846008,-0.042999l1.613007,-0.281006l1.770996,-0.484009l1.917999,-0.436005l1.524994,-0.44101l1.656006,-0.593994l1.48999,-0.60199l0.502014,-0.350006l1.729004,-0.699005l1.636993,-0.796997l0.86499,-0.600006l1.507996,-0.682007l1.752014,-0.78299l1.753998,-0.790985l1.38501,-0.828003l1.415985,-0.85199l0.877014,-0.704987l1.421997,-0.899994l1.631012,-0.993988l1.527008,-0.820007l0.889008,-0.46701l0.906006,-0.796997l0.639008,-0.71701l0.145996,-0.55899l0.507996,-0.889008l0.375,-0.679993l1.562012,-1.011993l1.600006,-1.061005l1.839996,-1.171997l1.593994,-1.089996l1.653992,-0.834015l2.011993,-1.195007l0.882996,-0.153992l1.653992,-1.281006l1.507996,-0.625l-0.264008,-0.299011l2.084015,-0.975006l1.436005,-0.520996l1.496002,-0.649994l1.542999,-0.790985l1.479004,-0.667999l0.338013,-0.679993l1.665985,-1.09201l1.667999,-1.104004l0.405823,-0.831024m-143.595001,-283.12001l0.098022,1.110001l-0.294006,1.299011l1.128021,0.39798l0.403992,1.680008l0.264008,1.91301l1.783997,-0.692993l1.776978,-0.067017l0.962036,-1.845001l0.299988,-1.911987l-1.183014,-1.024002l1.649017,-1.152008l0.042999,-1.758995l-1.34201,0.33699l-1.158966,-0.662003l-1.299011,0.171997l-0.699005,0.956001l0.158997,1.772003l-1.434998,-0.643997l-1.157043,0.121002zm-17.844971,-3.922997l0.526978,1.353996l-1.127991,0.736l0.232971,1.366982l1.379028,1.202026l1.445984,0.722992l0.699005,1.545013l-1.89502,-0.024017l-1.488983,-0.876007l-1.335999,-0.606995l-1.145996,1.949005l0.686981,1.48999l1.477997,0.864014l-0.759979,2.371979l1.709991,0.631012l2.078033,0.655991l2.291992,0.097992l1.863007,0.171005l1.85202,-0.483994l0.434998,1.538986l0.992981,1.478012l1.729004,0.158981l1.790009,-0.48999l-0.006012,-1.397003l1.514008,0.233002l0.920013,-1.440994l-1.619019,-1.244003l-1.134003,-1.447006l-0.423004,-1.612l1.21402,-1.716003l0.367981,-1.893997l0.423004,-1.378998l1.667023,-1.091003l1.139984,-0.925995l-0.269989,-1.159004l-1.507996,-0.520996l-1.741028,1.139984l-1.531982,1.226006l-0.809021,-1.667l-1.458984,-0.135002l-0.477997,-1.165001l-1.97998,0.374001l0.944,-1.833l-0.981018,-0.564003l-1.434021,0.300003l-1.507996,-0.135002l-1.446991,0.135002l-0.699005,0.753998l-1.372986,0.250999l-1.226013,1.060043zm-60.595016,34.045998l-1.447006,1.723007l-0.042984,1.367004l-0.975006,1.729004l-0.514999,1.729004l0.018997,2.330002l0.828003,-1.869995l-0.005981,-1.384995l1.03598,-0.710999l0.87001,-1.839005l1.692001,-0.949997l-0.803009,-0.876007l-0.656006,-1.247025zm-2.506989,16.397995l-0.331009,2.274002l0.423004,1.667007l0.434982,1.654999l-0.692001,0.643997l0.521011,1.311996l0.103989,1.335999l0.797012,0.681l-0.544998,0.766006l0.681,1.789993l0.593994,1.311996l1.201996,0.141006l0.067001,-1.979996l-0.33699,-2.268005l0,-2.059998l0.343002,-2.195007l-0.767014,-1.514008l-1.010986,-1.716995l-0.514999,-1.759003l-0.968994,-0.084991zm166.570999,-49.652992l-0.675995,-0.644005l0.221008,-1.372993l-1.574005,-1.097l0.34201,-1.067001l1.117004,0.655998l1.372986,0.870003l1.175995,-0.250999l0.742004,-1.085007l-1.378998,-1.262993l-1.214996,-1.004997l-1.78299,-0.422997l-1.765991,-0.103996l-1.593994,-0.22699l1.471008,-0.307007l1.582001,-0.34301l-0.813995,-0.967995l-1.625,-1.012001l-1.054993,0.319l-0.018005,-0.981003l-0.110992,-0.760002l0.649994,-0.889l-1.071991,-0.81501l-1.231995,0.325005l0.613007,-1.913002l-1.036987,-1.165001l-0.710999,0.735001l-1.231995,-1.539001l-1.519989,-1.072998l-1.825989,-0.760002l-1.09201,0.564003l-1.061005,-0.852997l-0.195007,-1.079002l1.459015,-0.612999l-0.90799,-0.803001l-1.856995,-0.698997l-1.427979,-0.300003l-1.317993,-1.25l-1.404022,-0.681l-0.519989,-1.023003l-1.09201,-0.957001l-1.054993,-1.208l-0.985992,-1.355003l-0.606995,-1.15799l-1.145996,-1.937004l-1.617004,-0.025002l-1.257019,0.858002l0.503021,1.158997l-0.729004,0.251007l0.39798,0.90699l0.116028,1.060997l-0.39801,1.103996l-0.882996,-1.317993l-0.195984,-1.054001l-0.294006,-0.546005l-0.955994,-0.446999l-0.497009,0.692001l0.828003,0.57l-0.380981,0.643997l-1.121033,-0.820999l-1.600983,1.232002l0.085999,-0.820999l0.998993,-0.655998l0.803986,-1.165001l-0.122986,-1.103989l-1.329987,-0.073006l-1.061035,0.355003l-1.029968,-0.336998l-1.567993,-0.037003l-1.330994,0.834l-1.605011,0.728996l-0.667999,1.200996l-1.213989,1.335999l-0.312012,1.385002l0.373993,1.245003l-1.514984,0.355003l0.373993,1.428001l-2.029022,-0.489998l-2.083984,1.274994l-1.072021,1.226006l0.692017,0.918999l-0.072998,0.925995l-1.141022,0.012001l-0.54599,0.889l-0.826996,1.312004l-0.355011,1.446999l1.729004,-0.190002l0.552002,0.975006l-0.446991,1.808983l-2.048035,0.772011l-1.11499,0.931999l-1.453003,0.607002l-0.453003,1.318001l0.070007,0.084999l1.03299,0.834l1.054993,-0.208l0.374023,1.067001l1.385986,0.643997l-1.281006,0.417l-0.925995,0.791l0.858002,0.668007l1.378998,0.557983l-0.582001,0.76001l0.998993,0.741997l1.851013,0.521004l1.011993,-0.802994l1.685974,-0.361l1.558014,-0.239006l1.80899,0.846001l1.654022,0.178001l0.373993,1.109001l1.151978,0.944l1.490021,1.275002l0.582001,1.593987l1.330017,1.140015l0.674988,1.275009l0.360992,1.986008l1.03598,1.18898l0.122009,1.710007l0.882996,0.705002l1.423004,-0.367996l0.317993,-1.275009l1.434998,1.686005l1.569,0.147003l1.104004,1.496002l-2.261993,-0.422989l-1.69101,0.360992l0.343018,2.00499l0.411011,1.992004l1.917999,0.833008l1.636963,-1.091003l0.479034,-1.807999l1.464996,1.728989l0.778992,2.543991l-2.02301,0.613007l-0.429962,1.636993l0.307007,2.096008l0.630981,1.973999l0.988007,1.587006l0.643005,1.692001l2.213013,1.244995l1.39798,1.778l0.796997,2.003998l1.464996,0.809006l0.704987,1.391998l2.481995,2.095993l0.86499,0.992996l1.765991,1.673004l1.542999,1.427994l2.527008,1.429001l2.311005,-0.539993l1.777008,-0.005997l1.618988,1l2.622986,0.287994l0.796997,-1.042007l-0.196991,-1.955002l-0.76001,-1.710007l-0.507996,-1.813995l-0.153992,-1.979996l-1.843994,-1.899994l0.729004,-1.686005l0.122986,-2.115005l-0.618988,-1.759003l-0.86499,-1.636993l-2.078003,-1.740997l1.496002,-0.362l-0.403992,-1.526001l1.145996,-1.292999l1.875,-1.00499l0.902008,-1.912003l0.350006,-1.625l0.18399,-1.587997l-0.386993,-1.545013l-0.520996,-1.500992l-0.11499,-1.778l0.269989,-1.287003l1.347992,-0.931992l0.596008,-1.574997l0.777008,-1.330002l0.496002,-1.576019l0.221008,-1.384979l-0.06601,-1.60601l-0.024994,-1.625l-0.393005,-1.306l-1.256012,0.68l-1.777008,0.300003l-0.378113,1.502998zm14.415985,10.733009l0.963013,-0.44101l0.375,-1.146011l1.084015,-0.177979l0.203003,1.556992l-0.28299,1.924988l1.429993,-1.280991l1.949005,0.785004l0.378998,1.814011l1.765991,-1.661011l1.674011,-0.324997l1.653992,-0.828003l0.057007,-1.919006l0.593994,-1.121994l-0.195007,-1.759003l0.360992,-1.936996l-0.846008,-2.005005l-1.76001,-1.335991l-1.527008,0.393005l-1.813995,-1.269005l-0.464996,1.048004l-1.200989,-0.049011l0.514008,1.318008l-0.11499,1.102997l-1.061005,0.203003l-0.596008,1.127991l0.350006,0.998993l-1.231995,-0.103973l1.350006,1.329987l-0.55899,1.397003l-1.696991,-1.416l-1.613007,-0.195999l-0.949005,0.411011l0.692993,0.649002l-0.644989,0.569992l0.846008,0.968994l0.315948,1.373001zm-99.610992,-82.645012l-1.746979,-0.403999l-1.140015,0.343002l-0.691986,0.734997l-0.835022,0.859001l-1.029999,0.123001l-0.337006,0.84l0.048981,0.889l0.595001,0.330997l1.097015,-0.202l0.545013,-0.312l1.679993,-0.011997l-0.178009,-1l2.402985,-0.123001l0.644012,-0.918999l-1.053986,-1.148003zm34.100983,-0.544998l-1.391998,0.434998l-1.691986,-0.060997l-1.428009,0.319l0,1.053997l0.772034,0.729l1.096985,0.564003l0.796997,-0.337002l0.595001,-0.870998l0.717987,-1.012001l0.53299,-0.82zm4.481018,5.209999l-0.072998,-0.931999l-1.21402,-0.563999l-0.287964,-0.962002l-1.397003,-0.508999l-1.073029,-0.459999l-1.133972,0.085999l0.09198,0.907001l-0.606018,0.870998l0.503021,0.754002l1.011017,0.459999l0.203003,0.753998l-0.436035,0.515003l0.515015,0.618999l0.343994,0.606998l1.623993,-0.540001l0.631989,-0.863998l1.297028,-0.742001zm46.329987,2.292999l0.325989,-1.072998l0.188995,-0.924999l-0.753998,-1.146l-1.079987,-1.140003l-1.084015,-0.355l0.231995,1.146l-0.679993,0.723l-1.178009,0.570004l-1.438995,0.373997l-1.593994,0.012001l-1.730011,-0.104l-1.734009,-0.055l-1.722992,-0.023998l-1.911987,-0.159992l-1.73999,0.025002l-1.89502,-0.319l-1.960999,-0.282009l-1.575989,-0.501991l-1.839996,-0.368l-1.703003,-0.250999l-1.269989,0.655991l0.546967,0.736l1.764008,0.299999l1.343994,-0.134991l1.770996,0.605991l1.330017,0.870998l2.108978,0.478001l1.605011,0.129009l1.109009,0.062l1.820007,0.637001l0.920013,-0.331001l2.170013,-0.098l1.917999,0.250999l0.596008,-0.583l1.453003,0.441002l1.954987,0.073997l0.803009,-0.417l1.481995,0.527l1.449982,-0.35001zm65.690002,94.162994l1.390991,0.699005l1.171997,-0.115997l0.588013,-1.470993l0.23999,-1.576004l-0.23999,-1.968002l0.553009,-1.636993l-1.018005,-1.231995l-1.049011,-1.268997l-1.496002,-1.072998l-1.335999,-0.748001l-0.415985,-1.765991l-1.588013,-0.919006l-1.221008,-0.293991l-0.790985,0.748001l-0.846008,0.875992l-0.145996,1.471008l0.80899,1.593994l0.920013,-0.300003l0.421997,1.085007l-0.519989,0.834l-0.618988,0.962006l0.69101,1.182999l0.945007,-0.300003l0.221008,1.354004l1.395996,0.098007l0.46701,-0.735992l0.911987,1.992004l1.128998,1.636993l-0.570038,0.871948zm-323.19899,50.88501l-0.403999,0.882996l-0.331001,0.029999l-0.436005,1.557007l-0.354996,0.619003l-0.030998,1.085007l0.324997,-0.214005l0.306999,0.177994l0.257004,0.587997l0.361,-0.011993l0.061996,-0.981003l0.238998,-0.919006l0.018005,-0.949997l-0.024002,-0.912994l0.012001,-0.951004zm122.867004,-172.164001l-1.218994,0.499996l-0.714996,0.337002l-0.705002,0.472l-0.330994,0.325001l-0.098007,0.239002l0.343002,0.134995l-0.423004,0.429001l-0.263,0.429001l-0.582993,0.612999l0.496994,0.104004l0.354996,0.134998l0.981003,-0.042999l1.005005,-0.097988l0.699005,0.079987l0.244995,0.250999l0.085999,0.337002l0.128006,0.264l0.914001,-0.221001l0.735992,0.036999l0.287994,0.288002l1.520004,-0.514999l1.360992,-0.423l0.595001,-0.023998l1.526001,-0.570004l1.238007,-0.58799l0.233002,-0.625l1.464996,-0.833l-0.104004,0.368l0.699005,0.104l0.981003,-0.514999l0.098007,-0.453999l0.679993,0.110001l0.662003,0.122997l1.287003,-0.637001l1.545013,-0.471996l0.544983,0.023998l-1.018005,0.674l-0.552002,0.674l-0.656006,0.661999l-0.497009,0.705002l-0.146973,0.667999l-0.264023,0.544998l-0.539993,0.687004l-0.509003,0.587997l0.074005,0.410992l-0.037003,0.50201l-0.595001,0.667992l0.123001,0.423008l-0.544998,0.673988l-1.367004,0.889l-1.501999,0.871014l-1.354004,0.802986l-0.845993,0.24501l-0.306,0.618992l-1.705002,0.785l-0.889008,0.728996l-1.115997,0.594002l0.264008,0.14101l0.453995,0.153l-0.501999,0.497002l-1.306,0.59499l-1.085007,0.618999l-0.479004,0.514999l-1.048004,0.276001l0.203003,-0.644001l-0.932007,0.202l-0.906998,0.681004l-0.809998,0.967999l-0.123001,0.453999l-1.091003,0.68l-1.257004,1.237999l1.054001,-0.325001l1.029999,-0.681l0.834,0.423l0.447006,0.583l-0.048996,0.820999l0.410995,0.662003l0.404999,0.667999l-0.649994,1.042l-0.759995,0.944l-1.139999,0.674l-0.423004,0.875999l-1.072998,-0.563999l-1,0.074001l-1.188995,0.264l0.054993,0.900997l0.233002,0.729l0.350006,0.631001l-0.393005,0.717003l1.164993,0l0.895004,0.355l-0.570007,1.237999l-0.791,0.362l-0.123001,-0.710999l-0.110992,0.007999l-1.182999,-0.167l-1.501999,-0.146999l-0.728989,-0.251003l0.367981,-0.918999l0.061005,-0.820999l-0.588013,-0.362l-0.422974,-0.717003l-0.214996,-0.924999l-0.662018,-0.440998l-0.306992,-0.736l-0.201996,-0.833l0.274994,-0.84l0.834,-0.760002l-1.048004,0.208l-0.636993,-0.355l0.447006,-0.759998l-0.901016,-0.257l-0.888992,-0.244991l-1.292999,-0.030998l-1.121994,0.153l-1.44101,0.287998l-1.200989,0.276001l-1.649002,0.348999l-1.490005,0.250992l-1.856995,0.612999l-1.292999,0.275009l-0.980011,0.153l-1.01799,0.354992l-0.203003,0.748009l0.147003,0.618999l0.686996,0.435001l1.189011,0l0.036987,0.655991l-0.993011,0.987l1.146011,-0.27l1.139999,-0.055l0.22699,0.540001l-0.520996,0.914009l-0.820999,0.68l0.158997,0.447998l1.588013,-0.674l1.416,-0.269997l0.679993,0.313l-0.123001,0.581997l-1.134003,0.595001l-0.012009,0.478001l1.533005,-0.368l0.888992,-0.557999l1.134003,-0.104l0.600998,0.508999l1.318008,-0.771999l0.085999,-0.57l1.311981,-0.27l0.674011,0.417l0.533005,0.631001l0.906982,0.226997l0.987,0.128002l-0.354996,0.944l-1.047989,0.704998l0.422989,0.613007l-0.311996,0.949997l-1.679993,0.127998l0.619003,0.681l0.140976,0.728996l-0.171982,0.846008l-0.998993,1.115997l-1.281006,0.875992l-1.391998,0.724007l1.237991,0.233002l0.128998,0.906998l0.405014,0.875999l0.496994,0.766998l0.557999,0.753998l-0.233002,0.864006l0.582993,0.741997l0,1.011002l0.386017,0.766998l-0.619019,1.391998l-1.219986,1.134003l1.047989,0.552002l1.268997,-0.693001l1.833008,-0.760002l1.759003,-0.545998l1.207993,-0.441002l0.397995,-0.925003l1.379013,-0.177994l-0.815002,1.323997l0.423004,0.883003l0.257004,0.397995l0.011002,0.061005l0.251999,0.239998l1.507996,0.202003l1.373993,-0.876007l0.759995,0.815002l-1.447006,0.380005l-1.539001,0.576996l-0.570007,0.949997l0.319,0.637001l-0.858002,1.195015l-1.47699,0.472l-1.073013,1.01799l-1.410004,1.476997l-0.820984,1.292999l1.372986,-0.060997l1.005005,0.385994l1.716003,-0.410995l-0.195999,1.208l1.061005,0.269997l0.759995,0.601006l1.600006,-1.44001l1.600006,-1.220001l0.845993,-1.685989l0.300003,-1.379005l1.582001,-0.772011l1.360992,-1.023987l1.483002,-1.25l1.244003,-1.330009l1.434998,-0.999001l1.453003,-0.974991l0.063004,-0.015999l0.335999,-0.242004l1.255997,-1.060005l1.029999,-1.159004l1.367004,-1.145996l0.656006,-1.311996l0.932007,-1.165001l0.925995,-1.134003l1.005005,-1.182991l-1.888,-0.067009l-1.600006,0.331009l-0.483994,-0.527l0.233002,-0.748009l1.207993,-0.18399l1.139999,-0.834l1.097,-0.006004l-0.539001,0.772003l0.662003,0.250992l1.220001,-0.937996l-0.705002,-0.550995l-0.373993,-0.618996l1.348999,-1.055l1.392014,-1.324005l0.955994,-1.428009l1.158966,-1.237999l1.619019,-0.771992l0.85199,0.605991l1.47702,-0.012001l1.34201,-0.453999l1.219971,-0.882992l1.379028,-0.974998l0.680969,-1.079002l0.882996,-0.716999l0.662018,-0.778l0.901001,0.288002l1.360992,-0.313l0.765991,-0.564003l1.208008,-0.170998l1.421997,0.385998l1.514008,-0.594997l1.415985,-0.926003l1.968018,-0.563999l1.453003,-0.618999l1.434998,-0.601002l1.759003,-0.729l-1.165009,-0.183998l1.324005,-0.667999l-0.109985,-0.521l-1.005005,-0.264004l-1.360992,-0.281998l1.746979,-0.667999l1.784027,-0.980999l1.182983,-0.141003l0.692993,-0.478996l0.164978,-0.588005l1.275024,-0.146996l1.679993,0.226997l-0.350006,-0.729l-0.417023,-0.686996l0.307007,-0.760002l1.299988,-0.117001l1.637024,0.257l1.47699,0.509003l-0.184021,0.889l0.417023,0.875996l2.016998,0.374004l1.911987,-0.221004l2.434021,-0.153l1.850983,-0.453999l-0.207977,-0.612999l-0.894989,-0.429001l1.323975,-0.453999l2.225006,-0.299999l1.766022,0l0.17099,0.747997l1.490021,-0.244999l1.519989,0.098l1.097015,-0.288002l1.134003,-0.447998l1.182983,0.957001l-0.330994,0.674l1.300018,0.031002l0.434998,-0.355003l-1.404022,-0.349998l-0.380005,-0.723l1.061005,-0.098003l0.944,0.214005l1.115997,0.238998l0.625031,-0.502998l-0.791016,-0.411003l1.403992,-0.385998l1.336029,-0.342999l1.188965,-0.031002l-0.681,0.759998l-0.078003,0.031002l-1.135986,0.324001l-1.299011,0.839996l-1.250977,0.699001l-1.312012,0.914001l-0.968994,0.735996l0.13501,0.968002l0.53299,0.778999l1.134003,0.551003l1.171021,0.238998l1.410004,0.067001l1.231964,-0.055l0.251007,-0.508999l1.251038,-0.037003l-0.877014,1.022991l1.287018,0.134998l1.48999,0l-1.53302,0.692001l1.637024,0.674l1.329987,-0.650002l1.355011,-0.797001l0.128967,-0.998997l1.770996,0.110001l-0.251984,-0.681l2.575012,-0.110004l-0.473022,0.607002l2.169983,-0.250999l1.34903,0.184002l1.237976,-0.478001l1.606018,-0.067001l2.005005,-0.117001l1.445984,-0.361l1.244019,-0.379997l0.473022,-0.576004l-0.024017,-0.820999l1.855988,0.27l1.70401,0.129002l1.863983,0.355l1.770996,0.385998l0.374023,-1.072998l0.744995,-0.768002l-1.177002,-0.698997l-0.128998,-0.852001l1.592987,0.166l0.484009,0.956001l0.761993,0.747997l1.035004,0.362l0.35498,0.644001l1.189026,-0.080002l-0.834015,-0.987l0.89502,-0.023998l0.446991,0.681l1.145996,0.104l0.203003,-0.791l-1.109009,-0.914001l-0.14798,-0.551998l1.453003,0.870998l1.429993,0.883003l-0.895996,0.686996l-1.175995,0.417004l-0.64502,0.814999l0.367004,0.870998l0.613037,-0.098l-0.421997,-0.723l0.526978,-0.514999l1.104004,-0.257l1.25,0.166l1.539001,-0.404999l-0.067993,-0.735004l0.23999,-0.771999l1.305023,-0.287998l1.104004,-0.540001l0.803009,-0.833l-1.71701,-0.870998l1.539001,0.146999l0.993988,-0.544998l0.631012,-0.834003l1.795013,-0.029999l1.39801,-0.178001l1.894989,0.227001l1.64801,0.294003l0.545013,1.053997l-2.296997,-0.453999l-1.459015,-0.037003l-1.613007,0.086002l-0.785004,0.466l-1.25,0.257l0.381012,0.999001l-0.957001,0.588001l-1.207001,0.649998l-0.963013,0.618999l-0.962982,0.631001l0.042999,0.932003l-1.416016,0.275997l-0.079987,0.033001l-1.121002,0.334999l-0.656006,0.466l0.925964,0.993l-0.820007,0.190002l-0.208984,0.667999l1.329987,0.244999l1.38501,-0.282009l1.421997,-0.27l1.231995,-0.546001l1.386993,-0.257l1.924011,0.264l1.104004,-0.379997l0.403992,-0.729l1.343994,-0.233002l0.729004,-0.348999l-0.588013,-0.699001l0.527008,-0.814999l-0.300995,-0.699001l1.605011,-0.227001l0.403992,0.748001l0.024994,0.735001l0.777008,0.822002l0.39801,0.802998l0.847992,0.699001l0.274994,0.993l1.018005,0.863998l0.667999,1.312l-0.09201,1.073002l1.299011,0.049l0.117004,-0.601002l-0.295013,-0.875999l0.546997,-0.508999l0.25,-0.668003l1.188995,0.190002l0.856995,0.397999l0.859009,-0.27l0.507996,0.601002l-1.47699,0.446999l1.292999,0.508999l1.729004,0.423l0.790985,0.852001l1.122986,0.693001l1.200989,0.055l-0.160004,0.833l-1.312012,0.362l1.484009,0.551998l1.47699,0.583l1.386993,0.771999l1.402008,0.564003l1.613007,0.802998l1.195007,0.716999l1.73999,-0.189999l1.410004,0.667999l0.790985,0.901001l-0.636993,0.534l0.195007,0.851997l-1.704987,-0.422997l-1.109009,-1l-0.954987,0.483997l-0.338013,0.570004l0.81601,1l0.312012,1.115997l0.686005,-0.889l1.790985,-0.123001l1.777008,0.221001l0.036987,-0.637001l1.524994,-0.080002l1.436005,0.509003l0.061005,0.729004l0.429993,0.961998l1.524994,0.638l1.459015,0.993004l1.593994,0.857994l0.980011,-0.472l1.209015,-0.466003l0.53299,1.208l0.042999,0.846008l-0.209015,0.918991l0.221008,0.852005l1.34201,0.527l0.854004,-0.705002l-0.479004,-0.803001l1.579987,0.110001l0.796997,1.373001l-0.710999,0.975006l-0.188995,1.097l-1.625,-0.166l-1.367004,-0.129005l-1.636993,-0.140999l-0.875,0.912994l-0.436005,0.779007l-1.410004,0.428993l0.722992,-0.821999l-0.006012,-0.081001l-0.02301,-1.041l0.307007,-0.949997l-0.203003,-0.914001l-0.312012,-0.992996l-0.097992,-1.060997l-1.018005,-1.171013l-1.48999,-1.073006l-1.484009,-0.637993l-1.567993,0.018997l-1.11499,0.331001l-0.484009,0.863998l-0.214996,0.918999l-0.515991,0.914001l-0.582001,0.894997l-0.25,1.042007l0.084015,1.176994l0.313995,1.263008l-1.122986,-0.048996l-0.18399,0.852005l0.894989,0.771996l0.165985,1.103996l-0.770996,1.018005l-0.093994,-1.085007l-1.574005,-1.102997l-0.520996,0.809006l-0.527008,0.875992l-0.178009,1.084991l2.286987,1l-1.415955,0.06102l1.438995,1.005005l-2.106995,-0.319l0.790985,0.791l1.286987,0.662003l-0.710999,0.679993l1.061005,1.012001l1.622986,0.993004l0.778992,1.318001l0.03299,0.089996l0.096008,1.056l0.106995,0.099998l1.75,1.065002l0.631012,1.152l1.213013,0.293999l0.252014,-0.489998l1.221008,1.177002l-1.171997,-0.208l0.90799,0.863998l-1.785004,-0.699005l1.188995,1.116005l0.882996,1.127998l0.895996,-0.319l0.575989,1.496002l1.450989,1.208l-1.15799,-1.453003l-0.269989,-1.084999l-0.300995,-1.237999l1.785004,1.667l1.438995,0.760002l1.459015,1.323997l1.453003,1.004997l1.415985,0.833l1.43399,0.957001l1.704987,1.071999l1.061005,1.374001l1.949005,1.544006l1.324005,1.25l1.335999,1.280983l-0.942993,0.331017l1.34201,1.11599l1.011993,1.103996l0.042999,1.335999l1.238007,1.483002l0.920013,1.348l0.899994,1.501999l1.188995,0.140999l0.957001,1.097l1.43399,0.503006l1.39801,0.618996l1.493988,0.055l0.993988,1.029999l1.127014,0.355003l-0.028992,-1.159004l0.911987,1.257004l1.324005,0.871002l0.932007,-0.141006l1.049011,-0.728989l0.48999,-1.047997l-0.606995,-1.594002l-0.954987,-1.25l-1.214996,-1.723l0.085999,-0.692001l-1.02301,-0.969002l0.882996,-0.300003l1.917999,0.55201l1.661987,0.293983l0.104004,0.036011l1.796997,0.400002l1.636993,0.306l1.38501,-0.213997l1.02301,0.894997l1.355011,0.171005l1.035004,0.526993l0.042999,-1.02301l0.019989,-0.889l-1.036987,-0.385994l-1.31601,-1.397003l0,-0.992996l-0.014008,-0.883011l-1.856995,-1.445999l-1.863007,-1.067001l-1.360992,-0.828003l-1.610992,-0.68l-1.078003,-0.667999l-1.165985,-1.496002l-0.894989,-1.355003l-0.484009,0.258003l-0.882996,-1.103996l-0.85199,-0.638l-1.09201,-0.072998l-1.018005,0.484001l-1.040985,0.477997l-1.393005,-0.404999l-1.686005,-0.797005l-1.686005,-0.69899l-0.871002,-0.698997l-1.752014,-1.378998l-1.200989,-1.256004l-0.938995,-1.047989l-0.980011,-1.237999l-1.213013,-0.705002l-1.25,-1.072998l-0.735992,0.544998l-1.221008,-0.857994l-0.846008,-0.123016l-0.69101,-0.784996l-1.214996,-0.729004l0.117004,-0.759995l-0.153992,-0.723l-0.44101,-0.785004l0.902008,-0.681l1.703003,0.343002l0.76001,0.863998l1.856995,1.055l1.593994,1.292999l1.882996,1.416l1.593994,1.397003l1.765991,0.987l1.660004,0.39801l1.582001,-0.02401l1.729004,0.949997l1.09201,0.349998l0.661987,-0.723999l0.699005,-0.403999l0.312012,-1.055l-0.53299,-1.299004l-0.854004,-1.361l-0.875,-1.355003l-0.871002,-1.330002l-0.479004,-1.501999l0.985992,-0.650002l-0.575989,-0.931999l1.13501,-0.233002l-0.054993,1.177002l1.43399,1.373001l0.980011,0.753998l0.454987,1.459l-0.171997,1.072998l0.582001,1.312004l0.527008,1.194984l1.011993,1.171005l1.354004,0.435997l1.274994,0.098l0.074005,-0.723999l1.593994,0.527l1.588013,0.539001l0.949005,1l-0.071991,0.748001l-0.981995,0.09201l-0.661987,0.428993l0.472992,1.177002l1.674011,1.091003l1.121002,0.889l1.834015,0.728996l1.550995,0.514999l1.631012,1.152l2.278992,2.452003l0.613007,1.017998l0.09201,0.906998l-0.132996,-0.002998l-1.375,-0.181l0.343994,1.403999l0.593994,1.544998l1.054993,1.551003l0.269989,1.428001l0.76001,1.728996l-0.264008,0.662003l-0.557007,0.638l-0.472992,-0.918999l-1.071991,-0.018997l0.747986,1.047997l0.214996,1.195l0.446991,0.931999l0.704987,1.220001l-0.09201,0.918999l-0.988007,-0.846001l-0.937988,1.005005l-0.770996,-0.44101l-0.890991,0.459l-1.493988,-1.37899l-1.48999,-1.490005l-0.424011,-1.274994l-1.040985,-0.546005l-0.097992,0.864998l-1.042999,-0.55201l-1.299011,-1.060989l-1.054993,-0.532997l0.140991,1.091003l0.975006,1.146004l0.122986,1.244003l0.692993,1.042l1.003998,0.826996l1.570007,0.883011l1.335999,0.612999l0.906006,-0.311996l1.550995,0.894997l1.097992,0.080002l0.44101,0.820999l0.854004,-0.066994l0.660004,1.121994l0.988007,0.728989l-0.649994,0.478004l-0.195007,1.060997l0.656006,1l-0.307007,1.458l0.299011,1.256996l1.264008,0.828003l0.39801,-0.514999l0.747986,0.490997l0.582001,1.182999l-0.667999,0.33699l-1.48999,-0.998993l0.13501,0.705002l1.152008,1.102997l0.895996,1.097l0.825989,1.220001l0.77301,1.378998l0.214996,1.311996l0.38501,1.643005l0.178009,1.329987l0.854004,1.005005l1.152008,1.054001l0.207001,1.067001l0.497986,5.166992l-1.343994,-0.557999l-0.415985,0.987l1.631012,0.600998l1.734009,1.115997l-0.417999,0.987l-0.286987,1.335999l-1.152008,-0.233002l-0.312012,1.317993l0.054993,1.257004l-0.274994,1.169998l1.410004,1.104004l0.80899,-0.294006l0.415985,-0.858002l1.140991,-0.386002l0.742004,-0.962006l0.582001,0.110001l1.195007,0.080002l0.606995,0.748001l0.85199,0.158997l1.028992,-0.287994l1.295013,0.563995l1.450989,1.550995l1.436005,1.576004l1.018005,1.177002l1.34201,1.746994l0.063995,0.076996l0.36499,1.007996l-0.178009,1.164993l-0.704987,0.852005l-0.914001,1.341995l-0.335999,1.986008l-1.036987,0.778l-0.920013,1.164993l-0.557007,1.576004l-0.687988,1.212997l-1.402008,0.686996l0.653992,1.716003l-0.464996,1.274994l0.312012,1.128006l1.846008,0.820999l0.894989,1.292999l0.856995,0.753998l1.350006,1.048004l0.856995,1.324005l0.945007,1.673004l1.187988,1.778l0.363007,1.569l0.992004,1.544006l1.02301,0.440994l0.496002,-0.791l0.981995,1.550995l1.06601,1.397003l0.679993,1.507996l0.527008,-1.410004l0.785004,-0.742004l0.11499,-1.281006l0.484009,-0.832993l1.097992,-0.311996l0.722992,0.348999l1.415985,0.705002l0.90799,-0.552002l-0.360992,-2.164001l0.152008,-1.477997l0.411987,-1.397003l0.575989,-1.207993l0.550995,-1.188995l0.527008,-1.195007l-0.613007,-1.802002l-0.679993,-2.330002l-0.074005,-0.153l-5.890991,-12.953003l0,-0.110001l-0.067993,-1.294006l-0.011993,-1.531998l-0.472992,-1.979996l-0.324005,-1.582001l-1.502014,-1.195007l-1.312012,-1.024002l-0.312012,-1.703995l-0.415985,-1.384995l0.735992,-0.723007l0.53299,-1.110001l0.906006,-0.557999l0.049011,-1.330994l-0.710999,-1.550995l-0.428009,-1.692001l-0.214996,-1.471008l-0.811005,-1.213989l-0.292999,-1.152008l0.355011,-0.785004l0.539001,-0.275986l0.355011,-0.950012l1.329987,0.876999l1.152008,0.39801l1.164001,-0.117004l0.890991,0.557999l0.09201,-0.992996l1.127014,-0.13501l1.121002,0.037003l0.687988,-0.483994l0.054993,-1.335999l0.85199,-0.171005l0.639008,-0.343002l0.231995,-0.484009l1.011993,0.324997l0.403992,-1.029999l0.803009,0.509003l1.006012,0.343018l1.006012,0.69899l0.605011,1.041992l0.975006,1.195007l0.589996,0.526993l-0.011993,-0.69899l-0.015991,-0.067993l-0.585999,-0.814011l-0.613007,-1.219986l-0.975006,-0.846008l-0.446991,-1.391998l-1.011993,-0.852005l-0.563995,0.533005l-1.231995,-1.361008l-0.838013,-1.177017l0.372986,-0.502991l0.13501,-0.863983l0.796997,0.466003l0.165985,-0.502014l-0.859009,-1.01799l-0.932007,0.221008l-0.550995,0.526993l-0.570007,0.527008l-0.582001,0.698975l-0.39801,0.674011l-0.846008,-1.158997l0.02301,1.667007l-0.636993,0.662003l-0.656006,0.490005l-0.649994,-0.006012l-1.097992,-0.667984l-1.109009,-0.348999l-0.69101,0.471985l-0.704987,0.294006l-0.920013,0.147003l-0.894989,-0.514999l-0.889008,-0.987l-0.704987,-0.018997l-0.882996,-0.828003l0.049011,-0.772003l-0.625,-1.434006l0.257996,-0.785004l0.667999,0.785004l0.925995,0.514999l0.686005,0.005997l-0.44101,-0.956985l-0.889008,-0.80899l0.90799,-0.619019l1.127014,0.630997l0.667999,0l0.877014,0.638l0.649994,-0.643997l0.643005,-0.011993l0.171997,-0.98101l1.02301,-0.667999l1.011993,-0.374001l0.553009,-0.681l0.747986,-0.374001l0.53299,-0.532997l1.071991,0.949997l1.464996,1.281006l1.238007,0.961975l0.515991,-0.385986l0.932007,0.128998l0.729004,0.115997l1.097992,0.257004l0.871002,-0.048996l-0.067993,-1.416008l-0.464996,-1.728996l0.631012,-0.085999l-0.067993,-1.073006l0.55899,-0.410995l-1.360992,-1.103989l0.110992,-0.901016l-0.196991,0.545006l-0.722992,-0.422989l-0.214996,0.538994l-0.436005,0.246002l-0.71701,-0.281998l-0.656006,0.091995l-0.882996,-0.091995l-1.446991,-1.226006l0.804993,-0.269989l-0.209015,-1.017998l-0.687988,-0.796997l-0.502014,0.060997l-0.221008,-1.011002l-0.729004,-0.938011l-0.014008,-0.85199l-0.436005,-0.999001l-0.078003,-1.004997l0.625,-0.098l-0.479004,-1.139999l1.028992,1.391998l0.60199,0.429001l0.082001,0.055l1.399994,1.300003l-0.674011,-1.833l0.687988,0.759995l1.31601,0.852005l0.472992,0.091995l0.360992,0.674011l-0.372986,0.258003l0.80899,0.753998l0.09201,-0.728996l0.110992,-0.588997l0.832001,0.791l0.295013,-0.428993l0.957001,1.287994l-0.332001,-1.055l-0.335999,-1.047997l0.674011,0.808998l-0.410004,-1.220001l0.43399,-0.661995l-0.035004,-0.766006l-1.145996,-2.01001l-1.036987,-1.066994l-0.312012,-1.066002l-0.109009,-1.127998l0.484009,0.042l-0.100006,-0.748001l-0.76001,-1.159004l-0.39801,-0.846001l-1.200989,-1.569l-1.13501,-1.397995l-0.15799,-0.956001l-0.350006,-0.667999l-1.264008,-1.551003l0.44101,0.233002l1.085999,1.208l0.502014,0.190002l0.877014,0.883011l1.378998,1.102989l0.925995,0.667999l1.214996,1.397011l1.428009,1.520988l1.25,1.396996l1.15799,1.25l1.128998,1.238007l1.312012,1.642998l0.975006,1.323997l0.942993,1.808998l0.735992,1.421997l-0.136993,0.275993l0.77301,0.975006l0.104004,0.625l-0.722992,-0.822006l0.459015,1.300011l0.675995,1.459l0.975006,1.770996l0.894989,1.60601l0.570007,1.299995l-0.024994,0.803001l0.436005,1.323997l0.031006,0.785004l-0.049011,0.583008l0.22699,1.17099l0.207001,1.139999l0.497986,1.47699l-0.687988,-0.300003l0.317993,1.330017l-0.02301,0.980988l0.09201,1.122009l-0.785004,-0.643997l-0.09201,0.949997l0.104004,1.335999l0.375,1.477997l0.539001,1.666992l1.011993,2.213013l0.03299,0.075989l2.906006,3.516006l0.070007,0.037994l0.575989,1.341995l0.429993,1.324005l-0.036987,0.979996l-0.563995,0.397995l-0.53299,0.809998l-0.231995,1.526001l-0.117004,1.177002l-0.472992,0.582993l-0.104004,0.024994l-0.386993,-0.018997l-1.01001,-1.139999l-0.343994,0.932007l-0.527008,0.748001l-0.203003,1.151993l-0.243988,1.514008l-0.09201,1.490005l-0.436005,0.735001l-0.639008,0.742004l-0.911987,-0.630997l0.085999,1.151993l-0.46701,0.533997l-0.911987,-0.815002l-0.449005,-1.317993l-0.605011,-1.697998l-0.859009,-1.526001l-0.917999,-0.772003l-0.454987,0.350006l-1.335999,-0.987l-0.307007,-1.104004l-0.899994,-1.490005l0.415985,2.011002l-1.200989,-0.613007l-0.324005,0.889008l0.036987,1.25l0.43399,1.459l0.031006,1.281006l-0.674011,1.201004l0.214996,1.300003l-0.718994,1.188995l0.363007,1.496002l-0.067993,1.263l-0.53299,0.311996l-0.515991,1.011993l-0.34201,1.244003l-0.042999,1.091003l-0.312012,1.054001l0.028992,1.453003l-0.257996,1.643005l-0.367004,1.778l0.014008,0.072998l0.02301,6.069l0.02301,0.102997l0.46701,1.294006l-0.06601,2.072006l-0.277008,1.287003l-1.071991,0.552002l-0.238007,1.091003l-0.661987,1.373001l-0.264008,1.091003l-1.393005,0.483994l-0.954987,-0.386002l-0.381012,1.238007l0.753998,1.895004l0.682007,1.488998l0.539001,1.654999l0.539001,1.686005l-0.049011,2.145996l-0.386993,1.679993l-0.140991,1.746994l0.372986,1.876007l0.067993,1.813995l0.618988,0.944l0.436005,1.729004l0.006012,1.410004l1.481995,2.403l0.938995,0.453995l0.661987,2.207001l0.238007,1.942993l0.104004,2.065994l-0.446991,1.985992l0.188995,1.936996l-0.610992,2.158005l-1.042999,1.820007l0.13501,1.942993l0.48999,1.845993l0.09201,1.513992l-0.446991,1.802994l-0.049011,1.274002l0.453003,1.839005l0.307007,1.625l0.381012,2.272995l-0.160004,2.158005l-0.02301,1.960999l0.085999,1.770996l0.403992,2.557007l0.06601,1.802994l-0.307007,1.459l0.436005,1.703003l0.436005,1.688004l1.170013,0.097992l1.246002,0.38501l0.049011,0.06601l0.507996,1.436005l-0.257996,1.710999l1.160004,0.784973l0.839996,1.127014l0.507996,1.496002l0.350006,1.667999l0.165985,1.869019l0.140991,1.863007l0.606995,1.997986l-0.277008,1.949005l-0.128998,1.803009l-0.610992,1.667999l1.02301,-0.18399l0.889008,0.925995l0.600006,1.531006l0.214996,1.656006l0.417999,1.729004l0.985992,-0.209015l0.963013,-0.188995l0.734009,-1.221008l0.596008,1.770996l0.899994,-0.464996l0.871002,0.436005l0.710999,0.636993l0.914001,-0.252014l0.997986,0.22699l0.81601,0.406006l0.404022,1.243988l0.367004,0.985992l0.479004,0.813995l1.097961,0.234009l0.975037,-0.479004l0.948975,-0.48999l0.86499,0.140991l1.224976,-0.661987l0.975037,0.18399l0.762024,-0.079987l0.874939,-0.307007l1.018066,-0.281006l0.790955,-0.765991l0.619019,-0.796997l0.632935,-2.15799l0.796997,-1.722992l0.459045,-1.937988l0.765991,-1.703003l0.725037,-1.710999l0.507935,-1.281006l0.619019,-1.27002l0.957031,-1.438965l0.60498,-1.054993l0.735962,-0.797028l0.381042,-1.770966l0.44696,-1.645996l0.029053,-0.106995l1.751953,-6.955017l0.064026,-0.247986l0.097961,-1.580017l0.44104,-1.949005l0.38501,-1.550995l0.411987,-1.311996l0.421997,-1.759995l0.435974,-1.524994l0.424072,-0.845993l0.495972,-0.203003l0.410034,1.164001l0.325989,1.380997l0.44696,-0.645004l0.286987,-1.324005l0.252014,-1.550995l0.231995,-1.576004l0.238037,-1.330002l0.165955,-1.335999l0.171997,-1.098007l0.177979,1.115005l0.17804,-0.875l0.19696,0.464996l0.207031,0.220993l0.049011,2.022995l0.062012,1.783005l-0.019958,1.587997l-0.054993,1.809006l0.134949,-0.453003l-0.07196,1.802994l0.005981,1.348007l0.009033,0.505005l-0.045959,1.052002l-0.215027,2.231995l0.06604,0.673981l0.013977,0.889038l0.06604,0.237976l0.116943,-0.955994c0.569031,-6.421982 0.85907,-12.923981 0.85907,-19.492981c0,-120.396996 -97.601013,-217.999998 -218.002014,-217.999998c-27.938019,0 -54.504028,5.215 -79.052017,14.790998m210.104813,119.262009l0.644989,-0.613007l-0.429993,-1.740997l1.104004,-0.968994l-1.011993,-1.25l0.252014,-1.306l1.02301,-0.820999l-0.246002,-1.661011l-0.082001,-0.141983l-1.218994,-5.875015l-0.053009,-0.156982l-0.406006,-1.477005l-1.089996,-1.300003l-1.109009,-0.306l-0.81601,0.552002l-0.118988,0l-6.078003,-0.246002l-0.109009,-0.020004l-1.350006,-0.396988l-1.605011,-0.834l-1.195007,-0.238998l-0.937988,0.600998l-0.436005,0.944l-0.424011,-1.263l-0.734009,-1.299011l-1.06601,-1.378998l-0.86499,-1.047989l-1.097992,-0.594009l-0.502014,1.145996l-0.424011,0.914001l-0.221008,1.220001l-1.054993,-1.372986l-0.48999,-1.827011l-0.875,-0.307007l-0.332001,1.385025l-0.613007,1.219986l1.054993,1.366989l0.699005,1.300018l0.932007,0.85199l-0.846008,0.311996l0.221008,0.820999l1.06601,0l0.48999,-0.912994l1.18399,1.716003l1.011993,0.778l-0.074005,-1.195007l1.188995,1.067001l0.459015,1.70401l0.453003,-0.834l0.968994,0.759995l-0.832001,-1.654999l1.27301,0.166l1.403992,1.918991l1.243988,0.300018l0.049011,-1.490005l0.024994,-1.483002l1.006012,1.434998l1.256012,0.13501l0.343994,-0.753998l1.003998,1.446991l1.22699,0.949997l-0.18399,1.072998l-0.914001,1.212997l0.847992,0.324997l0.686005,1.292999l0.453003,-0.906998l1.429993,1.169998l0.09201,1.177002l0.238007,1.520004l0.839996,0.330994l0.274994,-1.268997l0.644989,-0.583008l1.084015,-0.207993l-0.22699,-1.62999l0.920013,1.47699l-0.372986,0.802994l-0.44101,0.925003l0.839996,1.679993l0.502014,1.600006l0.445007,1.766998z"/>
    <path stroke-width="0.2043" stroke-miterlimit="10" stroke="#FFFFFF" id="lakes" fill="#000000" d="m525.5,199.834l0.117004,-1.097l0.324036,0.238998l0.300964,0.863998l0.092041,-1.306l0,-1.311996l0.435974,1.759003l0.13501,1.759003l0.195007,1.735001l-0.22699,0l-0.286987,-0.638l-0.245972,0.207993l-0.393005,-0.662003l-0.330017,-0.214005l-0.117065,-1.334991zm-279.373993,-67.068008l1.636993,1.109009l1.942993,0.944l0.429016,1.483002l-1.70401,-0.098007l-1.225998,-0.140991l-2.029007,1.182999l1.630005,1.263l1.018005,-0.791l1.845001,-0.227005l-0.649994,1.104004l-1.796005,1.011002l3.21199,-0.202011l0.343018,-1.807983l1.410004,1.648987l1.360992,-0.925995l1.268982,-0.681l-1.776978,-0.791l-1.317993,-1.335999l1.421997,-0.128998l1.502014,-0.091995l-0.753998,-1.25l-2.218994,-0.085999l-1.813995,-0.575989l-1.716003,-0.361008l-2.018036,-0.251022zm-2.557007,21.026016l0.632004,1.912994l1.059998,0.638l1.539001,0.164993l0.550995,0.667999l0.931992,-0.901001l1.544037,0.134995l1.403992,0.080002l1.619019,-1.263l1.686005,-0.177994l1.746979,0.503006l-0.005981,-1.042007l1.686005,0.820999l-1.134003,-1.214005l-1.061035,-0.533005l-1.488983,-0.098007l-0.987,0.539993l-1.397003,0.692993l-1.096985,-0.264008l-0.692993,-1.115997l0.066986,-1.048004l-1.574982,-0.919006l-0.208008,0.968994l0.067017,1.520004l-1.208008,-0.367996l-0.828003,0.955994l-1.238007,0.350006l-1.613037,-1.006943zm3.317001,12.786987l1.311996,1.048004l1.171021,-0.845993l1.507965,0.061996l1.625,0.772003l1.667023,0.054993l-0.649994,-1l-0.938019,-0.434998l-0.48999,-1.268997l-0.790985,-0.386002l-1.582001,0.981003l-1.275024,0.417007l-1.556992,0.600983zm10.150986,14.167007l2.06601,-0.244995l0.613007,-1.459l0.613007,-1.459l1.440002,-0.483994l-0.178009,-2.054001l-1.372986,1.177002l-1.091003,0.919006l-0.018982,1.679993l-0.950012,0.975006l-1.121033,0.949982zm3.427002,13.196991l0.276031,1.404007l-0.085999,1.955994l0.765991,1.231995l-0.386017,1.188995l1.625031,0.483994l-0.373993,1.869995l1.274963,-0.270004l-0.649963,1.434998l-0.644012,1.477997l-0.466003,1.531998l1.496002,-0.251007l1.281006,-2.292007l-0.466003,-1.740997l-0.257996,-2.403l0.031006,-1.968002l-0.122986,-2.011002l0.066986,-1.955994l-1.128021,-0.656006l-1.194977,-0.367996l-1.041046,1.336044zm-4.290985,-0.428986l0.037018,2.022995l1.182983,-0.600998l0.552002,1.182999l-0.845978,0.716995l-0.638031,1.789993l0.926025,1.306l0.94397,1.942993l-0.403992,1.225998l0.337006,1.421997l-0.570007,1.134003l1.772003,0.227005l-0.074005,-1.692001l-0.434998,-1.128006l-0.152985,-1.361008l0.85199,-1.410004l-0.987,-0.625l-1.281006,0.264008l0.39798,-2.225006l0.839996,-0.723999l0.417023,-1.182999l-0.975006,-1.636993l-1.894989,-0.648972zm13.834991,29.154999l1.25,0.270004l1.851013,-0.595001l0.735962,1.778l2.078003,-0.570007l2.06601,-0.595993l2.164001,-1.25l1.256989,0.203003l-1.906982,0.998001l-0.21402,1.238007l1.753021,-0.018005l0.826996,1.710007l1.697998,0.257004l2.292023,-0.643005l2.169983,-0.024994l-0.115997,0.951004l1.287018,0.151993l-0.447021,-1.660995l0.39801,-1.526001l-0.71701,-1.048004l0.165985,-1.281006l-1.881989,-0.244995l-0.871002,-1.386002l-0.539978,-1.998001l-2.041016,-0.307007l-1.674011,-1.231995l-1.047974,1.102997l-1.784027,0.656006l-1.072968,1.121994l-1.195038,0.748993l-1.770996,0.274994l-1.501984,1.022995l-1.697998,0.932007l-1.513,0.964005zm9.016998,9.813995l2.182007,-0.962997l-0.901001,1.477005l-0.404999,1.209l-0.796997,2.149994l-0.699005,1.464996l0,1.619003l-0.330994,2.182007l0.638,2.029007l1.164978,0.177994l1.226013,-0.436005l0.863983,-1.175995l0.767029,-2.121002l0.029968,-1.919998l-0.238983,-1.647995l0.21402,-1.544998l0.888977,-1.488998l0.66803,-1.526001l2.107971,-0.673996l1.110016,-1.783997l1.311981,0.158997l1.030029,0.772003l1.250977,0.791l0.53302,1.317001l-0.22702,2.201004l-1.543976,1.746002l-0.141022,1.289001l1.25,-1.166l1.415985,-0.470993l0.502014,1.960999l0.515015,1.960999l1.930969,-0.785004l0.178009,-2.242004l0.833008,-1.839996l0.582977,-1.520004l-0.356018,-1.330002l1.435028,1.716003l2.200989,1.104004l0.968994,-1.203003l-1.201996,-2.322006l-1.195007,-1.992004l-2.372009,-0.791l-1.697998,-0.496002l-1.752991,-0.166l-1.71698,-0.483994l-1.299011,-0.141006l0.300018,1.298996l-2.170013,-0.257004l-1.061005,-0.440994l-1.342987,0.134995l-2.69101,0.276001l-0.649994,-0.098999l-1.048004,1.108994l-1.139984,1.440002l-1.121002,1.442993zm10.906006,12.326996l1.802002,1.141006l1.636993,0.154007l1.666992,-0.160004l1.740997,-0.813995l1.680023,-0.526993l1.942963,-0.834l1.673004,-0.858994l1.238007,-1.195007l-1.869965,-0.098007l-1.863037,-0.108994l-0.980988,0.889008l-1.145996,-0.423996l-1.643005,0.214996l-1.024017,1.177994l-1.955994,0.783005l-1.625,-0.158005l-1.27298,0.817978zm10.904999,-4.830994l1.367004,0.386993l1.888,-0.520996l1.600006,0.067993l1.600006,0.354996l1.643005,-0.264008l1.838989,-0.613007l-0.195984,-1.906006l0.484009,-1.251999l-1.618011,0.584l-0.925995,0.932007l-1.826996,-0.354996l-1.378998,0.25l-1.826996,0.270004l-1.649017,0.520996l-0.999023,1.544022zm195.179993,-125.168007l-0.403992,-0.24501l-0.375,-0.238983l-0.312012,-0.080017l0.570007,1.115005l-1.028992,-1.330002l-1.054993,-1.335999l-0.871002,-0.950005l1.386993,1.833l1.292999,1.698006l0.69101,0.802994l0.563995,0.895004l-0.097992,0.293999l-0.22699,0.073997l-0.393005,-0.264l-0.317993,-0.085999l-0.632996,-0.410995l-0.588013,-0.429016l0.55899,0.883011l0.48999,0.238998l0.649994,0.619003l0.47699,0.264l0.363007,0.062004l0.22699,-0.067017l0.588013,0.60701l0.295013,0.11599l0.575989,0.638l0.428009,0.257011l0.472992,0.466003l0.479004,0.447998l0.350006,0.288002l0.44101,0.459l0.085999,-0.080002l0.696991,1.060997l0.375,0.509003l0.386993,0.472l-0.09201,-0.256996l-0.186005,-0.423004l-0.221008,-0.429001l0.761993,1.237999l0.097992,0.129005l0.415985,0.710991l-6.919952,-9.551987zm-24.888977,-10.021996l0.790985,-0.147003l0.914001,0.349998l0.507996,-0.44101l-0.011993,-0.901001l-0.257996,-1.151993l-0.722992,-1.453003l-0.231995,-0.993004l-1.006012,-1.354004l-1.018005,-1.343002l-1.028992,-1.330002l-0.993988,-1.526001l-0.329987,-0.987l-0.627014,-1.268997l-0.667999,-1.055l0.46701,-0.165001l-0.674011,-1.256996l0.643005,-0.043007l-0.44101,-0.796997l0.042999,-0.595001l-0.643005,-0.901001l-0.19101,-0.71701l-0.846008,-1.188995l-0.863007,-1.182999l-0.527008,-0.987l-0.889008,-1.165001l-1.48999,-1.490005l-1.200989,-1.208l-0.86499,-0.557991l-0.436005,0.055l-0.76001,-0.189995l-0.085999,0.245003l0.221008,0.895996l-0.006012,0.593987l-0.214996,0.28801l-0.421997,0.405006l-0.062012,0.58799l0.320007,0.778l-0.042999,0.392998l0.011993,0.544998l-0.570007,0.049004l0.332001,0.582001l0.777008,1.139999l0.28299,0.791l1.096008,1.208l0.661987,0.999001l0.925995,0.918999l0.871002,1.133995l-0.343994,0.270004l-1.207001,-0.840004l-0.153992,0.374016l0.067993,0.839989l-1.421997,-1.280998l-1.006012,-1.410004l-0.165985,0.710999l0.925995,1.269005l-0.071991,1.010994l-1.061005,-0.863998l0.496002,1.165001l0.428009,1.054001l1.269989,0.992996l1.18399,1.201004l0.828003,1.292999l1.25,0.532997l1.006012,0.803001l0.746002,1.159004l1.097992,1.11599l1.054993,0.606995l1.335999,0.925011l0.60199,1.245003l1.317993,0.931999l1.082062,1.331032zm-13.90802,-17.673004l0.145996,-0.374001l0.618988,-0.03701l-0.031006,-0.68l-0.980011,-1.231995l-0.575989,-1.036003l-0.436005,-1.054001l-1.686005,-1.306l-1.579987,-1.329994l-0.085999,0.37999l-0.386993,0.153l-0.51001,-0.852005l-1.438995,-1.330002l-0.821991,-1.053993l-0.079987,0.379997l0.811005,1.054001l1.078003,1.507996l1.588013,1.643005l0.925995,1.378998l1.256012,1.434998l1.264008,1.139999l0.924957,1.21302zm-11.273987,-19.634995l0.753998,0.306992l-0.209015,-0.514999l0.618988,-0.084991l0.735992,0.311996l0.925995,0.410995l0.472992,-0.18399l0.25,-0.282005l-0.122986,-0.446999l0.338013,-0.135002l0.60199,0.147003l0.049011,-0.405006l-0.639008,-0.802994l1.011993,0.931999l1.214996,0.913002l1.286987,0.839996l0.790985,0.509003l0.69101,0.728996l1.042999,0.545006l0.834015,0.429001l0.834015,0.465996l-0.546997,-0.692001l-0.985992,-1.067009l0.188995,0.019012l-0.575989,-0.772003l-0.742004,-0.803009l-1.850006,-1.654991l-1.710999,-1.471001l-1.264008,-1.165009l-0.76001,-0.514999l-0.71701,-0.319l-1.22699,-0.722992l-1.545013,-1.012009l0.606995,0.595009l-0.479004,-0.159004l-0.949005,-0.546005l1.347992,1.214005l-0.496002,-0.195999l-1.421997,-0.888992l-0.722992,-0.778004l-1.214996,-1.067009l-1.696991,-1.214001l0.128998,0.355999l0.071991,0.343002l-0.367004,0.030998l1.335999,1.122002l1.238007,0.820999l0.692993,0.257l-0.424011,0.067001l-0.69101,-0.239002l-1.424011,-0.900997l-0.221008,0.049l1.13501,1.053997l0.117004,0.497002l-0.790985,-0.178001l-0.393005,0.238998l0.570007,0.772003l-0.667999,-0.331001l-1.061005,-1.048l-0.631012,-0.710999l-0.682007,-0.006001l-1.643005,-1.139999l-1.403992,-1.195l-0.415985,-0.693001l-1.152008,-0.931999l-0.980011,-0.858002l0.028992,0.319l-0.73999,-0.153l-0.804993,-0.091999l-0.078003,0.466l0.195007,0.644001l0.785004,0.729l1.02301,0.968998l0.582001,0.68l2.084015,1.41l1.178009,1.072998l1.243988,1.018013l0.453003,0.067001l0.920013,0.833l1.11499,0.655998l0.596008,0.918991l1.304993,0.742012l1.618988,0.961998l1.432068,0.913002zm-19.365021,-17.599003l0.975006,0.312l0.19101,-0.067001l1.11499,0.380001l-1.274994,-0.944l-1.292999,-0.931999l0.006012,-0.117001l-1.625,-1.029999l-2.05899,-1.084999l-0.925995,-0.282001l-0.968994,-0.601002l-1.109009,-0.563999l0.028992,0.264l0.171997,0.440998l-0.471008,-0.115997l-1.429993,-0.625l-1.27301,-0.576l1.746002,0.968998l0.140991,0.245003l1.582001,0.949997l0.644989,0.159004l0.299011,0.354996l1.264008,0.540001l0.925995,0.668003l0.785004,0.496998l0.975006,0.350002l1.578979,0.808998zm-109.210968,-33.004l-2.175995,-0.129l-1.783997,0.066999l-1.575012,0.086l-0.748016,0.239l-1.71698,0.195999l-1.899994,0.141001l-1.097015,0.215l-1.421967,0.342999l-0.833008,0.331001l-0.054993,0.312l-0.22702,0.392l-0.41098,0.373999l0.944,0.066999l0.472015,-0.207998l0.097992,-0.227001l0.649994,-0.312l0.644012,-0.299999l0.661987,-0.275999l1.269012,-0.288l1.268982,-0.264l0.932007,-0.196001l1.141022,-0.146999l0.937988,-0.172001l0.975006,-0.159l1.770996,-0.036999l2.179962,-0.048zm98.599976,62.398001l0.778992,-0.503006l1.164001,-0.146996l1.221008,0.080009l-0.22699,-0.540009l-0.925995,-0.497002l-0.417999,-0.956001l-1.230011,-0.624992l-1.042999,-0.202003l-0.894989,0.213997l-0.145996,0.728996l-0.589996,0.356003l0.338013,0.828003l1.084015,0.882004l0.888947,0.380997zm-4.572998,-5.928001l0.588013,-0.281998l0.117004,-0.728996l1.281006,0.195999l-0.329987,-0.613007l-0.778992,-0.581993l-1.054993,-0.147003l-0.502014,0.398003l-0.877014,0.152992l-1.372986,-0.262993l-0.436005,0.57l-0.067993,0.803001l0.606995,-0.276009l-0.049011,-0.551994l1.042999,0.140999l0.403992,0.778l1.428986,0.404999z"/>
   </g>
  </switch>
 </g>
</svg>